%TF.GenerationSoftware,KiCad,Pcbnew,9.0.0*%
%TF.CreationDate,2025-07-16T14:45:31-07:00*%
%TF.ProjectId,aether,61657468-6572-42e6-9b69-6361645f7063,rev?*%
%TF.SameCoordinates,Original*%
%TF.FileFunction,Soldermask,Bot*%
%TF.FilePolarity,Negative*%
%FSLAX46Y46*%
G04 Gerber Fmt 4.6, Leading zero omitted, Abs format (unit mm)*
G04 Created by KiCad (PCBNEW 9.0.0) date 2025-07-16 14:45:31*
%MOMM*%
%LPD*%
G01*
G04 APERTURE LIST*
G04 Aperture macros list*
%AMRoundRect*
0 Rectangle with rounded corners*
0 $1 Rounding radius*
0 $2 $3 $4 $5 $6 $7 $8 $9 X,Y pos of 4 corners*
0 Add a 4 corners polygon primitive as box body*
4,1,4,$2,$3,$4,$5,$6,$7,$8,$9,$2,$3,0*
0 Add four circle primitives for the rounded corners*
1,1,$1+$1,$2,$3*
1,1,$1+$1,$4,$5*
1,1,$1+$1,$6,$7*
1,1,$1+$1,$8,$9*
0 Add four rect primitives between the rounded corners*
20,1,$1+$1,$2,$3,$4,$5,0*
20,1,$1+$1,$4,$5,$6,$7,0*
20,1,$1+$1,$6,$7,$8,$9,0*
20,1,$1+$1,$8,$9,$2,$3,0*%
G04 Aperture macros list end*
%ADD10C,0.650000*%
%ADD11O,1.000000X2.100000*%
%ADD12O,1.000000X1.800000*%
%ADD13C,1.100025*%
%ADD14C,0.800000*%
%ADD15C,6.400000*%
%ADD16C,2.050000*%
%ADD17C,2.250000*%
%ADD18C,1.400000*%
%ADD19RoundRect,0.770000X-0.980000X-0.980000X0.980000X-0.980000X0.980000X0.980000X-0.980000X0.980000X0*%
%ADD20C,3.500000*%
%ADD21R,1.370000X1.370000*%
%ADD22C,1.370000*%
%ADD23R,1.000000X1.000000*%
%ADD24O,1.000000X1.000000*%
%ADD25RoundRect,0.250000X0.750000X0.750000X-0.750000X0.750000X-0.750000X-0.750000X0.750000X-0.750000X0*%
%ADD26C,2.000000*%
G04 APERTURE END LIST*
D10*
%TO.C,USB_STM32*%
X47860000Y-68645000D03*
X53640000Y-68645000D03*
D11*
X46430000Y-68125000D03*
D12*
X46430000Y-72325000D03*
D11*
X55070000Y-68125000D03*
D12*
X55070000Y-72325000D03*
%TD*%
D13*
%TO.C,ESP_B0*%
X112987427Y-28750000D03*
X112987427Y-25750000D03*
%TD*%
D10*
%TO.C,USB_ESP32*%
X76360000Y-68645000D03*
X82140000Y-68645000D03*
D11*
X74930000Y-68125000D03*
D12*
X74930000Y-72325000D03*
D11*
X83570000Y-68125000D03*
D12*
X83570000Y-72325000D03*
%TD*%
D14*
%TO.C,H1*%
X16600000Y-19000000D03*
X17302944Y-17302944D03*
X17302944Y-20697056D03*
X19000000Y-16600000D03*
D15*
X19000000Y-19000000D03*
D14*
X19000000Y-21400000D03*
X20697056Y-17302944D03*
X20697056Y-20697056D03*
X21400000Y-19000000D03*
%TD*%
D16*
%TO.C,ANT1*%
X29000000Y-71000000D03*
D17*
X31540000Y-73540000D03*
X31540000Y-68460000D03*
X26460000Y-73540000D03*
X26460000Y-68460000D03*
%TD*%
D14*
%TO.C,H3*%
X108600000Y-71000000D03*
X109302944Y-69302944D03*
X109302944Y-72697056D03*
X111000000Y-68600000D03*
D15*
X111000000Y-71000000D03*
D14*
X111000000Y-73400000D03*
X112697056Y-69302944D03*
X112697056Y-72697056D03*
X113400000Y-71000000D03*
%TD*%
%TO.C,H2*%
X16600000Y-71000000D03*
X17302944Y-69302944D03*
X17302944Y-72697056D03*
X19000000Y-68600000D03*
D15*
X19000000Y-71000000D03*
D14*
X19000000Y-73400000D03*
X20697056Y-69302944D03*
X20697056Y-72697056D03*
X21400000Y-71000000D03*
%TD*%
D18*
%TO.C,XT30*%
X26750000Y-16175000D03*
X37750000Y-16175000D03*
D19*
X34750000Y-26175000D03*
D20*
X29750000Y-26175000D03*
%TD*%
D21*
%TO.C,PWM1*%
X110730000Y-65290000D03*
D22*
X108190000Y-65290000D03*
X105650000Y-65290000D03*
X110730000Y-62750000D03*
X108190000Y-62750000D03*
X105650000Y-62750000D03*
X110730000Y-60210000D03*
X108190000Y-60210000D03*
X105650000Y-60210000D03*
X110730000Y-57670000D03*
X108190000Y-57670000D03*
X105650000Y-57670000D03*
X110730000Y-55130000D03*
X108190000Y-55130000D03*
X105650000Y-55130000D03*
X110730000Y-52590000D03*
X108190000Y-52590000D03*
X105650000Y-52590000D03*
X110730000Y-50050000D03*
X108190000Y-50050000D03*
X105650000Y-50050000D03*
X110730000Y-47510000D03*
X108190000Y-47510000D03*
X105650000Y-47510000D03*
%TD*%
D23*
%TO.C,GPS_IO1*%
X101290000Y-17250000D03*
D24*
X100020000Y-17250000D03*
X98750000Y-17250000D03*
X97480000Y-17250000D03*
X96210000Y-17250000D03*
%TD*%
D13*
%TO.C,STM_B0*%
X112987427Y-40000000D03*
X112987427Y-37000000D03*
%TD*%
D25*
%TO.C,PYRO1*%
X78285000Y-19025000D03*
D26*
X75745000Y-19025000D03*
X73205000Y-19025000D03*
X70665000Y-19025000D03*
%TD*%
D14*
%TO.C,H4*%
X108600000Y-19000000D03*
X109302944Y-17302944D03*
X109302944Y-20697056D03*
X111000000Y-16600000D03*
D15*
X111000000Y-19000000D03*
D14*
X111000000Y-21400000D03*
X112697056Y-17302944D03*
X112697056Y-20697056D03*
X113400000Y-19000000D03*
%TD*%
M02*
