%TF.GenerationSoftware,KiCad,Pcbnew,9.0.0*%
%TF.CreationDate,2025-04-04T17:03:46+04:00*%
%TF.ProjectId,aether,61657468-6572-42e6-9b69-6361645f7063,rev?*%
%TF.SameCoordinates,Original*%
%TF.FileFunction,Soldermask,Bot*%
%TF.FilePolarity,Negative*%
%FSLAX46Y46*%
G04 Gerber Fmt 4.6, Leading zero omitted, Abs format (unit mm)*
G04 Created by KiCad (PCBNEW 9.0.0) date 2025-04-04 17:03:46*
%MOMM*%
%LPD*%
G01*
G04 APERTURE LIST*
G04 Aperture macros list*
%AMRoundRect*
0 Rectangle with rounded corners*
0 $1 Rounding radius*
0 $2 $3 $4 $5 $6 $7 $8 $9 X,Y pos of 4 corners*
0 Add a 4 corners polygon primitive as box body*
4,1,4,$2,$3,$4,$5,$6,$7,$8,$9,$2,$3,0*
0 Add four circle primitives for the rounded corners*
1,1,$1+$1,$2,$3*
1,1,$1+$1,$4,$5*
1,1,$1+$1,$6,$7*
1,1,$1+$1,$8,$9*
0 Add four rect primitives between the rounded corners*
20,1,$1+$1,$2,$3,$4,$5,0*
20,1,$1+$1,$4,$5,$6,$7,0*
20,1,$1+$1,$6,$7,$8,$9,0*
20,1,$1+$1,$8,$9,$2,$3,0*%
G04 Aperture macros list end*
%ADD10C,0.650000*%
%ADD11O,1.000000X2.100000*%
%ADD12O,1.000000X1.800000*%
%ADD13C,0.900000*%
%ADD14C,0.800000*%
%ADD15C,6.400000*%
%ADD16C,2.050000*%
%ADD17C,2.250000*%
%ADD18C,1.400000*%
%ADD19RoundRect,0.770000X-0.980000X-0.980000X0.980000X-0.980000X0.980000X0.980000X-0.980000X0.980000X0*%
%ADD20C,3.500000*%
%ADD21R,1.370000X1.370000*%
%ADD22C,1.370000*%
%ADD23R,1.000000X1.000000*%
%ADD24O,1.000000X1.000000*%
%ADD25C,2.000000*%
%ADD26RoundRect,0.250000X0.750000X0.750000X-0.750000X0.750000X-0.750000X-0.750000X0.750000X-0.750000X0*%
G04 APERTURE END LIST*
D10*
%TO.C,USB_STM32*%
X82860000Y-138645000D03*
X88640000Y-138645000D03*
D11*
X81430000Y-138125000D03*
D12*
X81430000Y-142325000D03*
D11*
X90070000Y-138125000D03*
D12*
X90070000Y-142325000D03*
%TD*%
D13*
%TO.C,ESP_B0*%
X148080000Y-99250000D03*
X148080000Y-96250000D03*
%TD*%
D10*
%TO.C,USB_ESP32*%
X111360000Y-138645000D03*
X117140000Y-138645000D03*
D11*
X109930000Y-138125000D03*
D12*
X109930000Y-142325000D03*
D11*
X118570000Y-138125000D03*
D12*
X118570000Y-142325000D03*
%TD*%
D14*
%TO.C,H1*%
X51600000Y-89000000D03*
X52302944Y-87302944D03*
X52302944Y-90697056D03*
X54000000Y-86600000D03*
D15*
X54000000Y-89000000D03*
D14*
X54000000Y-91400000D03*
X55697056Y-87302944D03*
X55697056Y-90697056D03*
X56400000Y-89000000D03*
%TD*%
D16*
%TO.C,ANT1*%
X64000000Y-141000000D03*
D17*
X66540000Y-143540000D03*
X66540000Y-138460000D03*
X61460000Y-143540000D03*
X61460000Y-138460000D03*
%TD*%
D14*
%TO.C,H3*%
X143600000Y-141000000D03*
X144302944Y-139302944D03*
X144302944Y-142697056D03*
X146000000Y-138600000D03*
D15*
X146000000Y-141000000D03*
D14*
X146000000Y-143400000D03*
X147697056Y-139302944D03*
X147697056Y-142697056D03*
X148400000Y-141000000D03*
%TD*%
%TO.C,H2*%
X51600000Y-141000000D03*
X52302944Y-139302944D03*
X52302944Y-142697056D03*
X54000000Y-138600000D03*
D15*
X54000000Y-141000000D03*
D14*
X54000000Y-143400000D03*
X55697056Y-139302944D03*
X55697056Y-142697056D03*
X56400000Y-141000000D03*
%TD*%
D18*
%TO.C,XT30*%
X61750000Y-86175000D03*
X72750000Y-86175000D03*
D19*
X69750000Y-96175000D03*
D20*
X64750000Y-96175000D03*
%TD*%
D21*
%TO.C,PWM1*%
X147000000Y-135290000D03*
D22*
X144460000Y-135290000D03*
X141920000Y-135290000D03*
X147000000Y-132750000D03*
X144460000Y-132750000D03*
X141920000Y-132750000D03*
X147000000Y-130210000D03*
X144460000Y-130210000D03*
X141920000Y-130210000D03*
X147000000Y-127670000D03*
X144460000Y-127670000D03*
X141920000Y-127670000D03*
X147000000Y-125130000D03*
X144460000Y-125130000D03*
X141920000Y-125130000D03*
X147000000Y-122590000D03*
X144460000Y-122590000D03*
X141920000Y-122590000D03*
X147000000Y-120050000D03*
X144460000Y-120050000D03*
X141920000Y-120050000D03*
X147000000Y-117510000D03*
X144460000Y-117510000D03*
X141920000Y-117510000D03*
%TD*%
D23*
%TO.C,GPS_IO1*%
X136290000Y-87250000D03*
D24*
X135020000Y-87250000D03*
X133750000Y-87250000D03*
X132480000Y-87250000D03*
X131210000Y-87250000D03*
%TD*%
D13*
%TO.C,STM_B0*%
X148080000Y-111000000D03*
X148080000Y-108000000D03*
%TD*%
D25*
%TO.C,PYRO1*%
X105665000Y-89025000D03*
D26*
X113285000Y-89025000D03*
D25*
X110745000Y-89025000D03*
X108205000Y-89025000D03*
%TD*%
D14*
%TO.C,H4*%
X143600000Y-89000000D03*
X144302944Y-87302944D03*
X144302944Y-90697056D03*
X146000000Y-86600000D03*
D15*
X146000000Y-89000000D03*
D14*
X146000000Y-91400000D03*
X147697056Y-87302944D03*
X147697056Y-90697056D03*
X148400000Y-89000000D03*
%TD*%
M02*
