%TF.GenerationSoftware,KiCad,Pcbnew,9.0.0*%
%TF.CreationDate,2025-07-16T14:45:31-07:00*%
%TF.ProjectId,aether,61657468-6572-42e6-9b69-6361645f7063,rev?*%
%TF.SameCoordinates,Original*%
%TF.FileFunction,Soldermask,Top*%
%TF.FilePolarity,Negative*%
%FSLAX46Y46*%
G04 Gerber Fmt 4.6, Leading zero omitted, Abs format (unit mm)*
G04 Created by KiCad (PCBNEW 9.0.0) date 2025-07-16 14:45:31*
%MOMM*%
%LPD*%
G01*
G04 APERTURE LIST*
G04 Aperture macros list*
%AMRoundRect*
0 Rectangle with rounded corners*
0 $1 Rounding radius*
0 $2 $3 $4 $5 $6 $7 $8 $9 X,Y pos of 4 corners*
0 Add a 4 corners polygon primitive as box body*
4,1,4,$2,$3,$4,$5,$6,$7,$8,$9,$2,$3,0*
0 Add four circle primitives for the rounded corners*
1,1,$1+$1,$2,$3*
1,1,$1+$1,$4,$5*
1,1,$1+$1,$6,$7*
1,1,$1+$1,$8,$9*
0 Add four rect primitives between the rounded corners*
20,1,$1+$1,$2,$3,$4,$5,0*
20,1,$1+$1,$4,$5,$6,$7,0*
20,1,$1+$1,$6,$7,$8,$9,0*
20,1,$1+$1,$8,$9,$2,$3,0*%
%AMOutline5P*
0 Free polygon, 5 corners , with rotation*
0 The origin of the aperture is its center*
0 number of corners: always 5*
0 $1 to $10 corner X, Y*
0 $11 Rotation angle, in degrees counterclockwise*
0 create outline with 5 corners*
4,1,5,$1,$2,$3,$4,$5,$6,$7,$8,$9,$10,$1,$2,$11*%
%AMOutline6P*
0 Free polygon, 6 corners , with rotation*
0 The origin of the aperture is its center*
0 number of corners: always 6*
0 $1 to $12 corner X, Y*
0 $13 Rotation angle, in degrees counterclockwise*
0 create outline with 6 corners*
4,1,6,$1,$2,$3,$4,$5,$6,$7,$8,$9,$10,$11,$12,$1,$2,$13*%
%AMOutline7P*
0 Free polygon, 7 corners , with rotation*
0 The origin of the aperture is its center*
0 number of corners: always 7*
0 $1 to $14 corner X, Y*
0 $15 Rotation angle, in degrees counterclockwise*
0 create outline with 7 corners*
4,1,7,$1,$2,$3,$4,$5,$6,$7,$8,$9,$10,$11,$12,$13,$14,$1,$2,$15*%
%AMOutline8P*
0 Free polygon, 8 corners , with rotation*
0 The origin of the aperture is its center*
0 number of corners: always 8*
0 $1 to $16 corner X, Y*
0 $17 Rotation angle, in degrees counterclockwise*
0 create outline with 8 corners*
4,1,8,$1,$2,$3,$4,$5,$6,$7,$8,$9,$10,$11,$12,$13,$14,$15,$16,$1,$2,$17*%
%AMFreePoly0*
4,1,29,0.736610,0.177800,0.990610,0.177800,0.990610,-0.177800,0.736610,-0.177800,0.738922,-0.472186,0.992922,-0.472186,0.992922,-0.827786,0.738922,-0.827786,0.738922,-1.122172,0.992922,-1.122172,0.992922,-1.477772,0.738922,-1.477772,0.736613,-1.522279,-0.736613,-1.522279,-0.736610,-1.477772,-0.990610,-1.477772,-0.990610,-1.122172,-0.736610,-1.122172,-0.736610,-0.827786,-0.990610,-0.827786,
-0.990610,-0.472186,-0.736610,-0.472186,-0.736610,-0.177800,-0.990610,-0.177800,-0.990610,0.177800,-0.736610,0.177800,-0.736613,0.484321,0.736613,0.484321,0.736610,0.177800,0.736610,0.177800,$1*%
G04 Aperture macros list end*
%ADD10C,0.180000*%
%ADD11C,0.000100*%
%ADD12C,0.000000*%
%ADD13R,0.500000X0.300000*%
%ADD14RoundRect,0.135000X-0.185000X0.135000X-0.185000X-0.135000X0.185000X-0.135000X0.185000X0.135000X0*%
%ADD15RoundRect,0.140000X0.170000X-0.140000X0.170000X0.140000X-0.170000X0.140000X-0.170000X-0.140000X0*%
%ADD16RoundRect,0.225000X0.225000X0.250000X-0.225000X0.250000X-0.225000X-0.250000X0.225000X-0.250000X0*%
%ADD17RoundRect,0.135000X-0.135000X-0.185000X0.135000X-0.185000X0.135000X0.185000X-0.135000X0.185000X0*%
%ADD18R,0.600000X1.240000*%
%ADD19R,0.300000X1.240000*%
%ADD20O,1.000000X2.100000*%
%ADD21O,1.000000X1.800000*%
%ADD22RoundRect,0.317500X-0.317500X1.157500X-0.317500X-1.157500X0.317500X-1.157500X0.317500X1.157500X0*%
%ADD23RoundRect,0.250000X-0.475000X0.250000X-0.475000X-0.250000X0.475000X-0.250000X0.475000X0.250000X0*%
%ADD24RoundRect,0.102000X-2.050000X-0.850000X2.050000X-0.850000X2.050000X0.850000X-2.050000X0.850000X0*%
%ADD25RoundRect,0.140000X0.140000X0.170000X-0.140000X0.170000X-0.140000X-0.170000X0.140000X-0.170000X0*%
%ADD26R,0.254000X0.675000*%
%ADD27R,0.675000X0.254000*%
%ADD28RoundRect,0.135000X0.135000X0.185000X-0.135000X0.185000X-0.135000X-0.185000X0.135000X-0.185000X0*%
%ADD29RoundRect,0.225000X0.250000X-0.225000X0.250000X0.225000X-0.250000X0.225000X-0.250000X-0.225000X0*%
%ADD30RoundRect,0.150000X-0.625000X0.150000X-0.625000X-0.150000X0.625000X-0.150000X0.625000X0.150000X0*%
%ADD31RoundRect,0.250000X-0.650000X0.350000X-0.650000X-0.350000X0.650000X-0.350000X0.650000X0.350000X0*%
%ADD32R,1.250013X0.900000*%
%ADD33R,0.900000X0.900000*%
%ADD34RoundRect,0.150000X0.150000X-0.512500X0.150000X0.512500X-0.150000X0.512500X-0.150000X-0.512500X0*%
%ADD35R,0.700000X0.700000*%
%ADD36RoundRect,0.200000X-0.275000X0.200000X-0.275000X-0.200000X0.275000X-0.200000X0.275000X0.200000X0*%
%ADD37RoundRect,0.140000X-0.170000X0.140000X-0.170000X-0.140000X0.170000X-0.140000X0.170000X0.140000X0*%
%ADD38RoundRect,0.150000X-0.150000X-0.625000X0.150000X-0.625000X0.150000X0.625000X-0.150000X0.625000X0*%
%ADD39RoundRect,0.250000X-0.350000X-0.650000X0.350000X-0.650000X0.350000X0.650000X-0.350000X0.650000X0*%
%ADD40RoundRect,0.162500X-0.162500X0.837500X-0.162500X-0.837500X0.162500X-0.837500X0.162500X0.837500X0*%
%ADD41RoundRect,0.135000X0.185000X-0.135000X0.185000X0.135000X-0.185000X0.135000X-0.185000X-0.135000X0*%
%ADD42FreePoly0,0.000000*%
%ADD43R,0.406400X0.355600*%
%ADD44R,0.558800X0.304800*%
%ADD45C,0.800000*%
%ADD46C,6.400000*%
%ADD47C,2.050000*%
%ADD48C,2.250000*%
%ADD49RoundRect,0.218750X0.218750X0.256250X-0.218750X0.256250X-0.218750X-0.256250X0.218750X-0.256250X0*%
%ADD50R,0.800000X1.500000*%
%ADD51R,1.450000X2.000000*%
%ADD52RoundRect,0.112500X0.112500X-0.187500X0.112500X0.187500X-0.112500X0.187500X-0.112500X-0.187500X0*%
%ADD53RoundRect,0.200000X-0.200000X-0.275000X0.200000X-0.275000X0.200000X0.275000X-0.200000X0.275000X0*%
%ADD54RoundRect,0.147500X0.147500X0.172500X-0.147500X0.172500X-0.147500X-0.172500X0.147500X-0.172500X0*%
%ADD55R,0.900000X1.700000*%
%ADD56RoundRect,0.102000X-0.175000X-0.175000X0.175000X-0.175000X0.175000X0.175000X-0.175000X0.175000X0*%
%ADD57RoundRect,0.218750X-0.218750X-0.256250X0.218750X-0.256250X0.218750X0.256250X-0.218750X0.256250X0*%
%ADD58RoundRect,0.200000X0.275000X-0.200000X0.275000X0.200000X-0.275000X0.200000X-0.275000X-0.200000X0*%
%ADD59RoundRect,0.200000X0.200000X0.275000X-0.200000X0.275000X-0.200000X-0.275000X0.200000X-0.275000X0*%
%ADD60C,1.400000*%
%ADD61RoundRect,0.770000X-0.980000X-0.980000X0.980000X-0.980000X0.980000X0.980000X-0.980000X0.980000X0*%
%ADD62C,3.500000*%
%ADD63RoundRect,0.150000X-0.150000X0.587500X-0.150000X-0.587500X0.150000X-0.587500X0.150000X0.587500X0*%
%ADD64RoundRect,0.087500X-0.225000X-0.087500X0.225000X-0.087500X0.225000X0.087500X-0.225000X0.087500X0*%
%ADD65RoundRect,0.087500X-0.087500X-0.225000X0.087500X-0.225000X0.087500X0.225000X-0.087500X0.225000X0*%
%ADD66RoundRect,0.140000X-0.140000X-0.170000X0.140000X-0.170000X0.140000X0.170000X-0.140000X0.170000X0*%
%ADD67RoundRect,0.102000X0.685000X-0.685000X0.685000X0.685000X-0.685000X0.685000X-0.685000X-0.685000X0*%
%ADD68C,1.574000*%
%ADD69RoundRect,0.250000X-0.250000X-0.475000X0.250000X-0.475000X0.250000X0.475000X-0.250000X0.475000X0*%
%ADD70RoundRect,0.225000X0.375000X-0.225000X0.375000X0.225000X-0.375000X0.225000X-0.375000X-0.225000X0*%
%ADD71RoundRect,0.150000X0.512500X0.150000X-0.512500X0.150000X-0.512500X-0.150000X0.512500X-0.150000X0*%
%ADD72R,1.200000X1.400000*%
%ADD73RoundRect,0.225000X-0.250000X0.225000X-0.250000X-0.225000X0.250000X-0.225000X0.250000X0.225000X0*%
%ADD74RoundRect,0.087500X-0.187500X-0.087500X0.187500X-0.087500X0.187500X0.087500X-0.187500X0.087500X0*%
%ADD75RoundRect,0.087500X-0.087500X-0.187500X0.087500X-0.187500X0.087500X0.187500X-0.087500X0.187500X0*%
%ADD76RoundRect,0.250001X0.999999X-0.499999X0.999999X0.499999X-0.999999X0.499999X-0.999999X-0.499999X0*%
%ADD77R,1.000000X1.800000*%
%ADD78R,1.000000X1.000000*%
%ADD79O,1.000000X1.000000*%
%ADD80R,0.400000X0.500000*%
%ADD81R,0.300000X0.500000*%
%ADD82RoundRect,0.250000X1.600000X-0.300000X1.600000X0.300000X-1.600000X0.300000X-1.600000X-0.300000X0*%
%ADD83RoundRect,0.102000X-0.300000X0.550000X-0.300000X-0.550000X0.300000X-0.550000X0.300000X0.550000X0*%
%ADD84RoundRect,0.250000X0.750000X0.750000X-0.750000X0.750000X-0.750000X-0.750000X0.750000X-0.750000X0*%
%ADD85C,2.000000*%
%ADD86RoundRect,0.125000X-0.537500X-0.125000X0.537500X-0.125000X0.537500X0.125000X-0.537500X0.125000X0*%
%ADD87R,0.800000X0.400000*%
%ADD88R,0.400000X0.800000*%
%ADD89Outline5P,-0.600000X0.204000X-0.204000X0.600000X0.600000X0.600000X0.600000X-0.600000X-0.600000X-0.600000X0.000000*%
%ADD90R,1.200000X1.200000*%
%ADD91R,0.800000X0.800000*%
%ADD92R,0.500000X0.400000*%
%ADD93R,2.400000X0.740000*%
%ADD94RoundRect,0.100000X0.637500X0.100000X-0.637500X0.100000X-0.637500X-0.100000X0.637500X-0.100000X0*%
%ADD95RoundRect,0.225000X-0.225000X-0.250000X0.225000X-0.250000X0.225000X0.250000X-0.225000X0.250000X0*%
%ADD96RoundRect,0.000001X-0.900000X-0.750000X0.900000X-0.750000X0.900000X0.750000X-0.900000X0.750000X0*%
%ADD97RoundRect,0.000001X-0.750000X-0.900000X0.750000X-0.900000X0.750000X0.900000X-0.750000X0.900000X0*%
%ADD98RoundRect,0.125000X-0.250000X-0.125000X0.250000X-0.125000X0.250000X0.125000X-0.250000X0.125000X0*%
%ADD99R,3.400000X4.300000*%
%ADD100R,1.800000X1.000000*%
%ADD101R,2.000000X1.000000*%
%ADD102RoundRect,0.250000X0.362500X1.425000X-0.362500X1.425000X-0.362500X-1.425000X0.362500X-1.425000X0*%
%ADD103RoundRect,0.075000X-0.700000X-0.075000X0.700000X-0.075000X0.700000X0.075000X-0.700000X0.075000X0*%
%ADD104RoundRect,0.075000X-0.075000X-0.700000X0.075000X-0.700000X0.075000X0.700000X-0.075000X0.700000X0*%
G04 APERTURE END LIST*
D10*
X82190476Y-59485735D02*
X82190476Y-59066687D01*
X82190476Y-59066687D02*
X82152381Y-58990497D01*
X82152381Y-58990497D02*
X82076190Y-58952401D01*
X82076190Y-58952401D02*
X81923809Y-58952401D01*
X81923809Y-58952401D02*
X81847619Y-58990497D01*
X82190476Y-59447640D02*
X82114285Y-59485735D01*
X82114285Y-59485735D02*
X81923809Y-59485735D01*
X81923809Y-59485735D02*
X81847619Y-59447640D01*
X81847619Y-59447640D02*
X81809523Y-59371449D01*
X81809523Y-59371449D02*
X81809523Y-59295259D01*
X81809523Y-59295259D02*
X81847619Y-59219068D01*
X81847619Y-59219068D02*
X81923809Y-59180973D01*
X81923809Y-59180973D02*
X82114285Y-59180973D01*
X82114285Y-59180973D02*
X82190476Y-59142878D01*
X82876191Y-59447640D02*
X82800000Y-59485735D01*
X82800000Y-59485735D02*
X82647619Y-59485735D01*
X82647619Y-59485735D02*
X82571429Y-59447640D01*
X82571429Y-59447640D02*
X82533333Y-59371449D01*
X82533333Y-59371449D02*
X82533333Y-59066687D01*
X82533333Y-59066687D02*
X82571429Y-58990497D01*
X82571429Y-58990497D02*
X82647619Y-58952401D01*
X82647619Y-58952401D02*
X82800000Y-58952401D01*
X82800000Y-58952401D02*
X82876191Y-58990497D01*
X82876191Y-58990497D02*
X82914286Y-59066687D01*
X82914286Y-59066687D02*
X82914286Y-59142878D01*
X82914286Y-59142878D02*
X82533333Y-59219068D01*
X83142857Y-58952401D02*
X83447619Y-58952401D01*
X83257143Y-58685735D02*
X83257143Y-59371449D01*
X83257143Y-59371449D02*
X83295238Y-59447640D01*
X83295238Y-59447640D02*
X83371428Y-59485735D01*
X83371428Y-59485735D02*
X83447619Y-59485735D01*
X83714286Y-59485735D02*
X83714286Y-58685735D01*
X84057143Y-59485735D02*
X84057143Y-59066687D01*
X84057143Y-59066687D02*
X84019048Y-58990497D01*
X84019048Y-58990497D02*
X83942857Y-58952401D01*
X83942857Y-58952401D02*
X83828571Y-58952401D01*
X83828571Y-58952401D02*
X83752381Y-58990497D01*
X83752381Y-58990497D02*
X83714286Y-59028592D01*
X84742858Y-59447640D02*
X84666667Y-59485735D01*
X84666667Y-59485735D02*
X84514286Y-59485735D01*
X84514286Y-59485735D02*
X84438096Y-59447640D01*
X84438096Y-59447640D02*
X84400000Y-59371449D01*
X84400000Y-59371449D02*
X84400000Y-59066687D01*
X84400000Y-59066687D02*
X84438096Y-58990497D01*
X84438096Y-58990497D02*
X84514286Y-58952401D01*
X84514286Y-58952401D02*
X84666667Y-58952401D01*
X84666667Y-58952401D02*
X84742858Y-58990497D01*
X84742858Y-58990497D02*
X84780953Y-59066687D01*
X84780953Y-59066687D02*
X84780953Y-59142878D01*
X84780953Y-59142878D02*
X84400000Y-59219068D01*
X85123810Y-59485735D02*
X85123810Y-58952401D01*
X85123810Y-59104782D02*
X85161905Y-59028592D01*
X85161905Y-59028592D02*
X85200000Y-58990497D01*
X85200000Y-58990497D02*
X85276191Y-58952401D01*
X85276191Y-58952401D02*
X85352381Y-58952401D01*
X86228572Y-59485735D02*
X86228572Y-58952401D01*
X86228572Y-59104782D02*
X86266667Y-59028592D01*
X86266667Y-59028592D02*
X86304762Y-58990497D01*
X86304762Y-58990497D02*
X86380953Y-58952401D01*
X86380953Y-58952401D02*
X86457143Y-58952401D01*
X87028572Y-59447640D02*
X86952381Y-59485735D01*
X86952381Y-59485735D02*
X86800000Y-59485735D01*
X86800000Y-59485735D02*
X86723810Y-59447640D01*
X86723810Y-59447640D02*
X86685714Y-59371449D01*
X86685714Y-59371449D02*
X86685714Y-59066687D01*
X86685714Y-59066687D02*
X86723810Y-58990497D01*
X86723810Y-58990497D02*
X86800000Y-58952401D01*
X86800000Y-58952401D02*
X86952381Y-58952401D01*
X86952381Y-58952401D02*
X87028572Y-58990497D01*
X87028572Y-58990497D02*
X87066667Y-59066687D01*
X87066667Y-59066687D02*
X87066667Y-59142878D01*
X87066667Y-59142878D02*
X86685714Y-59219068D01*
X87333333Y-58952401D02*
X87523809Y-59485735D01*
X87523809Y-59485735D02*
X87714286Y-58952401D01*
X88780953Y-58685735D02*
X88857143Y-58685735D01*
X88857143Y-58685735D02*
X88933334Y-58723830D01*
X88933334Y-58723830D02*
X88971429Y-58761925D01*
X88971429Y-58761925D02*
X89009524Y-58838116D01*
X89009524Y-58838116D02*
X89047619Y-58990497D01*
X89047619Y-58990497D02*
X89047619Y-59180973D01*
X89047619Y-59180973D02*
X89009524Y-59333354D01*
X89009524Y-59333354D02*
X88971429Y-59409544D01*
X88971429Y-59409544D02*
X88933334Y-59447640D01*
X88933334Y-59447640D02*
X88857143Y-59485735D01*
X88857143Y-59485735D02*
X88780953Y-59485735D01*
X88780953Y-59485735D02*
X88704762Y-59447640D01*
X88704762Y-59447640D02*
X88666667Y-59409544D01*
X88666667Y-59409544D02*
X88628572Y-59333354D01*
X88628572Y-59333354D02*
X88590476Y-59180973D01*
X88590476Y-59180973D02*
X88590476Y-58990497D01*
X88590476Y-58990497D02*
X88628572Y-58838116D01*
X88628572Y-58838116D02*
X88666667Y-58761925D01*
X88666667Y-58761925D02*
X88704762Y-58723830D01*
X88704762Y-58723830D02*
X88780953Y-58685735D01*
X89390477Y-59409544D02*
X89428572Y-59447640D01*
X89428572Y-59447640D02*
X89390477Y-59485735D01*
X89390477Y-59485735D02*
X89352381Y-59447640D01*
X89352381Y-59447640D02*
X89390477Y-59409544D01*
X89390477Y-59409544D02*
X89390477Y-59485735D01*
X89733333Y-58761925D02*
X89771429Y-58723830D01*
X89771429Y-58723830D02*
X89847619Y-58685735D01*
X89847619Y-58685735D02*
X90038095Y-58685735D01*
X90038095Y-58685735D02*
X90114286Y-58723830D01*
X90114286Y-58723830D02*
X90152381Y-58761925D01*
X90152381Y-58761925D02*
X90190476Y-58838116D01*
X90190476Y-58838116D02*
X90190476Y-58914306D01*
X90190476Y-58914306D02*
X90152381Y-59028592D01*
X90152381Y-59028592D02*
X89695238Y-59485735D01*
X89695238Y-59485735D02*
X90190476Y-59485735D01*
D11*
%TO.C,BT1*%
X90550000Y-32250000D02*
X87750000Y-29450000D01*
X90550000Y-29450000D01*
X90550000Y-32250000D01*
G36*
X90550000Y-32250000D02*
G01*
X87750000Y-29450000D01*
X90550000Y-29450000D01*
X90550000Y-32250000D01*
G37*
D12*
%TO.C,G\u002A\u002A\u002A*%
G36*
X104119018Y-69199086D02*
G01*
X104116965Y-69201139D01*
X104114912Y-69199086D01*
X104116965Y-69197033D01*
X104119018Y-69199086D01*
G37*
G36*
X104611743Y-69096435D02*
G01*
X104609690Y-69098488D01*
X104607637Y-69096435D01*
X104609690Y-69094382D01*
X104611743Y-69096435D01*
G37*
G36*
X106048859Y-69449555D02*
G01*
X106046806Y-69451608D01*
X106044753Y-69449555D01*
X106046806Y-69447502D01*
X106048859Y-69449555D01*
G37*
G36*
X106052965Y-69441343D02*
G01*
X106050912Y-69443396D01*
X106048859Y-69441343D01*
X106050912Y-69439290D01*
X106052965Y-69441343D01*
G37*
G36*
X104918328Y-69128599D02*
G01*
X104918820Y-69133472D01*
X104918328Y-69134074D01*
X104915887Y-69133510D01*
X104915591Y-69131337D01*
X104917093Y-69127957D01*
X104918328Y-69128599D01*
G37*
G36*
X106055703Y-69428341D02*
G01*
X106056194Y-69433213D01*
X106055703Y-69433815D01*
X106053262Y-69433252D01*
X106052965Y-69431078D01*
X106054468Y-69427698D01*
X106055703Y-69428341D01*
G37*
G36*
X106105043Y-69434414D02*
G01*
X106105532Y-69440831D01*
X106104719Y-69442284D01*
X106102852Y-69441059D01*
X106102562Y-69436895D01*
X106103565Y-69432514D01*
X106105043Y-69434414D01*
G37*
G36*
X104123586Y-69208171D02*
G01*
X104126799Y-69214874D01*
X104126580Y-69217461D01*
X104123319Y-69219984D01*
X104122012Y-69219189D01*
X104119287Y-69212770D01*
X104119018Y-69209899D01*
X104120321Y-69205989D01*
X104123586Y-69208171D01*
G37*
G36*
X104382603Y-69215510D02*
G01*
X104384512Y-69229554D01*
X104385231Y-69246533D01*
X104385041Y-69254518D01*
X104384252Y-69267151D01*
X104383237Y-69272597D01*
X104381398Y-69271872D01*
X104378207Y-69266131D01*
X104375104Y-69256632D01*
X104374434Y-69243590D01*
X104375770Y-69227123D01*
X104378972Y-69199086D01*
X104382603Y-69215510D01*
G37*
G36*
X104640475Y-68998528D02*
G01*
X104651329Y-69008199D01*
X104639541Y-69033840D01*
X104628580Y-69057379D01*
X104620661Y-69073670D01*
X104615617Y-69083021D01*
X104613282Y-69085746D01*
X104613371Y-69082727D01*
X104614847Y-69074711D01*
X104617300Y-69060829D01*
X104620337Y-69043310D01*
X104622446Y-69030990D01*
X104629621Y-68988857D01*
X104640475Y-68998528D01*
G37*
G36*
X104902845Y-69109487D02*
G01*
X104904755Y-69126443D01*
X104909478Y-69136924D01*
X104909956Y-69137433D01*
X104914398Y-69145162D01*
X104912618Y-69153124D01*
X104909945Y-69157959D01*
X104907303Y-69157767D01*
X104903323Y-69151643D01*
X104899592Y-69144485D01*
X104894322Y-69133120D01*
X104892722Y-69124540D01*
X104894441Y-69114566D01*
X104896503Y-69107531D01*
X104902418Y-69088223D01*
X104902845Y-69109487D01*
G37*
G36*
X107222522Y-69125224D02*
G01*
X107233013Y-69133431D01*
X107240333Y-69141479D01*
X107241940Y-69144519D01*
X107242903Y-69152643D01*
X107242474Y-69163932D01*
X107241012Y-69175582D01*
X107238874Y-69184788D01*
X107236421Y-69188744D01*
X107236282Y-69188754D01*
X107232170Y-69186137D01*
X107223595Y-69179201D01*
X107212103Y-69169223D01*
X107206764Y-69164418D01*
X107180075Y-69140150D01*
X107192885Y-69127119D01*
X107205694Y-69114088D01*
X107222522Y-69125224D01*
G37*
G36*
X104327603Y-69240894D02*
G01*
X104334461Y-69252050D01*
X104338286Y-69260722D01*
X104339682Y-69269851D01*
X104339251Y-69282378D01*
X104338328Y-69293175D01*
X104336684Y-69307967D01*
X104334884Y-69318946D01*
X104333269Y-69324127D01*
X104332992Y-69324293D01*
X104329321Y-69321195D01*
X104323318Y-69313532D01*
X104321535Y-69310948D01*
X104313350Y-69294357D01*
X104309740Y-69274787D01*
X104310404Y-69250320D01*
X104311065Y-69244324D01*
X104314055Y-69219759D01*
X104327603Y-69240894D01*
G37*
G36*
X106411256Y-69659275D02*
G01*
X106411324Y-69666647D01*
X106406142Y-69679443D01*
X106398047Y-69694051D01*
X106390107Y-69707223D01*
X106383929Y-69717108D01*
X106380552Y-69722055D01*
X106380239Y-69722329D01*
X106376367Y-69720559D01*
X106370158Y-69717596D01*
X106363143Y-69713331D01*
X106360919Y-69710629D01*
X106363401Y-69705963D01*
X106369810Y-69697219D01*
X106378590Y-69686248D01*
X106388184Y-69674905D01*
X106397038Y-69665041D01*
X106403595Y-69658510D01*
X106406029Y-69656910D01*
X106411256Y-69659275D01*
G37*
G36*
X103907193Y-69470122D02*
G01*
X103924579Y-69489002D01*
X103936657Y-69502852D01*
X103943974Y-69512399D01*
X103947079Y-69518367D01*
X103946521Y-69521484D01*
X103946200Y-69521723D01*
X103941484Y-69524124D01*
X103936753Y-69524372D01*
X103930798Y-69521738D01*
X103922406Y-69515498D01*
X103910365Y-69504925D01*
X103895910Y-69491571D01*
X103880659Y-69477260D01*
X103870468Y-69467108D01*
X103864373Y-69459692D01*
X103861411Y-69453588D01*
X103860620Y-69447373D01*
X103861009Y-69439979D01*
X103862390Y-69422190D01*
X103907193Y-69470122D01*
G37*
G36*
X106418240Y-69759882D02*
G01*
X106410025Y-69775986D01*
X106422184Y-69775986D01*
X106432365Y-69777665D01*
X106437636Y-69781750D01*
X106436635Y-69786816D01*
X106434327Y-69788700D01*
X106428254Y-69790192D01*
X106416687Y-69791297D01*
X106401641Y-69791999D01*
X106385131Y-69792285D01*
X106369171Y-69792140D01*
X106355776Y-69791551D01*
X106346960Y-69790503D01*
X106344558Y-69789330D01*
X106346301Y-69783587D01*
X106351951Y-69777762D01*
X106362497Y-69771235D01*
X106378929Y-69763391D01*
X106400873Y-69754161D01*
X106426456Y-69743778D01*
X106418240Y-69759882D01*
G37*
G36*
X105727766Y-69039114D02*
G01*
X105736724Y-69044536D01*
X105746358Y-69051322D01*
X105754050Y-69057631D01*
X105757181Y-69061563D01*
X105754799Y-69065841D01*
X105748525Y-69074219D01*
X105740005Y-69084736D01*
X105730886Y-69095427D01*
X105722812Y-69104332D01*
X105717430Y-69109486D01*
X105716537Y-69110026D01*
X105713374Y-69107166D01*
X105709102Y-69098449D01*
X105705682Y-69088914D01*
X105701849Y-69076014D01*
X105700728Y-69067750D01*
X105702499Y-69060946D01*
X105707343Y-69052426D01*
X105707783Y-69051713D01*
X105714581Y-69042525D01*
X105720597Y-69037330D01*
X105722102Y-69036897D01*
X105727766Y-69039114D01*
G37*
G36*
X107340569Y-68983948D02*
G01*
X107348444Y-68993963D01*
X107353528Y-69001561D01*
X107354582Y-69004109D01*
X107353438Y-69009668D01*
X107350326Y-69021434D01*
X107345728Y-69037775D01*
X107340124Y-69057061D01*
X107333995Y-69077659D01*
X107327821Y-69097938D01*
X107322084Y-69116266D01*
X107317264Y-69131012D01*
X107316685Y-69132710D01*
X107307060Y-69160772D01*
X107287701Y-69120391D01*
X107279685Y-69102542D01*
X107273288Y-69086152D01*
X107269295Y-69073363D01*
X107268349Y-69067535D01*
X107270152Y-69055328D01*
X107275932Y-69040865D01*
X107286265Y-69023030D01*
X107301725Y-69000705D01*
X107305107Y-68996111D01*
X107326557Y-68967176D01*
X107340569Y-68983948D01*
G37*
G36*
X105860755Y-71465960D02*
G01*
X105868470Y-71468356D01*
X105881080Y-71473445D01*
X105897021Y-71480472D01*
X105914726Y-71488683D01*
X105932630Y-71497324D01*
X105949169Y-71505640D01*
X105962775Y-71512876D01*
X105971886Y-71518279D01*
X105974951Y-71521001D01*
X105971598Y-71524033D01*
X105963295Y-71528907D01*
X105952670Y-71534310D01*
X105942354Y-71538925D01*
X105934975Y-71541438D01*
X105933780Y-71541585D01*
X105929913Y-71538445D01*
X105929784Y-71537388D01*
X105926904Y-71531427D01*
X105919470Y-71522120D01*
X105909287Y-71511312D01*
X105898165Y-71500852D01*
X105887910Y-71492583D01*
X105882778Y-71489367D01*
X105870449Y-71481943D01*
X105858702Y-71473310D01*
X105847157Y-71463675D01*
X105860755Y-71465960D01*
G37*
G36*
X105793875Y-71546953D02*
G01*
X105823763Y-71571345D01*
X105847500Y-71591518D01*
X105865627Y-71608017D01*
X105878680Y-71621385D01*
X105887199Y-71632169D01*
X105891723Y-71640914D01*
X105892830Y-71647063D01*
X105889644Y-71661677D01*
X105879685Y-71673476D01*
X105862353Y-71683110D01*
X105857928Y-71684842D01*
X105847242Y-71688592D01*
X105839034Y-71690259D01*
X105830526Y-71689783D01*
X105818942Y-71687101D01*
X105806944Y-71683714D01*
X105776491Y-71674964D01*
X105760861Y-71644203D01*
X105746466Y-71614964D01*
X105735470Y-71590675D01*
X105728130Y-71571958D01*
X105724708Y-71559436D01*
X105724482Y-71556792D01*
X105726021Y-71548081D01*
X105729968Y-71535333D01*
X105733311Y-71526601D01*
X105742140Y-71505299D01*
X105793875Y-71546953D01*
G37*
G36*
X103567864Y-70823274D02*
G01*
X103580938Y-70824139D01*
X103589492Y-70826274D01*
X103595370Y-70830263D01*
X103600417Y-70836694D01*
X103602800Y-70840368D01*
X103608731Y-70847858D01*
X103614815Y-70849239D01*
X103620423Y-70847554D01*
X103631334Y-70844154D01*
X103636764Y-70845318D01*
X103638526Y-70851830D01*
X103638610Y-70855437D01*
X103636132Y-70865011D01*
X103630223Y-70871282D01*
X103624930Y-70872138D01*
X103621043Y-70870757D01*
X103610881Y-70867087D01*
X103595886Y-70861651D01*
X103577501Y-70854971D01*
X103572914Y-70853303D01*
X103547208Y-70843728D01*
X103529118Y-70836352D01*
X103518426Y-70830907D01*
X103514917Y-70827127D01*
X103518373Y-70824742D01*
X103528577Y-70823487D01*
X103545312Y-70823092D01*
X103548424Y-70823090D01*
X103567864Y-70823274D01*
G37*
G36*
X103753438Y-69452593D02*
G01*
X103753580Y-69454946D01*
X103757386Y-69464239D01*
X103768606Y-69476067D01*
X103786940Y-69490145D01*
X103798746Y-69497980D01*
X103813377Y-69508227D01*
X103827383Y-69519523D01*
X103834985Y-69526652D01*
X103848641Y-69540921D01*
X103835399Y-69545537D01*
X103825067Y-69548681D01*
X103817925Y-69550058D01*
X103817637Y-69550061D01*
X103813562Y-69546795D01*
X103806326Y-69538099D01*
X103797139Y-69525494D01*
X103791538Y-69517212D01*
X103780359Y-69500973D01*
X103772028Y-69490845D01*
X103765487Y-69485717D01*
X103760353Y-69484456D01*
X103750326Y-69481505D01*
X103743300Y-69476228D01*
X103738324Y-69468455D01*
X103739461Y-69460230D01*
X103740522Y-69457751D01*
X103745858Y-69449734D01*
X103750728Y-69447894D01*
X103753438Y-69452593D01*
G37*
G36*
X103585988Y-70657603D02*
G01*
X103596599Y-70660759D01*
X103612459Y-70665805D01*
X103632313Y-70672342D01*
X103652982Y-70679315D01*
X103680094Y-70688861D01*
X103700774Y-70696792D01*
X103714589Y-70702927D01*
X103721112Y-70707085D01*
X103721574Y-70708191D01*
X103718930Y-70712972D01*
X103712936Y-70721875D01*
X103705015Y-70732969D01*
X103696590Y-70744323D01*
X103689085Y-70754006D01*
X103683922Y-70760087D01*
X103682510Y-70761198D01*
X103678984Y-70758988D01*
X103669991Y-70753160D01*
X103656920Y-70744620D01*
X103642267Y-70735000D01*
X103625764Y-70723695D01*
X103611336Y-70712991D01*
X103600703Y-70704213D01*
X103595972Y-70699311D01*
X103591495Y-70691029D01*
X103586984Y-70679855D01*
X103583355Y-70668549D01*
X103581521Y-70659870D01*
X103581882Y-70656735D01*
X103585988Y-70657603D01*
G37*
G36*
X105792278Y-70476867D02*
G01*
X105804263Y-70506136D01*
X105817693Y-70537476D01*
X105831455Y-70568383D01*
X105844437Y-70596355D01*
X105854506Y-70616895D01*
X105867375Y-70642487D01*
X105876966Y-70662682D01*
X105883914Y-70679307D01*
X105888851Y-70694187D01*
X105892412Y-70709146D01*
X105895228Y-70726010D01*
X105897039Y-70739477D01*
X105898561Y-70776282D01*
X105893077Y-70809150D01*
X105880421Y-70838684D01*
X105863405Y-70862184D01*
X105842977Y-70879706D01*
X105818064Y-70892096D01*
X105790851Y-70898741D01*
X105763521Y-70899028D01*
X105745724Y-70895195D01*
X105719372Y-70882709D01*
X105696503Y-70864323D01*
X105677971Y-70841451D01*
X105664628Y-70815507D01*
X105657329Y-70787905D01*
X105656926Y-70760061D01*
X105658534Y-70750688D01*
X105662117Y-70739084D01*
X105668593Y-70722214D01*
X105677122Y-70702126D01*
X105686862Y-70680865D01*
X105689466Y-70675446D01*
X105700544Y-70651572D01*
X105709969Y-70628584D01*
X105718144Y-70605042D01*
X105725467Y-70579510D01*
X105732342Y-70550548D01*
X105739168Y-70516717D01*
X105746346Y-70476580D01*
X105748569Y-70463450D01*
X105759950Y-70395547D01*
X105792278Y-70476867D01*
G37*
G36*
X104036999Y-69374946D02*
G01*
X104044156Y-69387675D01*
X104052439Y-69398817D01*
X104060374Y-69406759D01*
X104066490Y-69409889D01*
X104068315Y-69409241D01*
X104070713Y-69403740D01*
X104073196Y-69393590D01*
X104073650Y-69391089D01*
X104076277Y-69375646D01*
X104081937Y-69385911D01*
X104084016Y-69391592D01*
X104087602Y-69403342D01*
X104092317Y-69419752D01*
X104097788Y-69439417D01*
X104103638Y-69460928D01*
X104109492Y-69482879D01*
X104114975Y-69503863D01*
X104119710Y-69522472D01*
X104123323Y-69537299D01*
X104125438Y-69546937D01*
X104125731Y-69550010D01*
X104121957Y-69548468D01*
X104111862Y-69544289D01*
X104096703Y-69537996D01*
X104077739Y-69530112D01*
X104062095Y-69523600D01*
X104034495Y-69511808D01*
X104013546Y-69502014D01*
X103998148Y-69493505D01*
X103987201Y-69485565D01*
X103979605Y-69477481D01*
X103974259Y-69468538D01*
X103972994Y-69465732D01*
X103969308Y-69455379D01*
X103965302Y-69441524D01*
X103961491Y-69426381D01*
X103958392Y-69412162D01*
X103956519Y-69401080D01*
X103956388Y-69395348D01*
X103956539Y-69395098D01*
X103961303Y-69395008D01*
X103970386Y-69397341D01*
X103971603Y-69397755D01*
X103985312Y-69401769D01*
X103992781Y-69401695D01*
X103995015Y-69397309D01*
X103994310Y-69392708D01*
X103994069Y-69386103D01*
X103997987Y-69379837D01*
X104007432Y-69371947D01*
X104010184Y-69369945D01*
X104028474Y-69356810D01*
X104036999Y-69374946D01*
G37*
G36*
X105890777Y-69882180D02*
G01*
X105919203Y-69888872D01*
X105950935Y-69895608D01*
X105982501Y-69901692D01*
X106010430Y-69906429D01*
X106016011Y-69907261D01*
X106045359Y-69911644D01*
X106067882Y-69915439D01*
X106084919Y-69918952D01*
X106097810Y-69922486D01*
X106107892Y-69926346D01*
X106114508Y-69929691D01*
X106124725Y-69935405D01*
X106107363Y-69942352D01*
X106094590Y-69949885D01*
X106078692Y-69962941D01*
X106060983Y-69980133D01*
X106042776Y-70000076D01*
X106025386Y-70021383D01*
X106010127Y-70042668D01*
X106005723Y-70049549D01*
X105970910Y-70099978D01*
X105932729Y-70144360D01*
X105891743Y-70182183D01*
X105848512Y-70212931D01*
X105803600Y-70236093D01*
X105799970Y-70237595D01*
X105790292Y-70240929D01*
X105774695Y-70245611D01*
X105754583Y-70251280D01*
X105731359Y-70257576D01*
X105706423Y-70264139D01*
X105681179Y-70270610D01*
X105657028Y-70276627D01*
X105635372Y-70281831D01*
X105617615Y-70285863D01*
X105605157Y-70288361D01*
X105599746Y-70289008D01*
X105594623Y-70287814D01*
X105582825Y-70284600D01*
X105565540Y-70279703D01*
X105543960Y-70273464D01*
X105519274Y-70266221D01*
X105506861Y-70262544D01*
X105463705Y-70249464D01*
X105425523Y-70237366D01*
X105392853Y-70226440D01*
X105366230Y-70216876D01*
X105346191Y-70208862D01*
X105333273Y-70202588D01*
X105329361Y-70199915D01*
X105321106Y-70188662D01*
X105313986Y-70171524D01*
X105308692Y-70150818D01*
X105305916Y-70128860D01*
X105305665Y-70120566D01*
X105307121Y-70095107D01*
X105311152Y-70067330D01*
X105317255Y-70039058D01*
X105324925Y-70012110D01*
X105333660Y-69988310D01*
X105342954Y-69969479D01*
X105350238Y-69959443D01*
X105360816Y-69950966D01*
X105377749Y-69940781D01*
X105399559Y-69929649D01*
X105424769Y-69918330D01*
X105448194Y-69908969D01*
X105460884Y-69904860D01*
X105479650Y-69899649D01*
X105502514Y-69893846D01*
X105527500Y-69887958D01*
X105544686Y-69884167D01*
X105566800Y-69879488D01*
X105585080Y-69875864D01*
X105601141Y-69873138D01*
X105616599Y-69871157D01*
X105633071Y-69869765D01*
X105652171Y-69868807D01*
X105675516Y-69868129D01*
X105704723Y-69867575D01*
X105720376Y-69867323D01*
X105825080Y-69865667D01*
X105890777Y-69882180D01*
G37*
G36*
X104697698Y-68718373D02*
G01*
X104699342Y-68718523D01*
X104723790Y-68721227D01*
X104745671Y-68724579D01*
X104763405Y-68728270D01*
X104775411Y-68731995D01*
X104779065Y-68733998D01*
X104781563Y-68739480D01*
X104783242Y-68751571D01*
X104784160Y-68770863D01*
X104784377Y-68787958D01*
X104784955Y-68814694D01*
X104786555Y-68834572D01*
X104789308Y-68848895D01*
X104791077Y-68854178D01*
X104793759Y-68861194D01*
X104795600Y-68867532D01*
X104796599Y-68874577D01*
X104796755Y-68883716D01*
X104796067Y-68896334D01*
X104794535Y-68913817D01*
X104792158Y-68937550D01*
X104791020Y-68948618D01*
X104787667Y-68977118D01*
X104783920Y-68999769D01*
X104779296Y-69018932D01*
X104773314Y-69036968D01*
X104772566Y-69038951D01*
X104766924Y-69053451D01*
X104762543Y-69064174D01*
X104760093Y-69069504D01*
X104759801Y-69069746D01*
X104760363Y-69065036D01*
X104762060Y-69054236D01*
X104764572Y-69039338D01*
X104765694Y-69032906D01*
X104768701Y-69014193D01*
X104769271Y-69001814D01*
X104766582Y-68994048D01*
X104759814Y-68989179D01*
X104748145Y-68985487D01*
X104742345Y-68984057D01*
X104723731Y-68980431D01*
X104709617Y-68979415D01*
X104701099Y-68980978D01*
X104699273Y-68985091D01*
X104699325Y-68985232D01*
X104697968Y-68991063D01*
X104691512Y-68995229D01*
X104687490Y-68995837D01*
X104685038Y-68992445D01*
X104680293Y-68983638D01*
X104675431Y-68973722D01*
X104669532Y-68959967D01*
X104667395Y-68950468D01*
X104668510Y-68942468D01*
X104669266Y-68940305D01*
X104672172Y-68930552D01*
X104671161Y-68927641D01*
X104666708Y-68931473D01*
X104659285Y-68941950D01*
X104658966Y-68942453D01*
X104650492Y-68955890D01*
X104642275Y-68968940D01*
X104639968Y-68972610D01*
X104631825Y-68985572D01*
X104634286Y-68956830D01*
X104635753Y-68941529D01*
X104637237Y-68928999D01*
X104638418Y-68921943D01*
X104638423Y-68921928D01*
X104639292Y-68916177D01*
X104640788Y-68903522D01*
X104642774Y-68885236D01*
X104645114Y-68862591D01*
X104647672Y-68836860D01*
X104648778Y-68825436D01*
X104651974Y-68792559D01*
X104654760Y-68766976D01*
X104657554Y-68747807D01*
X104660769Y-68734177D01*
X104664821Y-68725206D01*
X104670125Y-68720019D01*
X104677096Y-68717735D01*
X104686148Y-68717480D01*
X104697698Y-68718373D01*
G37*
G36*
X104908208Y-68715140D02*
G01*
X104911583Y-68722785D01*
X104913177Y-68731473D01*
X104914170Y-68746814D01*
X104914614Y-68767375D01*
X104914559Y-68791725D01*
X104914054Y-68818431D01*
X104913152Y-68846060D01*
X104911901Y-68873181D01*
X104910352Y-68898361D01*
X104908557Y-68920168D01*
X104906564Y-68937169D01*
X104904424Y-68947933D01*
X104903588Y-68950082D01*
X104900906Y-68958261D01*
X104898364Y-68971118D01*
X104897208Y-68979729D01*
X104896087Y-68992001D01*
X104896390Y-68997258D01*
X104898334Y-68996609D01*
X104900052Y-68994324D01*
X104906845Y-68984904D01*
X104912165Y-68977900D01*
X104915993Y-68973375D01*
X104917279Y-68973721D01*
X104916176Y-68980043D01*
X104913795Y-68989678D01*
X104908879Y-69010822D01*
X104906096Y-69026649D01*
X104905403Y-69036646D01*
X104906754Y-69040298D01*
X104910107Y-69037091D01*
X104915418Y-69026510D01*
X104916681Y-69023537D01*
X104920794Y-69014607D01*
X104926817Y-69002683D01*
X104933960Y-68989183D01*
X104941432Y-68975525D01*
X104948441Y-68963126D01*
X104954197Y-68953405D01*
X104957908Y-68947778D01*
X104958784Y-68947664D01*
X104958483Y-68948618D01*
X104954739Y-68960832D01*
X104950402Y-68977473D01*
X104945815Y-68996889D01*
X104941318Y-69017429D01*
X104937254Y-69037443D01*
X104933964Y-69055278D01*
X104931791Y-69069285D01*
X104931076Y-69077812D01*
X104931382Y-69079517D01*
X104932066Y-69086312D01*
X104928495Y-69097722D01*
X104927226Y-69100541D01*
X104919476Y-69116965D01*
X104920002Y-69102594D01*
X104920303Y-69085389D01*
X104919272Y-69074306D01*
X104916315Y-69067290D01*
X104910835Y-69062284D01*
X104907772Y-69060366D01*
X104897213Y-69054930D01*
X104890639Y-69054786D01*
X104886256Y-69060877D01*
X104882377Y-69073731D01*
X104877146Y-69094141D01*
X104851202Y-69058938D01*
X104840553Y-69044193D01*
X104832023Y-69031816D01*
X104826630Y-69023324D01*
X104825258Y-69020391D01*
X104826762Y-69014961D01*
X104830601Y-69004797D01*
X104833483Y-68997860D01*
X104838608Y-68983562D01*
X104838929Y-68975069D01*
X104834374Y-68971473D01*
X104831346Y-68971201D01*
X104829173Y-68969119D01*
X104830447Y-68962210D01*
X104835409Y-68949478D01*
X104838051Y-68943485D01*
X104842450Y-68931866D01*
X104848278Y-68913829D01*
X104855108Y-68890955D01*
X104862509Y-68864824D01*
X104870054Y-68837018D01*
X104877313Y-68809117D01*
X104883858Y-68782702D01*
X104889259Y-68759354D01*
X104893089Y-68740653D01*
X104893126Y-68740451D01*
X104896433Y-68728236D01*
X104900829Y-68718595D01*
X104901329Y-68717867D01*
X104905316Y-68713506D01*
X104908208Y-68715140D01*
G37*
G36*
X105414076Y-71472412D02*
G01*
X105424421Y-71480096D01*
X105436606Y-71490573D01*
X105449306Y-71502843D01*
X105451621Y-71505245D01*
X105469746Y-71524780D01*
X105482833Y-71540374D01*
X105491908Y-71553629D01*
X105497994Y-71566148D01*
X105502114Y-71579530D01*
X105503687Y-71586698D01*
X105507307Y-71600598D01*
X105511420Y-71610449D01*
X105515280Y-71615295D01*
X105518139Y-71614182D01*
X105519249Y-71606598D01*
X105520357Y-71601022D01*
X105523409Y-71602893D01*
X105528195Y-71611730D01*
X105534510Y-71627054D01*
X105542147Y-71648384D01*
X105550897Y-71675242D01*
X105555887Y-71691456D01*
X105563054Y-71714446D01*
X105569847Y-71734917D01*
X105575771Y-71751472D01*
X105580329Y-71762713D01*
X105582744Y-71767032D01*
X105587501Y-71769577D01*
X105590312Y-71765531D01*
X105591179Y-71754607D01*
X105590104Y-71736516D01*
X105587086Y-71710972D01*
X105583140Y-71684108D01*
X105579599Y-71660916D01*
X105576561Y-71640129D01*
X105574242Y-71623293D01*
X105572857Y-71611953D01*
X105572558Y-71608135D01*
X105576198Y-71600626D01*
X105585288Y-71594909D01*
X105597086Y-71592218D01*
X105606255Y-71592976D01*
X105613580Y-71593740D01*
X105617312Y-71589747D01*
X105619204Y-71582434D01*
X105621127Y-71569397D01*
X105621831Y-71558614D01*
X105622335Y-71554622D01*
X105624464Y-71553696D01*
X105629144Y-71556468D01*
X105637299Y-71563570D01*
X105649853Y-71575638D01*
X105657063Y-71582737D01*
X105677642Y-71603682D01*
X105697571Y-71625086D01*
X105715950Y-71645879D01*
X105731884Y-71664990D01*
X105744473Y-71681351D01*
X105752820Y-71693891D01*
X105755847Y-71700476D01*
X105756651Y-71711621D01*
X105752535Y-71721755D01*
X105742700Y-71731762D01*
X105726349Y-71742528D01*
X105710092Y-71751247D01*
X105691782Y-71760685D01*
X105673884Y-71770169D01*
X105659211Y-71778200D01*
X105654257Y-71781029D01*
X105641232Y-71787769D01*
X105625250Y-71794814D01*
X105608759Y-71801225D01*
X105594203Y-71806065D01*
X105584032Y-71808396D01*
X105582653Y-71808478D01*
X105576954Y-71805354D01*
X105571044Y-71798460D01*
X105567397Y-71791621D01*
X105561178Y-71778589D01*
X105553015Y-71760736D01*
X105543534Y-71739433D01*
X105533362Y-71716052D01*
X105533044Y-71715312D01*
X105517894Y-71680178D01*
X105505377Y-71651515D01*
X105494942Y-71628224D01*
X105486038Y-71609208D01*
X105478113Y-71593367D01*
X105470616Y-71579604D01*
X105462996Y-71566821D01*
X105454701Y-71553918D01*
X105445180Y-71539798D01*
X105444242Y-71538426D01*
X105426880Y-71512391D01*
X105414337Y-71492059D01*
X105406738Y-71477649D01*
X105404210Y-71469431D01*
X105406898Y-71468524D01*
X105414076Y-71472412D01*
G37*
G36*
X105034936Y-68795533D02*
G01*
X105050614Y-68797829D01*
X105072803Y-68801863D01*
X105078110Y-68802837D01*
X105100501Y-68806604D01*
X105127525Y-68810655D01*
X105155640Y-68814484D01*
X105179321Y-68817361D01*
X105201450Y-68820111D01*
X105221971Y-68823143D01*
X105238821Y-68826119D01*
X105249935Y-68828703D01*
X105251177Y-68829104D01*
X105262387Y-68831637D01*
X105278702Y-68832951D01*
X105301263Y-68833105D01*
X105320036Y-68832603D01*
X105355279Y-68832051D01*
X105383562Y-68833397D01*
X105405978Y-68836939D01*
X105423624Y-68842972D01*
X105437592Y-68851795D01*
X105448978Y-68863702D01*
X105452456Y-68868508D01*
X105458114Y-68875755D01*
X105461378Y-68877872D01*
X105461695Y-68877027D01*
X105464618Y-68873440D01*
X105466827Y-68873681D01*
X105470212Y-68878594D01*
X105472159Y-68888946D01*
X105472339Y-68892537D01*
X105472937Y-68903451D01*
X105473979Y-68910176D01*
X105474392Y-68910994D01*
X105478550Y-68912636D01*
X105489470Y-68916626D01*
X105506160Y-68922612D01*
X105527625Y-68930238D01*
X105552875Y-68939152D01*
X105580916Y-68949000D01*
X105586445Y-68950936D01*
X105621397Y-68963264D01*
X105649254Y-68973399D01*
X105670711Y-68981734D01*
X105686467Y-68988664D01*
X105697218Y-68994583D01*
X105703663Y-68999885D01*
X105706498Y-69004963D01*
X105706420Y-69010213D01*
X105704128Y-69016027D01*
X105703559Y-69017118D01*
X105698610Y-69025046D01*
X105690347Y-69036994D01*
X105680486Y-69050490D01*
X105679657Y-69051591D01*
X105669097Y-69065656D01*
X105659281Y-69078830D01*
X105652281Y-69088332D01*
X105652126Y-69088545D01*
X105643414Y-69100541D01*
X105636938Y-69085144D01*
X105630797Y-69073727D01*
X105625199Y-69070416D01*
X105619836Y-69075147D01*
X105616924Y-69081037D01*
X105614229Y-69086852D01*
X105612385Y-69087562D01*
X105610708Y-69082181D01*
X105608513Y-69069727D01*
X105608347Y-69068719D01*
X105605807Y-69056082D01*
X105603189Y-69047514D01*
X105601484Y-69045110D01*
X105598598Y-69048654D01*
X105594868Y-69057568D01*
X105593419Y-69062049D01*
X105588180Y-69076949D01*
X105582745Y-69084695D01*
X105575647Y-69086249D01*
X105565416Y-69082568D01*
X105563483Y-69081605D01*
X105543333Y-69074696D01*
X105525438Y-69075563D01*
X105518079Y-69078547D01*
X105510848Y-69081182D01*
X105507697Y-69078411D01*
X105503733Y-69075880D01*
X105493537Y-69075160D01*
X105476705Y-69076136D01*
X105462506Y-69076742D01*
X105442250Y-69076765D01*
X105418068Y-69076245D01*
X105392094Y-69075218D01*
X105375652Y-69074321D01*
X105303980Y-69069950D01*
X105281810Y-69054682D01*
X105271258Y-69047723D01*
X105262305Y-69043124D01*
X105252619Y-69040236D01*
X105239869Y-69038409D01*
X105221722Y-69036996D01*
X105217154Y-69036701D01*
X105197739Y-69035312D01*
X105184490Y-69033734D01*
X105175368Y-69031408D01*
X105168334Y-69027779D01*
X105161351Y-69022289D01*
X105159955Y-69021072D01*
X105150222Y-69013410D01*
X105142398Y-69008780D01*
X105140115Y-69008155D01*
X105134195Y-69006055D01*
X105123841Y-69000579D01*
X105112681Y-68993784D01*
X105095807Y-68984251D01*
X105081824Y-68980295D01*
X105067872Y-68981633D01*
X105051668Y-68987715D01*
X105034100Y-68994228D01*
X105021280Y-68995186D01*
X105011821Y-68990498D01*
X105007045Y-68984726D01*
X105003532Y-68974793D01*
X105001052Y-68958455D01*
X104999600Y-68937455D01*
X104999173Y-68913535D01*
X104999766Y-68888436D01*
X105001376Y-68863901D01*
X105004000Y-68841671D01*
X105007393Y-68824410D01*
X105010583Y-68811892D01*
X105013595Y-68803154D01*
X105017765Y-68797787D01*
X105024433Y-68795383D01*
X105034936Y-68795533D01*
G37*
G36*
X104451480Y-68889094D02*
G01*
X104458705Y-68893823D01*
X104464416Y-68901963D01*
X104470140Y-68913838D01*
X104476625Y-68925551D01*
X104482567Y-68929402D01*
X104488947Y-68925597D01*
X104493970Y-68918849D01*
X104501280Y-68907557D01*
X104498701Y-68920902D01*
X104497505Y-68929828D01*
X104500060Y-68933496D01*
X104508428Y-68934242D01*
X104510474Y-68934246D01*
X104520482Y-68935506D01*
X104528673Y-68940454D01*
X104537835Y-68950671D01*
X104547226Y-68961063D01*
X104555556Y-68965958D01*
X104564676Y-68967095D01*
X104583537Y-68970195D01*
X104597066Y-68979026D01*
X104605033Y-68992881D01*
X104607207Y-69011058D01*
X104603359Y-69032849D01*
X104593854Y-69056376D01*
X104587410Y-69070763D01*
X104582345Y-69084868D01*
X104580920Y-69090196D01*
X104579234Y-69099319D01*
X104580187Y-69101811D01*
X104584428Y-69099006D01*
X104584979Y-69098550D01*
X104592487Y-69089812D01*
X104595518Y-69084260D01*
X104597527Y-69081653D01*
X104598703Y-69086316D01*
X104599165Y-69097902D01*
X104598463Y-69111621D01*
X104595371Y-69124228D01*
X104588954Y-69138827D01*
X104584028Y-69148173D01*
X104576479Y-69161478D01*
X104570258Y-69171426D01*
X104566474Y-69176268D01*
X104566053Y-69176476D01*
X104561599Y-69173739D01*
X104558485Y-69170488D01*
X104556677Y-69167809D01*
X104555903Y-69164318D01*
X104556435Y-69158765D01*
X104558548Y-69149897D01*
X104562513Y-69136464D01*
X104568605Y-69117212D01*
X104573274Y-69102719D01*
X104573904Y-69098967D01*
X104571414Y-69100869D01*
X104565475Y-69108836D01*
X104555759Y-69123278D01*
X104551036Y-69130507D01*
X104542364Y-69143131D01*
X104536908Y-69149471D01*
X104535021Y-69149145D01*
X104535189Y-69147761D01*
X104538330Y-69129186D01*
X104540062Y-69113147D01*
X104540478Y-69100586D01*
X104539669Y-69092446D01*
X104537725Y-69089668D01*
X104534739Y-69093196D01*
X104530907Y-69103621D01*
X104528804Y-69109836D01*
X104527304Y-69110993D01*
X104526010Y-69106180D01*
X104524525Y-69094489D01*
X104523735Y-69087180D01*
X104521791Y-69072408D01*
X104519604Y-69061148D01*
X104517613Y-69055614D01*
X104517422Y-69055447D01*
X104514296Y-69057957D01*
X104508588Y-69066317D01*
X104501298Y-69078987D01*
X104497680Y-69085857D01*
X104481090Y-69118214D01*
X104467935Y-69088847D01*
X104460994Y-69071781D01*
X104455235Y-69054794D01*
X104451860Y-69041450D01*
X104451786Y-69041004D01*
X104448792Y-69022526D01*
X104436855Y-69048053D01*
X104430466Y-69060829D01*
X104425076Y-69070030D01*
X104421825Y-69073712D01*
X104421778Y-69073716D01*
X104417791Y-69070644D01*
X104412012Y-69062903D01*
X104410895Y-69061119D01*
X104405690Y-69052972D01*
X104402954Y-69051331D01*
X104400896Y-69055683D01*
X104400156Y-69058039D01*
X104396508Y-69065756D01*
X104389624Y-69077267D01*
X104380722Y-69090841D01*
X104371017Y-69104750D01*
X104361724Y-69117260D01*
X104354060Y-69126642D01*
X104349239Y-69131165D01*
X104348674Y-69131337D01*
X104345087Y-69128108D01*
X104344850Y-69126404D01*
X104342876Y-69120459D01*
X104337878Y-69110602D01*
X104331244Y-69099131D01*
X104324361Y-69088343D01*
X104318617Y-69080536D01*
X104315601Y-69077958D01*
X104313242Y-69081591D01*
X104310694Y-69090733D01*
X104309807Y-69095409D01*
X104306834Y-69108299D01*
X104301883Y-69125098D01*
X104296229Y-69141602D01*
X104285567Y-69170344D01*
X104279281Y-69142663D01*
X104275269Y-69127740D01*
X104270023Y-69115348D01*
X104262092Y-69102805D01*
X104250025Y-69087432D01*
X104248154Y-69085178D01*
X104225250Y-69056598D01*
X104208248Y-69032672D01*
X104196838Y-69012684D01*
X104190709Y-68995917D01*
X104189551Y-68981655D01*
X104193053Y-68969183D01*
X104195776Y-68964402D01*
X104200309Y-68953428D01*
X104202882Y-68939434D01*
X104203068Y-68935904D01*
X104204185Y-68925706D01*
X104206596Y-68916909D01*
X104209482Y-68911047D01*
X104212022Y-68909654D01*
X104213393Y-68914264D01*
X104213457Y-68916491D01*
X104213743Y-68920881D01*
X104215739Y-68922705D01*
X104221149Y-68921896D01*
X104231680Y-68918387D01*
X104239815Y-68915447D01*
X104260989Y-68909319D01*
X104289940Y-68903423D01*
X104326233Y-68897830D01*
X104369436Y-68892608D01*
X104404102Y-68889161D01*
X104425839Y-68887384D01*
X104441078Y-68887155D01*
X104451480Y-68889094D01*
G37*
G36*
X107089780Y-69316763D02*
G01*
X107099757Y-69320756D01*
X107101210Y-69322004D01*
X107107911Y-69325431D01*
X107111026Y-69323978D01*
X107116246Y-69323773D01*
X107126424Y-69326487D01*
X107139269Y-69331181D01*
X107152490Y-69336916D01*
X107163795Y-69342753D01*
X107170892Y-69347754D01*
X107171818Y-69348884D01*
X107173604Y-69354051D01*
X107174369Y-69362540D01*
X107174039Y-69374866D01*
X107172541Y-69391547D01*
X107169803Y-69413098D01*
X107165750Y-69440034D01*
X107160310Y-69472872D01*
X107153410Y-69512128D01*
X107144977Y-69558317D01*
X107134938Y-69611956D01*
X107133426Y-69619956D01*
X107120274Y-69689421D01*
X107108553Y-69751265D01*
X107098174Y-69805938D01*
X107089049Y-69853887D01*
X107081087Y-69895564D01*
X107074200Y-69931416D01*
X107068298Y-69961894D01*
X107063292Y-69987445D01*
X107059092Y-70008520D01*
X107055611Y-70025568D01*
X107052758Y-70039037D01*
X107050443Y-70049377D01*
X107048579Y-70057037D01*
X107047075Y-70062467D01*
X107045843Y-70066115D01*
X107044793Y-70068430D01*
X107044122Y-70069493D01*
X107040893Y-70073104D01*
X107036669Y-70074616D01*
X107029420Y-70074037D01*
X107017116Y-70071374D01*
X107009887Y-70069620D01*
X106993610Y-70065052D01*
X106984369Y-70060875D01*
X106981041Y-70056552D01*
X106980983Y-70055781D01*
X106982059Y-70049003D01*
X106984897Y-70036505D01*
X106988987Y-70020460D01*
X106991259Y-70012083D01*
X106995400Y-69994445D01*
X106999592Y-69972082D01*
X107003471Y-69947507D01*
X107006677Y-69923234D01*
X107008846Y-69901776D01*
X107009616Y-69885647D01*
X107009609Y-69884796D01*
X107007807Y-69886706D01*
X107002891Y-69894739D01*
X106995533Y-69907731D01*
X106986404Y-69924518D01*
X106982416Y-69932016D01*
X106969870Y-69955387D01*
X106954914Y-69982689D01*
X106939293Y-70010770D01*
X106924749Y-70036476D01*
X106922630Y-70040173D01*
X106911670Y-70059443D01*
X106902444Y-70076034D01*
X106895612Y-70088732D01*
X106891830Y-70096323D01*
X106891315Y-70097941D01*
X106897743Y-70100609D01*
X106910178Y-70104428D01*
X106926587Y-70108891D01*
X106944935Y-70113490D01*
X106963188Y-70117717D01*
X106979310Y-70121064D01*
X106991267Y-70123024D01*
X106992231Y-70123132D01*
X107005927Y-70125024D01*
X107016014Y-70127285D01*
X107019977Y-70129166D01*
X107019349Y-70132037D01*
X107014967Y-70137332D01*
X107006391Y-70145422D01*
X106993180Y-70156674D01*
X106974892Y-70171460D01*
X106951085Y-70190148D01*
X106921318Y-70213108D01*
X106902917Y-70227180D01*
X106876601Y-70247115D01*
X106855812Y-70262354D01*
X106839633Y-70273292D01*
X106827151Y-70280328D01*
X106817451Y-70283860D01*
X106809619Y-70284285D01*
X106802740Y-70282001D01*
X106795899Y-70277406D01*
X106792960Y-70275003D01*
X106780918Y-70264870D01*
X106771399Y-70275003D01*
X106764325Y-70281859D01*
X106759754Y-70285081D01*
X106759516Y-70285116D01*
X106754975Y-70283339D01*
X106745190Y-70278669D01*
X106732167Y-70272068D01*
X106730463Y-70271182D01*
X106715106Y-70262508D01*
X106700959Y-70253387D01*
X106691497Y-70246135D01*
X106679220Y-70235003D01*
X106666254Y-70250002D01*
X106653289Y-70265001D01*
X106645111Y-70253511D01*
X106640477Y-70245349D01*
X106633551Y-70231058D01*
X106624996Y-70212169D01*
X106615479Y-70190214D01*
X106605664Y-70166724D01*
X106596216Y-70143231D01*
X106588604Y-70123421D01*
X106581108Y-70103366D01*
X106596801Y-70088985D01*
X106612493Y-70074603D01*
X106611693Y-70038211D01*
X106610893Y-70001818D01*
X106626538Y-70000990D01*
X106654778Y-70001581D01*
X106678054Y-70007196D01*
X106698422Y-70018599D01*
X106715740Y-70034203D01*
X106722329Y-70041538D01*
X106725400Y-70047550D01*
X106725490Y-70055156D01*
X106723136Y-70067275D01*
X106722418Y-70070497D01*
X106718728Y-70084586D01*
X106713042Y-70103465D01*
X106706258Y-70124241D01*
X106701710Y-70137318D01*
X106693679Y-70161015D01*
X106686946Y-70183279D01*
X106681846Y-70202754D01*
X106678716Y-70218078D01*
X106677891Y-70227895D01*
X106678674Y-70230610D01*
X106682781Y-70229448D01*
X106691149Y-70224111D01*
X106700306Y-70217082D01*
X106706612Y-70211530D01*
X106712445Y-70205253D01*
X106718396Y-70197251D01*
X106725055Y-70186524D01*
X106733014Y-70172073D01*
X106742861Y-70152900D01*
X106755189Y-70128003D01*
X106765793Y-70106260D01*
X106778690Y-70079641D01*
X106790699Y-70054703D01*
X106801252Y-70032636D01*
X106809783Y-70014629D01*
X106815726Y-70001871D01*
X106818219Y-69996280D01*
X106823048Y-69986448D01*
X106828271Y-69982274D01*
X106836063Y-69983289D01*
X106848597Y-69989021D01*
X106849538Y-69989500D01*
X106859793Y-69994497D01*
X106866659Y-69997408D01*
X106867852Y-69997712D01*
X106870371Y-69994036D01*
X106869844Y-69983435D01*
X106866414Y-69966556D01*
X106860223Y-69944042D01*
X106851411Y-69916540D01*
X106847485Y-69905142D01*
X106837021Y-69874442D01*
X106829785Y-69851281D01*
X106825775Y-69835650D01*
X106824990Y-69827537D01*
X106827426Y-69826933D01*
X106830895Y-69830770D01*
X106835359Y-69839785D01*
X106838926Y-69852177D01*
X106839337Y-69854379D01*
X106842673Y-69865971D01*
X106848042Y-69870053D01*
X106856371Y-69867255D01*
X106857408Y-69866617D01*
X106861914Y-69859215D01*
X106863065Y-69845823D01*
X106860735Y-69828005D01*
X106860571Y-69827238D01*
X106859540Y-69821093D01*
X106860790Y-69821386D01*
X106864839Y-69828546D01*
X106866854Y-69832444D01*
X106873700Y-69844496D01*
X106878447Y-69849217D01*
X106881769Y-69847008D01*
X106883414Y-69842305D01*
X106888818Y-69835823D01*
X106897809Y-69832234D01*
X106911100Y-69825759D01*
X106920631Y-69813462D01*
X106926020Y-69797006D01*
X106926880Y-69778054D01*
X106922828Y-69758272D01*
X106917673Y-69746308D01*
X106907792Y-69727726D01*
X106929991Y-69705803D01*
X106943772Y-69690769D01*
X106950915Y-69679309D01*
X106952199Y-69673475D01*
X106951602Y-69665687D01*
X106949959Y-69651618D01*
X106947504Y-69633099D01*
X106944470Y-69611961D01*
X106943640Y-69606424D01*
X106940203Y-69582515D01*
X106938238Y-69565461D01*
X106937676Y-69554051D01*
X106938446Y-69547074D01*
X106940027Y-69543807D01*
X106946368Y-69538298D01*
X106949485Y-69540290D01*
X106949088Y-69548100D01*
X106948876Y-69556234D01*
X106952677Y-69557828D01*
X106960626Y-69552805D01*
X106972857Y-69541083D01*
X106987096Y-69525360D01*
X107003991Y-69505518D01*
X107015918Y-69490129D01*
X107023635Y-69477755D01*
X107027898Y-69466960D01*
X107029463Y-69456307D01*
X107029174Y-69445449D01*
X107028695Y-69429989D01*
X107029361Y-69415329D01*
X107029923Y-69410856D01*
X107032257Y-69396793D01*
X107044107Y-69413935D01*
X107052332Y-69424539D01*
X107058888Y-69430627D01*
X107062611Y-69431243D01*
X107063053Y-69429477D01*
X107063828Y-69425032D01*
X107065916Y-69414347D01*
X107068962Y-69399223D01*
X107071265Y-69387964D01*
X107074735Y-69370979D01*
X107077480Y-69357316D01*
X107079143Y-69348758D01*
X107079477Y-69346778D01*
X107075962Y-69345117D01*
X107067474Y-69342868D01*
X107067159Y-69342798D01*
X107057657Y-69339371D01*
X107055300Y-69333665D01*
X107059091Y-69324051D01*
X107066089Y-69318574D01*
X107077438Y-69316090D01*
X107089780Y-69316763D01*
G37*
G36*
X107211811Y-68662725D02*
G01*
X107218545Y-68671387D01*
X107221228Y-68681996D01*
X107220766Y-68685840D01*
X107215812Y-68695058D01*
X107205193Y-68708007D01*
X107189982Y-68723723D01*
X107171252Y-68741242D01*
X107150075Y-68759600D01*
X107127524Y-68777832D01*
X107104671Y-68794974D01*
X107082634Y-68810032D01*
X107067992Y-68819681D01*
X107056535Y-68827650D01*
X107049635Y-68832961D01*
X107048273Y-68834608D01*
X107052676Y-68833756D01*
X107063221Y-68829666D01*
X107078765Y-68822889D01*
X107098163Y-68813975D01*
X107120273Y-68803476D01*
X107143950Y-68791944D01*
X107168051Y-68779928D01*
X107191432Y-68767980D01*
X107212951Y-68756652D01*
X107231462Y-68746495D01*
X107233454Y-68745366D01*
X107254932Y-68733222D01*
X107270354Y-68724809D01*
X107280749Y-68719707D01*
X107287145Y-68717495D01*
X107290573Y-68717754D01*
X107292060Y-68720063D01*
X107292321Y-68721327D01*
X107293306Y-68733890D01*
X107291265Y-68744779D01*
X107285315Y-68755349D01*
X107274574Y-68766959D01*
X107258158Y-68780966D01*
X107248677Y-68788419D01*
X107210070Y-68818194D01*
X107170743Y-68848321D01*
X107131256Y-68878384D01*
X107092170Y-68907969D01*
X107054046Y-68936660D01*
X107017443Y-68964041D01*
X106982923Y-68989699D01*
X106951045Y-69013217D01*
X106922370Y-69034180D01*
X106897458Y-69052174D01*
X106876869Y-69066782D01*
X106861165Y-69077591D01*
X106850906Y-69084184D01*
X106846786Y-69086170D01*
X106845546Y-69082795D01*
X106845647Y-69078984D01*
X106845827Y-69067758D01*
X106842772Y-69062567D01*
X106837429Y-69061534D01*
X106831265Y-69063558D01*
X106823868Y-69070154D01*
X106814600Y-69082103D01*
X106802823Y-69100188D01*
X106793930Y-69114912D01*
X106784201Y-69128973D01*
X106769145Y-69147580D01*
X106749555Y-69169810D01*
X106726228Y-69194736D01*
X106718044Y-69203192D01*
X106693106Y-69229097D01*
X106672941Y-69251049D01*
X106656325Y-69270704D01*
X106642032Y-69289715D01*
X106628836Y-69309739D01*
X106615512Y-69332429D01*
X106600835Y-69359441D01*
X106597106Y-69366501D01*
X106585911Y-69388013D01*
X106578424Y-69403719D01*
X106574486Y-69415060D01*
X106573942Y-69423477D01*
X106576634Y-69430410D01*
X106582406Y-69437299D01*
X106588740Y-69443379D01*
X106599696Y-69453628D01*
X106590144Y-69456315D01*
X106580727Y-69457889D01*
X106566806Y-69459045D01*
X106556983Y-69459411D01*
X106544295Y-69459968D01*
X106535725Y-69460988D01*
X106533373Y-69461955D01*
X106535712Y-69467557D01*
X106541777Y-69477479D01*
X106550143Y-69489649D01*
X106559383Y-69501992D01*
X106568072Y-69512434D01*
X106568138Y-69512507D01*
X106582080Y-69527939D01*
X106573381Y-69541678D01*
X106567551Y-69549909D01*
X106564140Y-69551561D01*
X106562256Y-69548501D01*
X106557987Y-69543663D01*
X106548760Y-69536477D01*
X106536508Y-69528143D01*
X106523166Y-69519863D01*
X106510666Y-69512836D01*
X106500942Y-69508263D01*
X106495942Y-69507334D01*
X106493013Y-69512292D01*
X106490259Y-69521411D01*
X106486588Y-69532471D01*
X106482093Y-69535387D01*
X106476569Y-69530204D01*
X106473589Y-69525042D01*
X106466835Y-69511980D01*
X106437946Y-69543643D01*
X106421823Y-69559981D01*
X106403486Y-69576521D01*
X106386017Y-69590541D01*
X106379855Y-69594907D01*
X106363684Y-69605486D01*
X106345560Y-69616896D01*
X106326912Y-69628294D01*
X106309170Y-69638831D01*
X106293764Y-69647661D01*
X106282123Y-69653939D01*
X106275678Y-69656817D01*
X106275124Y-69656910D01*
X106272583Y-69653253D01*
X106270090Y-69643997D01*
X106269176Y-69638478D01*
X106268486Y-69624586D01*
X106269835Y-69612305D01*
X106270671Y-69609468D01*
X106274167Y-69598366D01*
X106273391Y-69594088D01*
X106268054Y-69596500D01*
X106259294Y-69604107D01*
X106247262Y-69614782D01*
X106235027Y-69624580D01*
X106230888Y-69627564D01*
X106217880Y-69636460D01*
X106225462Y-69616917D01*
X106231769Y-69600212D01*
X106238256Y-69582377D01*
X106239950Y-69577571D01*
X106246115Y-69563381D01*
X106253614Y-69550678D01*
X106256656Y-69546775D01*
X106266455Y-69535782D01*
X106257832Y-69555808D01*
X106253243Y-69567956D01*
X106252721Y-69575819D01*
X106257277Y-69580320D01*
X106267920Y-69582384D01*
X106285663Y-69582932D01*
X106287537Y-69582939D01*
X106314754Y-69583002D01*
X106321412Y-69556495D01*
X106325595Y-69539378D01*
X106327446Y-69528837D01*
X106326645Y-69523485D01*
X106322869Y-69521936D01*
X106315799Y-69522803D01*
X106313699Y-69523193D01*
X106304290Y-69524291D01*
X106299487Y-69523547D01*
X106299328Y-69523174D01*
X106302043Y-69516759D01*
X106309038Y-69506765D01*
X106318584Y-69495212D01*
X106328956Y-69484122D01*
X106338427Y-69475516D01*
X106342493Y-69472652D01*
X106351452Y-69466724D01*
X106354500Y-69461660D01*
X106353053Y-69454617D01*
X106352381Y-69452804D01*
X106344283Y-69437767D01*
X106334257Y-69428881D01*
X106326802Y-69426972D01*
X106318867Y-69429082D01*
X106305838Y-69434798D01*
X106289472Y-69443198D01*
X106271526Y-69453362D01*
X106253757Y-69464367D01*
X106247250Y-69468691D01*
X106233168Y-69480681D01*
X106226056Y-69493656D01*
X106224754Y-69509744D01*
X106224763Y-69509875D01*
X106222990Y-69519562D01*
X106215196Y-69528437D01*
X106212121Y-69530826D01*
X106199453Y-69540006D01*
X106192148Y-69544008D01*
X106188948Y-69542514D01*
X106188597Y-69535204D01*
X106189509Y-69525091D01*
X106190261Y-69511778D01*
X106188734Y-69501444D01*
X106184026Y-69490521D01*
X106178196Y-69480350D01*
X106170860Y-69467349D01*
X106165394Y-69456274D01*
X106163227Y-69450387D01*
X106161106Y-69448415D01*
X106156151Y-69452034D01*
X106147761Y-69461781D01*
X106141509Y-69469891D01*
X106132046Y-69482266D01*
X106124627Y-69491632D01*
X106120485Y-69496447D01*
X106120054Y-69496775D01*
X106120371Y-69493341D01*
X106124224Y-69483690D01*
X106131190Y-69468800D01*
X106138775Y-69453661D01*
X106147132Y-69436219D01*
X106150910Y-69425445D01*
X106150108Y-69421381D01*
X106144722Y-69424068D01*
X106139994Y-69428257D01*
X106131909Y-69435339D01*
X106126261Y-69439104D01*
X106125527Y-69439290D01*
X106124410Y-69435515D01*
X106124005Y-69425459D01*
X106124361Y-69411027D01*
X106124666Y-69405415D01*
X106126757Y-69371540D01*
X106116757Y-69400283D01*
X106111510Y-69414362D01*
X106108202Y-69420751D01*
X106106684Y-69419700D01*
X106106551Y-69417733D01*
X106104824Y-69408697D01*
X106100424Y-69407283D01*
X106093817Y-69413523D01*
X106091612Y-69416681D01*
X106084903Y-69426921D01*
X106076501Y-69416239D01*
X106068098Y-69405558D01*
X106062328Y-69415238D01*
X106056557Y-69424919D01*
X106058943Y-69414654D01*
X106063880Y-69392490D01*
X106066965Y-69375628D01*
X106068517Y-69361452D01*
X106068859Y-69347345D01*
X106068557Y-69336296D01*
X106067337Y-69305843D01*
X106056083Y-69340745D01*
X106050303Y-69357714D01*
X106045049Y-69371459D01*
X106040781Y-69381039D01*
X106037962Y-69385512D01*
X106037050Y-69383936D01*
X106038003Y-69377699D01*
X106039497Y-69368915D01*
X106041587Y-69354648D01*
X106043888Y-69337572D01*
X106044532Y-69332533D01*
X106046851Y-69314422D01*
X106049057Y-69297649D01*
X106050749Y-69285254D01*
X106051035Y-69283260D01*
X106051911Y-69274609D01*
X106050746Y-69273252D01*
X106048935Y-69275725D01*
X106046884Y-69281881D01*
X106043821Y-69294671D01*
X106040059Y-69312624D01*
X106035909Y-69334269D01*
X106032509Y-69353316D01*
X106028444Y-69376389D01*
X106024751Y-69396512D01*
X106021688Y-69412345D01*
X106019512Y-69422550D01*
X106018557Y-69425794D01*
X106016480Y-69426413D01*
X106015425Y-69422634D01*
X106015429Y-69413731D01*
X106016530Y-69398977D01*
X106018763Y-69377645D01*
X106022167Y-69349009D01*
X106022680Y-69344851D01*
X106025741Y-69318599D01*
X106028369Y-69293131D01*
X106030391Y-69270374D01*
X106031633Y-69252252D01*
X106031947Y-69242200D01*
X106030748Y-69222451D01*
X106027669Y-69205646D01*
X106023172Y-69193367D01*
X106017716Y-69187195D01*
X106015808Y-69186768D01*
X106012052Y-69190478D01*
X106006736Y-69200578D01*
X106000415Y-69215523D01*
X105993648Y-69233768D01*
X105986989Y-69253770D01*
X105980995Y-69273982D01*
X105976223Y-69292862D01*
X105974391Y-69301737D01*
X105971486Y-69315856D01*
X105969401Y-69322191D01*
X105967988Y-69321114D01*
X105967580Y-69318717D01*
X105967291Y-69308663D01*
X105967922Y-69292923D01*
X105969273Y-69273621D01*
X105971141Y-69252883D01*
X105973324Y-69232834D01*
X105975620Y-69215599D01*
X105977828Y-69203303D01*
X105978904Y-69199486D01*
X105985661Y-69190577D01*
X105998295Y-69181458D01*
X106002954Y-69178931D01*
X106009787Y-69175867D01*
X106023403Y-69170107D01*
X106042954Y-69161992D01*
X106067594Y-69151864D01*
X106096476Y-69140063D01*
X106128752Y-69126933D01*
X106163576Y-69112814D01*
X106200102Y-69098048D01*
X106237481Y-69082976D01*
X106274867Y-69067940D01*
X106311414Y-69053283D01*
X106346274Y-69039345D01*
X106378600Y-69026467D01*
X106407545Y-69014993D01*
X106432263Y-69005262D01*
X106451907Y-68997618D01*
X106462544Y-68993555D01*
X106478008Y-68988523D01*
X106486543Y-68987850D01*
X106488297Y-68991729D01*
X106483415Y-69000348D01*
X106475342Y-69010203D01*
X106468288Y-69019212D01*
X106464811Y-69025649D01*
X106464883Y-69027261D01*
X106470425Y-69027621D01*
X106479008Y-69022904D01*
X106488778Y-69014628D01*
X106497881Y-69004310D01*
X106503345Y-68995784D01*
X106516681Y-68975440D01*
X106532453Y-68961992D01*
X106550119Y-68954690D01*
X106562031Y-68951329D01*
X106571082Y-68948510D01*
X106572567Y-68947978D01*
X106576130Y-68947734D01*
X106575924Y-68952334D01*
X106574045Y-68958232D01*
X106569172Y-68968616D01*
X106563850Y-68975571D01*
X106558292Y-68981893D01*
X106559590Y-68984751D01*
X106566769Y-68983164D01*
X106569907Y-68981683D01*
X106579633Y-68973567D01*
X106588767Y-68960819D01*
X106590803Y-68956942D01*
X106597516Y-68945477D01*
X106603469Y-68939159D01*
X106607565Y-68938405D01*
X106608708Y-68943632D01*
X106607282Y-68950671D01*
X106605177Y-68959177D01*
X106604898Y-68962975D01*
X106604951Y-68962989D01*
X106609040Y-68961540D01*
X106618759Y-68957707D01*
X106632156Y-68952264D01*
X106634769Y-68951188D01*
X106663501Y-68935914D01*
X106683168Y-68920161D01*
X106698937Y-68905729D01*
X106715807Y-68892284D01*
X106734901Y-68879144D01*
X106757343Y-68865624D01*
X106784254Y-68851041D01*
X106802134Y-68842058D01*
X106978328Y-68842058D01*
X106979293Y-68849705D01*
X106983481Y-68850318D01*
X106990093Y-68843704D01*
X106993657Y-68837754D01*
X107038416Y-68837754D01*
X107040469Y-68839807D01*
X107042523Y-68837754D01*
X107040469Y-68835701D01*
X107038416Y-68837754D01*
X106993657Y-68837754D01*
X106997415Y-68831480D01*
X107003114Y-68819890D01*
X107004890Y-68813807D01*
X107002615Y-68811457D01*
X106996161Y-68811065D01*
X106995953Y-68811065D01*
X106989056Y-68812789D01*
X106984314Y-68819301D01*
X106981392Y-68827574D01*
X106978328Y-68842058D01*
X106802134Y-68842058D01*
X106816759Y-68834710D01*
X106848690Y-68819387D01*
X106853426Y-68817158D01*
X106967023Y-68817158D01*
X106978084Y-68809911D01*
X106985645Y-68805849D01*
X106989366Y-68805589D01*
X106989433Y-68805838D01*
X106990620Y-68806587D01*
X106992496Y-68802581D01*
X107026181Y-68802581D01*
X107028805Y-68806878D01*
X107029489Y-68806959D01*
X107034408Y-68804244D01*
X107041585Y-68797690D01*
X107041788Y-68797476D01*
X107047826Y-68787957D01*
X107051602Y-68773732D01*
X107052530Y-68766211D01*
X107076784Y-68766211D01*
X107081757Y-68764028D01*
X107090936Y-68757750D01*
X107093548Y-68755745D01*
X107098699Y-68750243D01*
X107099073Y-68747171D01*
X107094974Y-68748274D01*
X107087312Y-68753796D01*
X107082948Y-68757658D01*
X107076890Y-68764140D01*
X107076784Y-68766211D01*
X107052530Y-68766211D01*
X107053105Y-68761548D01*
X107054059Y-68747985D01*
X107053518Y-68741215D01*
X107050999Y-68741388D01*
X107046021Y-68748652D01*
X107038099Y-68763158D01*
X107036199Y-68766788D01*
X107030207Y-68780567D01*
X107026758Y-68793154D01*
X107026181Y-68802581D01*
X106992496Y-68802581D01*
X106992820Y-68801889D01*
X106995168Y-68794293D01*
X106996799Y-68786346D01*
X106997067Y-68783349D01*
X106996246Y-68775759D01*
X106992959Y-68775447D01*
X106987024Y-68782540D01*
X106979110Y-68795638D01*
X106967023Y-68817158D01*
X106853426Y-68817158D01*
X106884091Y-68802726D01*
X106920950Y-68785519D01*
X106958499Y-68768112D01*
X106995970Y-68750854D01*
X107032596Y-68734090D01*
X107037912Y-68731673D01*
X107122856Y-68731673D01*
X107123337Y-68732920D01*
X107128990Y-68730569D01*
X107134028Y-68727228D01*
X107138707Y-68721810D01*
X107142298Y-68714739D01*
X107143948Y-68708549D01*
X107142804Y-68705772D01*
X107141044Y-68706375D01*
X107136166Y-68711000D01*
X107130402Y-68718417D01*
X107125412Y-68726138D01*
X107122856Y-68731673D01*
X107037912Y-68731673D01*
X107067610Y-68718169D01*
X107100244Y-68703436D01*
X107129732Y-68690239D01*
X107155306Y-68678924D01*
X107176199Y-68669839D01*
X107191643Y-68663330D01*
X107200871Y-68659745D01*
X107203098Y-68659141D01*
X107211811Y-68662725D01*
G37*
G36*
X104389864Y-70460336D02*
G01*
X104408160Y-70467774D01*
X104421824Y-70475529D01*
X104442802Y-70485950D01*
X104469726Y-70495108D01*
X104490615Y-70500514D01*
X104526320Y-70509287D01*
X104555512Y-70517535D01*
X104579783Y-70526037D01*
X104600727Y-70535573D01*
X104619938Y-70546924D01*
X104639011Y-70560868D01*
X104659537Y-70578185D01*
X104671655Y-70589093D01*
X104691337Y-70606651D01*
X104706962Y-70619106D01*
X104720248Y-70627195D01*
X104732913Y-70631651D01*
X104746676Y-70633212D01*
X104763256Y-70632612D01*
X104771602Y-70631880D01*
X104798547Y-70629606D01*
X104819789Y-70628687D01*
X104837735Y-70629204D01*
X104854795Y-70631232D01*
X104873377Y-70634851D01*
X104875058Y-70635224D01*
X104890317Y-70638500D01*
X104901350Y-70640020D01*
X104911093Y-70639633D01*
X104922481Y-70637188D01*
X104938450Y-70632534D01*
X104940755Y-70631838D01*
X104960656Y-70626371D01*
X104976122Y-70623693D01*
X104990278Y-70623390D01*
X104999025Y-70624130D01*
X105022922Y-70626810D01*
X105020295Y-70643824D01*
X105017850Y-70657114D01*
X105014474Y-70668859D01*
X105009456Y-70679906D01*
X105002088Y-70691102D01*
X104991661Y-70703293D01*
X104977466Y-70717326D01*
X104958793Y-70734048D01*
X104934935Y-70754304D01*
X104911485Y-70773750D01*
X104888932Y-70793044D01*
X104863670Y-70815785D01*
X104838532Y-70839360D01*
X104816349Y-70861156D01*
X104812862Y-70864716D01*
X104796696Y-70880995D01*
X104782185Y-70894960D01*
X104770409Y-70905620D01*
X104762449Y-70911987D01*
X104759742Y-70913360D01*
X104757871Y-70915567D01*
X104761909Y-70921649D01*
X104771019Y-70930803D01*
X104784362Y-70942222D01*
X104801101Y-70955102D01*
X104809439Y-70961105D01*
X104823434Y-70971404D01*
X104834734Y-70980518D01*
X104841696Y-70987085D01*
X104843040Y-70988992D01*
X104846764Y-70993436D01*
X104855711Y-71002170D01*
X104868809Y-71014203D01*
X104884987Y-71028550D01*
X104899435Y-71041032D01*
X104920739Y-71059523D01*
X104936583Y-71074058D01*
X104947994Y-71085718D01*
X104956001Y-71095580D01*
X104961631Y-71104726D01*
X104963312Y-71108133D01*
X104969367Y-71122831D01*
X104972530Y-71134155D01*
X104972577Y-71140793D01*
X104969285Y-71141431D01*
X104968969Y-71141246D01*
X104965791Y-71135586D01*
X104964863Y-71128686D01*
X104964429Y-71121226D01*
X104961654Y-71119206D01*
X104954327Y-71121782D01*
X104950876Y-71123341D01*
X104944097Y-71127140D01*
X104943052Y-71131669D01*
X104946657Y-71139717D01*
X104952664Y-71147622D01*
X104963576Y-71158647D01*
X104977995Y-71171677D01*
X104994522Y-71185594D01*
X105011759Y-71199281D01*
X105028307Y-71211623D01*
X105042767Y-71221501D01*
X105053742Y-71227799D01*
X105059094Y-71229509D01*
X105068687Y-71227660D01*
X105081751Y-71222950D01*
X105089767Y-71219244D01*
X105114367Y-71210664D01*
X105139062Y-71209970D01*
X105164116Y-71217230D01*
X105189792Y-71232509D01*
X105210343Y-71249965D01*
X105232043Y-71270675D01*
X105279426Y-71266266D01*
X105299498Y-71264712D01*
X105317622Y-71263878D01*
X105331618Y-71263829D01*
X105338627Y-71264452D01*
X105354585Y-71270747D01*
X105366005Y-71280811D01*
X105371213Y-71293055D01*
X105371362Y-71295521D01*
X105371083Y-71301468D01*
X105369368Y-71305232D01*
X105364903Y-71306959D01*
X105356370Y-71306793D01*
X105342454Y-71304880D01*
X105321840Y-71301366D01*
X105320551Y-71301141D01*
X105287813Y-71294043D01*
X105256490Y-71284113D01*
X105223624Y-71270326D01*
X105203635Y-71260635D01*
X105183902Y-71250860D01*
X105170060Y-71244513D01*
X105160771Y-71241123D01*
X105154698Y-71240221D01*
X105150504Y-71241336D01*
X105149840Y-71241718D01*
X105147248Y-71245118D01*
X105147239Y-71251040D01*
X105150126Y-71260074D01*
X105156221Y-71272812D01*
X105165837Y-71289843D01*
X105179286Y-71311759D01*
X105196880Y-71339149D01*
X105218933Y-71372604D01*
X105219793Y-71373898D01*
X105242860Y-71408860D01*
X105261811Y-71438343D01*
X105277298Y-71463559D01*
X105289971Y-71485715D01*
X105300483Y-71506021D01*
X105309482Y-71525687D01*
X105317622Y-71545922D01*
X105325552Y-71567936D01*
X105327824Y-71574582D01*
X105334316Y-71594320D01*
X105338307Y-71608537D01*
X105340158Y-71619405D01*
X105340236Y-71629100D01*
X105338902Y-71639795D01*
X105338819Y-71640305D01*
X105336948Y-71658692D01*
X105337493Y-71674063D01*
X105340291Y-71684489D01*
X105342814Y-71687470D01*
X105346466Y-71685866D01*
X105348760Y-71681251D01*
X105352221Y-71674590D01*
X105354680Y-71672979D01*
X105357197Y-71676814D01*
X105360236Y-71687320D01*
X105363485Y-71702998D01*
X105366629Y-71722351D01*
X105369237Y-71742782D01*
X105373011Y-71774564D01*
X105376940Y-71803716D01*
X105380838Y-71829079D01*
X105384514Y-71849497D01*
X105387781Y-71863813D01*
X105389960Y-71870069D01*
X105395292Y-71880334D01*
X105398322Y-71868331D01*
X105399421Y-71858804D01*
X105399889Y-71842656D01*
X105399791Y-71821446D01*
X105399194Y-71796735D01*
X105398162Y-71770083D01*
X105396763Y-71743051D01*
X105395062Y-71717198D01*
X105393126Y-71694086D01*
X105391019Y-71675274D01*
X105389821Y-71667375D01*
X105383958Y-71639217D01*
X105375575Y-71608165D01*
X105364306Y-71573059D01*
X105349787Y-71532737D01*
X105336737Y-71498865D01*
X105329179Y-71479350D01*
X105323168Y-71463199D01*
X105319133Y-71451617D01*
X105317503Y-71445810D01*
X105317761Y-71445487D01*
X105331587Y-71460709D01*
X105347625Y-71479286D01*
X105364405Y-71499419D01*
X105380459Y-71519310D01*
X105394317Y-71537161D01*
X105404511Y-71551174D01*
X105406338Y-71553904D01*
X105413759Y-71565830D01*
X105424198Y-71583353D01*
X105436726Y-71604874D01*
X105450409Y-71628789D01*
X105464318Y-71653496D01*
X105466023Y-71656555D01*
X105479993Y-71681430D01*
X105493943Y-71705883D01*
X105506918Y-71728264D01*
X105517959Y-71746924D01*
X105526110Y-71760212D01*
X105526779Y-71761259D01*
X105537594Y-71779587D01*
X105543918Y-71794553D01*
X105546839Y-71808821D01*
X105547024Y-71810745D01*
X105547639Y-71823536D01*
X105545792Y-71831740D01*
X105540131Y-71838908D01*
X105534265Y-71844254D01*
X105525037Y-71850376D01*
X105509984Y-71857557D01*
X105488864Y-71865871D01*
X105461431Y-71875394D01*
X105427442Y-71886200D01*
X105386653Y-71898365D01*
X105338819Y-71911963D01*
X105283698Y-71927069D01*
X105221044Y-71943759D01*
X105150614Y-71962106D01*
X105148662Y-71962610D01*
X105111373Y-71972288D01*
X105072159Y-71982569D01*
X105032879Y-71992961D01*
X104995394Y-72002965D01*
X104961566Y-72012089D01*
X104933256Y-72019837D01*
X104925856Y-72021891D01*
X104898186Y-72029516D01*
X104871032Y-72036832D01*
X104846152Y-72043378D01*
X104825301Y-72048693D01*
X104810236Y-72052316D01*
X104808039Y-72052804D01*
X104791120Y-72057159D01*
X104779728Y-72061524D01*
X104775190Y-72065359D01*
X104772125Y-72068854D01*
X104767773Y-72067078D01*
X104760773Y-72065480D01*
X104747278Y-72064845D01*
X104728955Y-72065221D01*
X104720529Y-72065673D01*
X104703914Y-72066476D01*
X104688193Y-72066590D01*
X104672579Y-72065816D01*
X104656289Y-72063955D01*
X104638538Y-72060807D01*
X104618539Y-72056175D01*
X104595508Y-72049860D01*
X104568660Y-72041663D01*
X104537209Y-72031384D01*
X104500371Y-72018827D01*
X104457361Y-72003790D01*
X104410547Y-71987199D01*
X104369844Y-71972619D01*
X104325434Y-71956539D01*
X104278670Y-71939462D01*
X104230905Y-71921889D01*
X104183491Y-71904322D01*
X104137780Y-71887264D01*
X104095126Y-71871216D01*
X104056881Y-71856680D01*
X104024397Y-71844158D01*
X104011707Y-71839192D01*
X103986424Y-71828532D01*
X103958292Y-71815489D01*
X103928766Y-71800850D01*
X103899302Y-71785403D01*
X103871356Y-71769934D01*
X103846384Y-71755230D01*
X103825841Y-71742078D01*
X103811183Y-71731265D01*
X103809666Y-71729968D01*
X103792726Y-71715101D01*
X103807626Y-71698608D01*
X103815973Y-71687497D01*
X103822768Y-71675158D01*
X103827002Y-71663909D01*
X103827662Y-71656070D01*
X103826839Y-71654536D01*
X103822347Y-71654244D01*
X103812019Y-71654884D01*
X103799178Y-71656198D01*
X103781321Y-71659341D01*
X103770539Y-71663883D01*
X103767370Y-71666920D01*
X103763878Y-71670870D01*
X103762254Y-71669211D01*
X103761803Y-71660784D01*
X103761792Y-71657607D01*
X103763666Y-71638033D01*
X103770070Y-71623537D01*
X103782180Y-71611702D01*
X103785115Y-71609628D01*
X103793058Y-71603862D01*
X103795437Y-71600663D01*
X103791583Y-71599767D01*
X103780830Y-71600910D01*
X103768103Y-71602903D01*
X103754112Y-71604035D01*
X103741509Y-71603109D01*
X103731612Y-71600653D01*
X103725735Y-71597198D01*
X103725193Y-71593272D01*
X103731303Y-71589404D01*
X103733050Y-71588805D01*
X103739732Y-71585512D01*
X103739945Y-71581113D01*
X103733374Y-71574486D01*
X103727917Y-71570327D01*
X103717088Y-71561975D01*
X103704673Y-71551756D01*
X103692289Y-71541092D01*
X103681558Y-71531406D01*
X103674096Y-71524121D01*
X103671511Y-71520747D01*
X103674567Y-71517349D01*
X103682628Y-71510712D01*
X103693950Y-71502272D01*
X103693954Y-71502270D01*
X103707858Y-71491755D01*
X103714981Y-71484848D01*
X103715672Y-71481084D01*
X103710631Y-71479995D01*
X103704416Y-71477896D01*
X103693596Y-71472360D01*
X103680382Y-71464532D01*
X103678809Y-71463537D01*
X103660929Y-71453562D01*
X103640601Y-71444292D01*
X103625266Y-71438727D01*
X103609083Y-71433191D01*
X103600248Y-71427641D01*
X103598047Y-71420501D01*
X103601767Y-71410193D01*
X103607708Y-71399927D01*
X103613733Y-71389634D01*
X103617423Y-71382348D01*
X103617952Y-71380689D01*
X103614584Y-71377617D01*
X103606090Y-71373579D01*
X103603709Y-71372679D01*
X103595659Y-71369237D01*
X103591208Y-71364853D01*
X103589726Y-71357527D01*
X103590585Y-71345259D01*
X103591908Y-71335102D01*
X103593785Y-71323806D01*
X103596231Y-71318957D01*
X103600677Y-71318834D01*
X103604373Y-71320111D01*
X103612823Y-71321736D01*
X103616143Y-71318787D01*
X103618333Y-71312590D01*
X103622352Y-71301015D01*
X103627371Y-71286450D01*
X103627883Y-71284958D01*
X103633121Y-71269868D01*
X103637626Y-71257193D01*
X103640478Y-71249519D01*
X103640596Y-71249227D01*
X103641697Y-71245193D01*
X103639203Y-71244743D01*
X103631510Y-71247939D01*
X103627683Y-71249746D01*
X103612194Y-71256705D01*
X103601441Y-71259806D01*
X103592932Y-71259093D01*
X103584175Y-71254608D01*
X103578408Y-71250590D01*
X103565055Y-71238064D01*
X103554639Y-71222966D01*
X103548887Y-71208049D01*
X103548277Y-71202486D01*
X103550720Y-71191508D01*
X103556840Y-71177773D01*
X103564827Y-71164631D01*
X103572869Y-71155434D01*
X103574264Y-71154402D01*
X103582197Y-71150582D01*
X103596329Y-71145089D01*
X103614956Y-71138493D01*
X103636375Y-71131361D01*
X103658885Y-71124261D01*
X103680782Y-71117761D01*
X103699215Y-71112724D01*
X103716938Y-71109032D01*
X103729071Y-71109545D01*
X103737592Y-71115275D01*
X103744475Y-71127232D01*
X103748725Y-71138043D01*
X103754393Y-71152256D01*
X103760038Y-71164293D01*
X103763430Y-71170051D01*
X103767031Y-71174398D01*
X103770966Y-71176063D01*
X103777480Y-71175010D01*
X103788818Y-71171205D01*
X103793329Y-71169581D01*
X103807318Y-71164453D01*
X103818978Y-71160033D01*
X103824542Y-71157799D01*
X103828456Y-71156617D01*
X103829447Y-71158712D01*
X103827429Y-71165613D01*
X103823516Y-71175809D01*
X103818925Y-71187772D01*
X103815894Y-71196276D01*
X103815170Y-71198883D01*
X103816633Y-71200673D01*
X103821518Y-71199398D01*
X103830575Y-71194651D01*
X103844553Y-71186023D01*
X103864200Y-71173107D01*
X103871499Y-71168209D01*
X103913580Y-71142212D01*
X103955631Y-71121363D01*
X104000882Y-71104162D01*
X104026461Y-71096244D01*
X104048786Y-71090226D01*
X104066040Y-71087042D01*
X104080836Y-71086627D01*
X104095788Y-71088917D01*
X104113509Y-71093847D01*
X104114251Y-71094079D01*
X104136592Y-71099974D01*
X104155054Y-71101739D01*
X104172870Y-71099346D01*
X104191577Y-71093411D01*
X104215172Y-71084583D01*
X104198917Y-71070332D01*
X104191358Y-71063804D01*
X104184499Y-71058565D01*
X104177376Y-71054488D01*
X104169024Y-71051447D01*
X104158478Y-71049313D01*
X104144774Y-71047959D01*
X104126947Y-71047258D01*
X104104032Y-71047082D01*
X104075066Y-71047304D01*
X104039083Y-71047797D01*
X104029360Y-71047941D01*
X103899344Y-71049860D01*
X103888053Y-71039291D01*
X103880696Y-71031518D01*
X103876901Y-71025777D01*
X103876761Y-71025072D01*
X103880477Y-71020397D01*
X103890767Y-71013958D01*
X103906340Y-71006363D01*
X103925909Y-70998220D01*
X103948185Y-70990138D01*
X103956829Y-70987293D01*
X103976467Y-70981253D01*
X103991097Y-70977621D01*
X104003429Y-70976006D01*
X104016175Y-70976018D01*
X104028685Y-70976954D01*
X104042296Y-70977937D01*
X104062316Y-70979049D01*
X104086944Y-70980206D01*
X104114380Y-70981325D01*
X104142825Y-70982322D01*
X104147958Y-70982484D01*
X104178109Y-70983503D01*
X104201168Y-70984530D01*
X104218254Y-70985678D01*
X104230487Y-70987059D01*
X104238986Y-70988787D01*
X104244871Y-70990973D01*
X104247530Y-70992497D01*
X104255268Y-70998983D01*
X104258706Y-71004644D01*
X104258715Y-71004815D01*
X104260870Y-71005806D01*
X104265900Y-71001128D01*
X104272109Y-70995899D01*
X104283956Y-70987901D01*
X104299806Y-70978174D01*
X104318023Y-70967760D01*
X104320214Y-70966556D01*
X104337815Y-70956916D01*
X104352583Y-70948819D01*
X104363151Y-70943015D01*
X104368152Y-70940254D01*
X104368363Y-70940134D01*
X104367559Y-70936341D01*
X104364501Y-70927198D01*
X104361510Y-70919080D01*
X104356182Y-70903026D01*
X104351005Y-70884195D01*
X104348532Y-70873441D01*
X104343335Y-70848283D01*
X104358360Y-70831653D01*
X104372175Y-70811444D01*
X104377909Y-70790249D01*
X104375564Y-70767926D01*
X104365138Y-70744332D01*
X104358665Y-70734448D01*
X104339353Y-70706357D01*
X104324964Y-70682726D01*
X104314854Y-70661976D01*
X104308383Y-70642526D01*
X104304911Y-70622796D01*
X104303797Y-70601206D01*
X104303790Y-70599146D01*
X104306943Y-70566038D01*
X104316750Y-70533577D01*
X104333728Y-70500072D01*
X104334686Y-70498484D01*
X104348529Y-70478038D01*
X104361423Y-70465106D01*
X104374743Y-70459326D01*
X104389864Y-70460336D01*
G37*
G36*
X103095036Y-68060040D02*
G01*
X103124465Y-68065296D01*
X103157037Y-68072347D01*
X103201183Y-68084003D01*
X103249447Y-68099495D01*
X103299289Y-68117852D01*
X103348167Y-68138107D01*
X103393540Y-68159290D01*
X103416884Y-68171421D01*
X103494623Y-68215881D01*
X103574972Y-68266029D01*
X103656119Y-68320631D01*
X103736251Y-68378455D01*
X103813556Y-68438268D01*
X103836292Y-68456715D01*
X103856745Y-68473757D01*
X103871732Y-68486973D01*
X103882337Y-68497485D01*
X103889647Y-68506420D01*
X103894747Y-68514899D01*
X103896856Y-68519433D01*
X103902387Y-68532632D01*
X103904721Y-68540757D01*
X103903854Y-68546303D01*
X103899777Y-68551765D01*
X103896763Y-68554999D01*
X103888023Y-68564303D01*
X103842358Y-68521862D01*
X103801447Y-68483862D01*
X103766016Y-68451018D01*
X103735550Y-68422878D01*
X103709533Y-68398988D01*
X103687447Y-68378895D01*
X103668777Y-68362146D01*
X103653006Y-68348287D01*
X103639617Y-68336867D01*
X103628095Y-68327430D01*
X103617923Y-68319525D01*
X103608584Y-68312698D01*
X103599562Y-68306495D01*
X103590341Y-68300465D01*
X103589338Y-68299821D01*
X103576519Y-68292009D01*
X103560460Y-68282821D01*
X103542233Y-68272800D01*
X103522907Y-68262489D01*
X103503553Y-68252431D01*
X103485241Y-68243169D01*
X103469042Y-68235246D01*
X103456025Y-68229207D01*
X103447261Y-68225593D01*
X103443820Y-68224948D01*
X103445446Y-68226796D01*
X103453370Y-68233247D01*
X103466231Y-68243767D01*
X103482629Y-68257209D01*
X103501160Y-68272423D01*
X103514561Y-68283438D01*
X103550552Y-68312840D01*
X103581655Y-68337787D01*
X103609143Y-68359253D01*
X103634288Y-68378214D01*
X103658363Y-68395644D01*
X103682641Y-68412519D01*
X103685830Y-68414690D01*
X103715791Y-68435840D01*
X103749378Y-68460894D01*
X103784299Y-68488062D01*
X103818260Y-68515557D01*
X103848970Y-68541590D01*
X103852661Y-68544824D01*
X103867109Y-68558238D01*
X103876339Y-68568900D01*
X103881850Y-68578785D01*
X103884409Y-68586745D01*
X103887760Y-68599299D01*
X103890736Y-68609222D01*
X103891498Y-68611393D01*
X103891440Y-68617077D01*
X103888946Y-68618081D01*
X103883899Y-68615640D01*
X103874305Y-68609195D01*
X103861875Y-68600061D01*
X103848317Y-68589555D01*
X103835341Y-68578992D01*
X103824656Y-68569690D01*
X103819276Y-68564441D01*
X103810432Y-68557743D01*
X103798089Y-68551530D01*
X103785240Y-68546981D01*
X103774879Y-68545273D01*
X103771811Y-68545751D01*
X103770119Y-68548011D01*
X103772055Y-68552784D01*
X103778219Y-68560871D01*
X103789211Y-68573070D01*
X103803865Y-68588362D01*
X103820106Y-68605170D01*
X103836001Y-68621818D01*
X103849779Y-68636441D01*
X103859672Y-68647173D01*
X103860074Y-68647620D01*
X103871619Y-68659264D01*
X103881237Y-68665553D01*
X103891409Y-68668062D01*
X103892362Y-68668151D01*
X103899695Y-68669219D01*
X103905419Y-68671938D01*
X103910929Y-68677740D01*
X103917621Y-68688057D01*
X103925925Y-68702595D01*
X103939300Y-68725679D01*
X103950624Y-68742828D01*
X103961305Y-68755553D01*
X103972754Y-68765367D01*
X103986381Y-68773781D01*
X103997652Y-68779494D01*
X104013307Y-68787416D01*
X104023920Y-68794403D01*
X104032003Y-68802740D01*
X104040070Y-68814712D01*
X104044479Y-68822090D01*
X104057591Y-68841668D01*
X104070895Y-68855418D01*
X104079878Y-68861843D01*
X104093971Y-68872894D01*
X104104549Y-68885467D01*
X104106293Y-68888532D01*
X104111227Y-68900010D01*
X104117736Y-68917494D01*
X104125179Y-68939080D01*
X104132915Y-68962866D01*
X104140302Y-68986949D01*
X104145242Y-69004113D01*
X104151375Y-69020103D01*
X104160607Y-69037638D01*
X104167966Y-69048781D01*
X104177135Y-69062489D01*
X104185123Y-69077930D01*
X104192460Y-69096532D01*
X104199674Y-69119719D01*
X104207294Y-69148918D01*
X104211272Y-69165575D01*
X104216024Y-69185866D01*
X104219121Y-69199468D01*
X104220702Y-69207708D01*
X104220902Y-69211911D01*
X104219860Y-69213403D01*
X104217711Y-69213509D01*
X104216226Y-69213457D01*
X104207919Y-69209638D01*
X104198115Y-69198742D01*
X104187489Y-69181613D01*
X104181776Y-69170344D01*
X104170327Y-69147458D01*
X104159708Y-69128451D01*
X104150596Y-69114422D01*
X104143666Y-69106471D01*
X104141730Y-69105265D01*
X104133968Y-69105152D01*
X104129974Y-69111396D01*
X104130085Y-69122893D01*
X104132969Y-69134021D01*
X104137771Y-69149283D01*
X104139294Y-69157499D01*
X104137569Y-69159138D01*
X104134621Y-69156794D01*
X104126753Y-69152104D01*
X104120653Y-69155379D01*
X104116469Y-69166537D01*
X104116320Y-69167264D01*
X104114527Y-69177999D01*
X104113986Y-69185028D01*
X104114080Y-69185742D01*
X104112148Y-69187944D01*
X104111410Y-69187795D01*
X104107147Y-69190134D01*
X104099926Y-69197004D01*
X104091592Y-69206275D01*
X104083991Y-69215817D01*
X104078968Y-69223499D01*
X104077957Y-69226406D01*
X104075419Y-69228496D01*
X104073851Y-69227829D01*
X104071055Y-69222359D01*
X104069757Y-69212445D01*
X104069745Y-69211404D01*
X104068177Y-69199038D01*
X104064131Y-69193655D01*
X104058596Y-69194797D01*
X104052563Y-69202002D01*
X104047021Y-69214812D01*
X104044780Y-69223013D01*
X104040791Y-69236610D01*
X104034982Y-69245802D01*
X104024882Y-69254107D01*
X104021224Y-69256571D01*
X104003767Y-69269899D01*
X103992691Y-69283623D01*
X103986441Y-69300248D01*
X103983945Y-69316536D01*
X103981930Y-69330135D01*
X103979155Y-69340018D01*
X103976589Y-69343752D01*
X103969208Y-69342301D01*
X103961854Y-69334552D01*
X103955793Y-69322323D01*
X103952524Y-69309219D01*
X103947432Y-69276931D01*
X103942417Y-69251305D01*
X103937581Y-69232746D01*
X103933027Y-69221657D01*
X103929644Y-69218435D01*
X103923232Y-69220715D01*
X103920992Y-69224803D01*
X103920501Y-69231978D01*
X103920720Y-69245684D01*
X103921556Y-69264281D01*
X103922911Y-69286127D01*
X103924690Y-69309581D01*
X103926796Y-69333002D01*
X103928002Y-69344746D01*
X103930428Y-69367224D01*
X103917579Y-69347826D01*
X103909720Y-69336709D01*
X103903340Y-69330920D01*
X103895708Y-69328736D01*
X103886833Y-69328427D01*
X103867962Y-69330058D01*
X103854692Y-69335761D01*
X103845660Y-69346750D01*
X103839505Y-69364242D01*
X103837760Y-69372224D01*
X103833538Y-69383614D01*
X103827005Y-69387141D01*
X103818312Y-69382757D01*
X103814892Y-69379456D01*
X103806906Y-69372569D01*
X103800344Y-69369498D01*
X103800084Y-69369487D01*
X103796046Y-69372882D01*
X103794925Y-69381335D01*
X103796663Y-69392249D01*
X103800799Y-69402336D01*
X103805431Y-69413629D01*
X103806571Y-69423651D01*
X103804176Y-69430009D01*
X103801305Y-69431078D01*
X103796449Y-69427386D01*
X103790328Y-69417433D01*
X103783746Y-69402907D01*
X103777508Y-69385494D01*
X103774335Y-69374620D01*
X103770553Y-69363425D01*
X103765993Y-69358304D01*
X103759676Y-69357169D01*
X103751696Y-69360436D01*
X103741507Y-69368907D01*
X103730859Y-69380592D01*
X103721497Y-69393499D01*
X103715170Y-69405636D01*
X103714030Y-69409195D01*
X103712249Y-69414896D01*
X103710031Y-69415425D01*
X103706002Y-69410063D01*
X103701500Y-69402641D01*
X103694053Y-69391298D01*
X103688547Y-69386707D01*
X103683483Y-69388161D01*
X103679498Y-69392279D01*
X103677708Y-69396005D01*
X103677013Y-69402397D01*
X103677502Y-69412617D01*
X103679264Y-69427828D01*
X103682387Y-69449192D01*
X103685191Y-69466949D01*
X103689270Y-69493185D01*
X103691884Y-69512372D01*
X103693116Y-69525527D01*
X103693050Y-69533666D01*
X103691767Y-69537807D01*
X103691000Y-69538530D01*
X103683548Y-69540761D01*
X103678580Y-69535902D01*
X103675606Y-69523463D01*
X103675565Y-69523143D01*
X103673052Y-69511964D01*
X103668419Y-69506805D01*
X103664753Y-69505790D01*
X103657027Y-69508439D01*
X103651172Y-69518082D01*
X103647652Y-69533623D01*
X103646823Y-69548290D01*
X103647226Y-69556860D01*
X103649228Y-69563765D01*
X103654016Y-69570777D01*
X103662776Y-69579670D01*
X103675565Y-69591214D01*
X103688083Y-69602682D01*
X103697842Y-69612327D01*
X103703470Y-69618755D01*
X103704307Y-69620379D01*
X103700714Y-69622926D01*
X103691962Y-69624186D01*
X103690963Y-69624208D01*
X103677936Y-69626186D01*
X103667353Y-69630221D01*
X103658466Y-69634526D01*
X103651037Y-69635247D01*
X103643085Y-69631718D01*
X103632627Y-69623272D01*
X103624623Y-69615850D01*
X103611276Y-69604154D01*
X103601040Y-69597726D01*
X103591924Y-69595398D01*
X103589691Y-69595320D01*
X103580804Y-69596042D01*
X103578192Y-69599179D01*
X103579073Y-69603532D01*
X103579284Y-69610395D01*
X103576270Y-69611764D01*
X103575786Y-69614169D01*
X103580478Y-69620300D01*
X103585332Y-69625108D01*
X103593467Y-69634560D01*
X103603526Y-69649098D01*
X103613953Y-69666370D01*
X103619642Y-69676881D01*
X103639479Y-69715329D01*
X103654162Y-69712946D01*
X103669678Y-69706732D01*
X103687192Y-69692739D01*
X103687603Y-69692341D01*
X103703682Y-69678487D01*
X103720285Y-69667154D01*
X103735388Y-69659558D01*
X103746603Y-69656910D01*
X103756419Y-69658833D01*
X103762259Y-69661267D01*
X103772361Y-69663379D01*
X103786144Y-69662149D01*
X103801445Y-69658332D01*
X103816098Y-69652683D01*
X103827941Y-69645957D01*
X103834807Y-69638909D01*
X103835701Y-69635648D01*
X103833253Y-69630025D01*
X103827177Y-69621352D01*
X103825204Y-69618932D01*
X103818593Y-69609391D01*
X103818171Y-69603326D01*
X103819167Y-69601999D01*
X103825422Y-69600603D01*
X103837962Y-69601399D01*
X103855253Y-69604057D01*
X103875767Y-69608245D01*
X103897971Y-69613631D01*
X103920336Y-69619886D01*
X103941329Y-69626676D01*
X103952723Y-69630906D01*
X103972809Y-69639472D01*
X103998355Y-69651341D01*
X104027723Y-69665682D01*
X104059278Y-69681665D01*
X104091384Y-69698457D01*
X104122403Y-69715227D01*
X104150701Y-69731145D01*
X104155557Y-69733959D01*
X104174601Y-69744886D01*
X104194056Y-69755766D01*
X104211007Y-69764983D01*
X104218363Y-69768837D01*
X104234972Y-69778949D01*
X104246105Y-69789143D01*
X104248652Y-69792979D01*
X104254059Y-69801111D01*
X104258833Y-69804718D01*
X104259020Y-69804728D01*
X104265243Y-69807621D01*
X104275336Y-69815351D01*
X104287854Y-69826493D01*
X104301353Y-69839624D01*
X104314387Y-69853320D01*
X104325513Y-69866156D01*
X104333286Y-69876710D01*
X104334908Y-69879527D01*
X104341809Y-69898588D01*
X104344677Y-69921646D01*
X104343510Y-69949612D01*
X104338307Y-69983398D01*
X104334585Y-70001022D01*
X104328616Y-70032401D01*
X104325096Y-70061866D01*
X104324320Y-70079793D01*
X104323111Y-70104092D01*
X104319150Y-70121813D01*
X104311935Y-70134278D01*
X104300965Y-70142807D01*
X104300224Y-70143197D01*
X104289428Y-70151229D01*
X104281285Y-70160718D01*
X104267653Y-70179447D01*
X104254868Y-70190469D01*
X104241906Y-70194073D01*
X104227746Y-70190550D01*
X104211683Y-70180431D01*
X104199995Y-70172517D01*
X104189758Y-70167297D01*
X104184928Y-70166060D01*
X104178025Y-70167003D01*
X104164995Y-70169574D01*
X104147670Y-70173387D01*
X104127884Y-70178054D01*
X104126795Y-70178320D01*
X104076976Y-70188910D01*
X104032555Y-70195089D01*
X103993811Y-70196870D01*
X103961024Y-70194271D01*
X103934473Y-70187306D01*
X103914437Y-70175991D01*
X103904852Y-70166057D01*
X103896285Y-70157926D01*
X103887245Y-70156801D01*
X103874212Y-70155800D01*
X103859766Y-70147825D01*
X103843468Y-70132570D01*
X103831152Y-70117946D01*
X103828779Y-70114963D01*
X103894464Y-70114963D01*
X103895656Y-70123148D01*
X103898290Y-70130070D01*
X103901207Y-70129429D01*
X103901878Y-70128469D01*
X103904774Y-70119977D01*
X103905441Y-70113708D01*
X103903528Y-70106137D01*
X103899054Y-70104778D01*
X103895355Y-70108387D01*
X103894464Y-70114963D01*
X103828779Y-70114963D01*
X103817911Y-70101303D01*
X103803589Y-70083619D01*
X103791122Y-70068514D01*
X103790284Y-70067515D01*
X103780724Y-70055577D01*
X103768026Y-70038929D01*
X103753722Y-70019616D01*
X103739342Y-69999684D01*
X103736780Y-69996068D01*
X103718295Y-69970993D01*
X103702598Y-69952328D01*
X103688735Y-69939172D01*
X103675758Y-69930625D01*
X103662713Y-69925784D01*
X103662576Y-69925751D01*
X103650748Y-69926578D01*
X103641009Y-69933797D01*
X103635273Y-69945588D01*
X103634504Y-69952409D01*
X103631921Y-69963174D01*
X103623660Y-69976265D01*
X103616201Y-69985198D01*
X103606146Y-69997577D01*
X103598915Y-70009705D01*
X103593879Y-70023509D01*
X103590411Y-70040917D01*
X103587880Y-70063859D01*
X103587013Y-70074701D01*
X103585148Y-70094561D01*
X103582956Y-70106741D01*
X103580185Y-70111772D01*
X103576584Y-70110186D01*
X103572914Y-70104469D01*
X103568073Y-70097982D01*
X103564996Y-70096257D01*
X103560203Y-70099473D01*
X103559873Y-70108200D01*
X103564009Y-70121057D01*
X103564988Y-70123200D01*
X103571056Y-70139464D01*
X103572496Y-70152066D01*
X103569174Y-70159620D01*
X103568535Y-70160070D01*
X103563897Y-70161408D01*
X103560791Y-70157572D01*
X103558454Y-70147275D01*
X103557657Y-70141763D01*
X103554884Y-70129893D01*
X103549991Y-70125593D01*
X103541734Y-70128269D01*
X103536508Y-70131647D01*
X103530260Y-70137540D01*
X103528708Y-70145054D01*
X103529799Y-70153129D01*
X103534207Y-70169998D01*
X103539858Y-70179267D01*
X103547130Y-70181501D01*
X103548629Y-70181203D01*
X103555152Y-70181243D01*
X103555556Y-70185971D01*
X103549971Y-70194748D01*
X103544678Y-70200766D01*
X103536926Y-70211322D01*
X103528952Y-70226001D01*
X103521510Y-70242804D01*
X103515357Y-70259728D01*
X103511250Y-70274775D01*
X103509943Y-70285943D01*
X103510914Y-70290113D01*
X103514672Y-70297353D01*
X103514395Y-70301048D01*
X103509538Y-70301029D01*
X103499555Y-70297128D01*
X103483901Y-70289179D01*
X103462032Y-70277012D01*
X103454704Y-70272817D01*
X103436423Y-70262445D01*
X103420619Y-70253738D01*
X103408678Y-70247439D01*
X103401987Y-70244294D01*
X103401169Y-70244075D01*
X103395936Y-70246827D01*
X103391230Y-70251261D01*
X103387928Y-70255999D01*
X103387098Y-70261671D01*
X103388832Y-70270656D01*
X103392463Y-70282900D01*
X103398847Y-70306817D01*
X103401107Y-70324209D01*
X103399298Y-70334921D01*
X103393473Y-70338798D01*
X103383689Y-70335682D01*
X103375824Y-70330302D01*
X103362557Y-70323190D01*
X103351264Y-70323932D01*
X103342152Y-70332362D01*
X103335432Y-70348313D01*
X103332083Y-70365133D01*
X103329431Y-70376821D01*
X103325800Y-70383125D01*
X103324366Y-70383681D01*
X103322468Y-70381737D01*
X103321020Y-70375353D01*
X103319962Y-70363700D01*
X103319234Y-70345950D01*
X103318776Y-70321273D01*
X103318618Y-70304481D01*
X103318791Y-70263639D01*
X103319995Y-70229747D01*
X103322291Y-70201602D01*
X103324549Y-70184867D01*
X103329020Y-70150620D01*
X103330825Y-70120712D01*
X103329956Y-70096207D01*
X103326405Y-70078168D01*
X103325297Y-70075250D01*
X103320583Y-70065888D01*
X103312658Y-70051850D01*
X103302791Y-70035339D01*
X103295986Y-70024402D01*
X103285991Y-70007895D01*
X103277650Y-69992799D01*
X103272038Y-69981133D01*
X103270322Y-69976155D01*
X103267176Y-69966976D01*
X103262606Y-69965706D01*
X103256748Y-69971023D01*
X103248248Y-69976731D01*
X103239734Y-69974622D01*
X103237032Y-69972004D01*
X103235770Y-69966652D01*
X103234294Y-69953831D01*
X103232657Y-69934279D01*
X103230911Y-69908734D01*
X103229106Y-69877936D01*
X103227297Y-69842623D01*
X103226116Y-69817001D01*
X103223394Y-69758641D01*
X103220606Y-69707103D01*
X103217568Y-69660998D01*
X103214097Y-69618936D01*
X103210009Y-69579529D01*
X103205120Y-69541385D01*
X103199248Y-69503118D01*
X103192209Y-69463336D01*
X103183820Y-69420651D01*
X103173897Y-69373673D01*
X103162257Y-69321014D01*
X103158378Y-69303790D01*
X103146594Y-69251445D01*
X103136469Y-69205903D01*
X103127785Y-69165974D01*
X103120325Y-69130467D01*
X103113872Y-69098192D01*
X103108207Y-69067957D01*
X103103114Y-69038571D01*
X103098376Y-69008844D01*
X103093774Y-68977584D01*
X103089091Y-68943601D01*
X103084111Y-68905703D01*
X103080363Y-68876458D01*
X103076286Y-68846062D01*
X103071822Y-68815563D01*
X103067277Y-68786850D01*
X103062952Y-68761811D01*
X103059152Y-68742334D01*
X103057925Y-68736853D01*
X103047496Y-68690581D01*
X103038860Y-68647088D01*
X103031835Y-68604784D01*
X103026235Y-68562081D01*
X103021878Y-68517390D01*
X103018581Y-68469122D01*
X103016159Y-68415687D01*
X103014566Y-68361453D01*
X103013056Y-68308237D01*
X103011201Y-68261751D01*
X103009022Y-68222379D01*
X103008341Y-68213635D01*
X103425096Y-68213635D01*
X103427149Y-68215688D01*
X103429202Y-68213635D01*
X103427149Y-68211582D01*
X103425096Y-68213635D01*
X103008341Y-68213635D01*
X103006540Y-68190504D01*
X103004203Y-68169553D01*
X103000861Y-68141633D01*
X102999520Y-68120293D01*
X103000354Y-68104103D01*
X103003536Y-68091636D01*
X103009240Y-68081464D01*
X103015842Y-68073914D01*
X103025961Y-68065749D01*
X103037938Y-68060290D01*
X103052775Y-68057527D01*
X103071473Y-68057447D01*
X103095036Y-68060040D01*
G37*
G36*
X89132156Y-57405161D02*
G01*
X89150736Y-57408006D01*
X89165492Y-57414335D01*
X89179714Y-57424180D01*
X89211065Y-57455772D01*
X89230428Y-57492763D01*
X89237203Y-57533469D01*
X89232227Y-57571195D01*
X89215689Y-57608239D01*
X89189419Y-57637327D01*
X89155596Y-57657338D01*
X89116400Y-57667150D01*
X89074010Y-57665643D01*
X89056494Y-57661576D01*
X89033484Y-57649809D01*
X89009690Y-57629663D01*
X88989600Y-57605443D01*
X88980162Y-57588406D01*
X88970896Y-57550430D01*
X88972759Y-57510975D01*
X88984770Y-57473530D01*
X89005945Y-57441586D01*
X89026487Y-57423838D01*
X89044572Y-57413209D01*
X89061761Y-57407331D01*
X89083413Y-57404883D01*
X89104811Y-57404501D01*
X89132156Y-57405161D01*
G37*
G36*
X86340923Y-57076052D02*
G01*
X86341165Y-57138763D01*
X86341860Y-57196390D01*
X86342960Y-57247241D01*
X86344418Y-57289618D01*
X86346186Y-57321829D01*
X86348216Y-57342177D01*
X86348438Y-57343533D01*
X86361826Y-57391715D01*
X86383521Y-57429042D01*
X86413880Y-57455808D01*
X86453260Y-57472309D01*
X86502017Y-57478839D01*
X86512222Y-57478978D01*
X86566556Y-57473541D01*
X86612440Y-57457377D01*
X86650360Y-57430187D01*
X86680804Y-57391668D01*
X86693833Y-57367083D01*
X86697680Y-57358146D01*
X86700799Y-57348655D01*
X86703283Y-57337093D01*
X86705223Y-57321942D01*
X86706712Y-57301684D01*
X86707842Y-57274803D01*
X86708705Y-57239779D01*
X86709392Y-57195096D01*
X86709997Y-57139236D01*
X86710410Y-57093782D01*
X86712527Y-56851730D01*
X86818615Y-56851730D01*
X86924704Y-56851730D01*
X86922932Y-57255150D01*
X86921161Y-57658569D01*
X86821593Y-57658569D01*
X86722026Y-57658569D01*
X86719932Y-57621992D01*
X86717838Y-57585414D01*
X86694093Y-57603525D01*
X86644234Y-57633436D01*
X86586109Y-57654401D01*
X86522236Y-57665976D01*
X86455131Y-57667722D01*
X86387312Y-57659196D01*
X86382527Y-57658187D01*
X86318766Y-57638100D01*
X86263824Y-57607523D01*
X86217937Y-57566690D01*
X86181343Y-57515833D01*
X86154280Y-57455185D01*
X86145430Y-57425375D01*
X86142633Y-57412141D01*
X86140355Y-57395444D01*
X86138550Y-57373886D01*
X86137169Y-57346070D01*
X86136164Y-57310597D01*
X86135488Y-57266070D01*
X86135093Y-57211090D01*
X86134931Y-57144260D01*
X86134921Y-57118089D01*
X86134921Y-56851730D01*
X86237922Y-56851730D01*
X86340923Y-56851730D01*
X86340923Y-57076052D01*
G37*
G36*
X83576011Y-56905871D02*
G01*
X83608652Y-57000983D01*
X83629831Y-57095869D01*
X83640106Y-57193878D01*
X83640348Y-57291200D01*
X83630065Y-57402444D01*
X83608211Y-57507330D01*
X83574222Y-57607592D01*
X83527530Y-57704965D01*
X83479634Y-57783471D01*
X83430411Y-57848935D01*
X83371082Y-57914283D01*
X83304932Y-57976342D01*
X83235244Y-58031936D01*
X83191909Y-58061633D01*
X83098672Y-58113432D01*
X82998209Y-58154590D01*
X82892560Y-58184603D01*
X82783766Y-58202966D01*
X82673867Y-58209175D01*
X82605427Y-58206652D01*
X82572291Y-58203147D01*
X82532273Y-58197359D01*
X82490243Y-58190137D01*
X82451073Y-58182333D01*
X82419633Y-58174798D01*
X82414244Y-58173263D01*
X82393438Y-58166558D01*
X82383113Y-58160798D01*
X82380462Y-58153465D01*
X82382066Y-58144427D01*
X82386790Y-58130699D01*
X82395914Y-58108075D01*
X82408111Y-58079500D01*
X82422058Y-58047920D01*
X82436427Y-58016282D01*
X82449895Y-57987530D01*
X82461135Y-57964611D01*
X82468823Y-57950470D01*
X82470318Y-57948278D01*
X82475643Y-57943721D01*
X82484152Y-57941999D01*
X82498696Y-57943238D01*
X82522127Y-57947564D01*
X82540193Y-57951382D01*
X82588843Y-57958771D01*
X82645951Y-57962487D01*
X82707019Y-57962629D01*
X82767549Y-57959296D01*
X82823046Y-57952587D01*
X82862929Y-57944295D01*
X82942734Y-57916868D01*
X83021649Y-57878038D01*
X83095983Y-57829846D01*
X83150454Y-57785210D01*
X83198723Y-57734742D01*
X83245112Y-57674336D01*
X83287200Y-57607775D01*
X83322568Y-57538844D01*
X83346293Y-57478983D01*
X83367505Y-57396639D01*
X83378666Y-57308407D01*
X83379792Y-57217738D01*
X83370899Y-57128085D01*
X83352003Y-57042900D01*
X83344106Y-57017910D01*
X83327021Y-56967788D01*
X83359343Y-56947240D01*
X83378212Y-56936037D01*
X83405685Y-56920727D01*
X83438075Y-56903325D01*
X83471663Y-56885863D01*
X83551661Y-56845033D01*
X83576011Y-56905871D01*
G37*
G36*
X82747141Y-56293818D02*
G01*
X82762602Y-56295173D01*
X82844947Y-56305706D01*
X82918845Y-56321212D01*
X82989101Y-56343066D01*
X83060521Y-56372642D01*
X83099830Y-56391587D01*
X83182453Y-56438688D01*
X83263380Y-56495554D01*
X83333240Y-56554624D01*
X83390657Y-56607961D01*
X83315628Y-56616113D01*
X83276094Y-56620982D01*
X83229934Y-56627542D01*
X83183988Y-56634788D01*
X83157572Y-56639370D01*
X83074546Y-56654475D01*
X83027105Y-56627014D01*
X82945034Y-56586434D01*
X82854601Y-56554510D01*
X82845762Y-56551996D01*
X82825542Y-56547172D01*
X82803169Y-56543740D01*
X82775987Y-56541506D01*
X82741345Y-56540280D01*
X82696587Y-56539872D01*
X82677527Y-56539888D01*
X82632175Y-56540152D01*
X82597601Y-56540869D01*
X82570853Y-56542343D01*
X82548976Y-56544879D01*
X82529016Y-56548783D01*
X82508021Y-56554360D01*
X82492549Y-56558986D01*
X82403196Y-56592675D01*
X82320533Y-56637344D01*
X82243268Y-56693813D01*
X82170106Y-56762900D01*
X82169390Y-56763659D01*
X82110093Y-56836423D01*
X82061828Y-56917082D01*
X82024834Y-57005034D01*
X81999354Y-57099679D01*
X81985627Y-57200415D01*
X81984070Y-57226247D01*
X81980745Y-57299081D01*
X81898907Y-57389558D01*
X81870419Y-57421248D01*
X81843434Y-57451624D01*
X81820029Y-57478319D01*
X81802284Y-57498965D01*
X81794095Y-57508864D01*
X81780489Y-57525013D01*
X81770134Y-57535634D01*
X81766542Y-57538047D01*
X81763069Y-57532001D01*
X81757614Y-57515514D01*
X81751105Y-57491562D01*
X81747887Y-57478318D01*
X81728793Y-57368470D01*
X81722325Y-57257407D01*
X81728345Y-57146911D01*
X81746713Y-57038764D01*
X81777291Y-56934749D01*
X81793653Y-56892930D01*
X81843658Y-56790967D01*
X81903875Y-56696729D01*
X81973346Y-56610807D01*
X82051110Y-56533793D01*
X82136210Y-56466278D01*
X82227686Y-56408855D01*
X82324579Y-56362115D01*
X82425930Y-56326650D01*
X82530780Y-56303051D01*
X82638170Y-56291910D01*
X82747141Y-56293818D01*
G37*
G36*
X84825337Y-56847833D02*
G01*
X84849923Y-56851503D01*
X84914092Y-56872013D01*
X84969975Y-56903326D01*
X85016948Y-56944850D01*
X85054387Y-56995992D01*
X85081669Y-57056160D01*
X85088456Y-57078331D01*
X85091605Y-57091285D01*
X85094176Y-57105756D01*
X85096228Y-57123231D01*
X85097823Y-57145197D01*
X85099019Y-57173138D01*
X85099877Y-57208542D01*
X85100456Y-57252894D01*
X85100817Y-57307681D01*
X85101019Y-57374389D01*
X85101049Y-57390767D01*
X85101480Y-57658569D01*
X84996762Y-57660465D01*
X84892045Y-57662360D01*
X84892045Y-57425618D01*
X84891812Y-57357037D01*
X84891136Y-57296233D01*
X84890048Y-57244386D01*
X84888583Y-57202676D01*
X84886771Y-57172285D01*
X84884646Y-57154392D01*
X84884546Y-57153908D01*
X84870393Y-57115504D01*
X84846697Y-57080884D01*
X84816577Y-57054257D01*
X84806211Y-57048175D01*
X84772345Y-57036553D01*
X84731007Y-57031345D01*
X84686992Y-57032784D01*
X84647388Y-57040428D01*
X84620490Y-57050195D01*
X84598176Y-57063985D01*
X84574675Y-57085430D01*
X84572648Y-57087506D01*
X84559309Y-57101477D01*
X84548374Y-57114263D01*
X84539588Y-57127362D01*
X84532696Y-57142272D01*
X84527443Y-57160492D01*
X84523574Y-57183519D01*
X84520835Y-57212853D01*
X84518970Y-57249990D01*
X84517726Y-57296430D01*
X84516846Y-57353671D01*
X84516111Y-57419951D01*
X84513573Y-57662003D01*
X84412118Y-57662003D01*
X84376098Y-57661708D01*
X84345073Y-57660897D01*
X84321579Y-57659679D01*
X84308154Y-57658164D01*
X84306084Y-57657425D01*
X84305252Y-57649910D01*
X84304468Y-57629883D01*
X84303747Y-57598567D01*
X84303102Y-57557184D01*
X84302548Y-57506956D01*
X84302097Y-57449105D01*
X84301765Y-57384853D01*
X84301564Y-57315422D01*
X84301507Y-57252288D01*
X84301507Y-56851730D01*
X84404507Y-56851730D01*
X84507508Y-56851730D01*
X84507508Y-56889567D01*
X84507508Y-56927404D01*
X84543558Y-56903498D01*
X84586362Y-56878976D01*
X84630790Y-56862057D01*
X84680725Y-56851595D01*
X84736622Y-56846605D01*
X84784687Y-56845724D01*
X84825337Y-56847833D01*
G37*
G36*
X88818133Y-57104082D02*
G01*
X88816375Y-57658569D01*
X88716808Y-57658569D01*
X88617241Y-57658569D01*
X88615165Y-57622519D01*
X88613398Y-57602376D01*
X88611086Y-57589291D01*
X88609557Y-57586469D01*
X88602330Y-57590206D01*
X88588697Y-57599511D01*
X88584165Y-57602851D01*
X88531581Y-57634029D01*
X88471203Y-57655442D01*
X88405281Y-57666692D01*
X88336060Y-57667384D01*
X88270471Y-57658157D01*
X88202780Y-57636768D01*
X88140914Y-57603736D01*
X88086190Y-57560390D01*
X88039921Y-57508056D01*
X88003423Y-57448064D01*
X87978010Y-57381741D01*
X87971799Y-57356434D01*
X87962237Y-57281804D01*
X87962753Y-57260300D01*
X88177770Y-57260300D01*
X88178249Y-57294249D01*
X88180138Y-57318631D01*
X88184114Y-57337590D01*
X88190855Y-57355274D01*
X88194577Y-57363121D01*
X88221262Y-57404510D01*
X88256215Y-57439497D01*
X88295996Y-57464801D01*
X88305468Y-57468907D01*
X88346833Y-57479590D01*
X88393572Y-57482600D01*
X88440511Y-57478151D01*
X88482478Y-57466455D01*
X88494258Y-57461092D01*
X88537556Y-57431481D01*
X88571192Y-57392309D01*
X88594778Y-57344143D01*
X88606573Y-57296932D01*
X88610131Y-57238294D01*
X88601921Y-57184064D01*
X88582560Y-57135582D01*
X88552667Y-57094186D01*
X88512861Y-57061217D01*
X88492485Y-57049784D01*
X88466354Y-57037746D01*
X88445120Y-57030865D01*
X88422715Y-57027791D01*
X88393071Y-57027178D01*
X88390783Y-57027191D01*
X88338612Y-57031830D01*
X88294790Y-57045732D01*
X88256620Y-57070001D01*
X88234103Y-57091280D01*
X88209543Y-57121623D01*
X88192809Y-57153235D01*
X88182766Y-57189514D01*
X88178282Y-57233863D01*
X88177770Y-57260300D01*
X87962753Y-57260300D01*
X87964047Y-57206368D01*
X87976892Y-57133308D01*
X88000434Y-57065805D01*
X88003366Y-57059477D01*
X88024078Y-57024842D01*
X88053484Y-56987401D01*
X88088131Y-56950753D01*
X88124561Y-56918495D01*
X88159321Y-56894224D01*
X88165242Y-56890923D01*
X88214764Y-56870190D01*
X88272198Y-56855251D01*
X88333217Y-56846623D01*
X88393494Y-56844823D01*
X88448703Y-56850367D01*
X88468268Y-56854723D01*
X88501766Y-56865909D01*
X88536587Y-56881255D01*
X88567893Y-56898375D01*
X88590843Y-56914882D01*
X88591490Y-56915470D01*
X88606940Y-56929658D01*
X88606940Y-56739626D01*
X88606940Y-56549594D01*
X88713415Y-56549594D01*
X88819890Y-56549594D01*
X88818133Y-57104082D01*
G37*
G36*
X90634971Y-56848678D02*
G01*
X90665099Y-56850117D01*
X90688972Y-56853049D01*
X90710321Y-56857915D01*
X90730065Y-56864170D01*
X90796292Y-56894058D01*
X90855457Y-56934917D01*
X90906172Y-56985373D01*
X90947047Y-57044049D01*
X90976043Y-57107702D01*
X90985772Y-57145812D01*
X90992317Y-57192742D01*
X90995484Y-57243909D01*
X90995080Y-57294729D01*
X90990914Y-57340619D01*
X90986771Y-57362857D01*
X90963617Y-57432723D01*
X90929203Y-57495335D01*
X90884434Y-57549813D01*
X90830214Y-57595277D01*
X90767449Y-57630848D01*
X90697043Y-57655646D01*
X90681972Y-57659269D01*
X90620448Y-57667569D01*
X90557157Y-57666349D01*
X90495353Y-57656181D01*
X90438290Y-57637634D01*
X90389221Y-57611281D01*
X90382907Y-57606804D01*
X90354521Y-57585925D01*
X90352690Y-57764731D01*
X90350860Y-57943538D01*
X90247973Y-57943538D01*
X90145086Y-57943538D01*
X90145086Y-57397634D01*
X90145086Y-57253433D01*
X90354521Y-57253433D01*
X90355000Y-57289965D01*
X90356768Y-57316434D01*
X90360317Y-57336489D01*
X90366142Y-57353777D01*
X90368980Y-57360216D01*
X90397712Y-57406802D01*
X90436140Y-57443746D01*
X90483772Y-57470615D01*
X90502155Y-57477438D01*
X90516901Y-57479826D01*
X90540851Y-57481177D01*
X90569502Y-57481276D01*
X90577689Y-57481052D01*
X90611536Y-57478930D01*
X90636886Y-57474576D01*
X90658934Y-57466881D01*
X90671008Y-57461092D01*
X90713190Y-57431905D01*
X90747631Y-57392342D01*
X90765799Y-57360216D01*
X90772593Y-57343027D01*
X90776929Y-57324423D01*
X90779300Y-57300758D01*
X90780199Y-57268383D01*
X90780258Y-57253433D01*
X90779962Y-57219016D01*
X90778659Y-57194605D01*
X90775725Y-57176475D01*
X90770534Y-57160905D01*
X90762463Y-57144171D01*
X90761682Y-57142685D01*
X90730867Y-57096604D01*
X90693134Y-57062337D01*
X90648192Y-57039711D01*
X90595749Y-57028552D01*
X90567389Y-57027218D01*
X90511186Y-57032852D01*
X90462626Y-57049868D01*
X90421416Y-57078441D01*
X90387266Y-57118744D01*
X90373096Y-57142685D01*
X90364770Y-57159670D01*
X90359374Y-57175197D01*
X90356284Y-57192988D01*
X90354875Y-57216766D01*
X90354522Y-57250255D01*
X90354521Y-57253433D01*
X90145086Y-57253433D01*
X90145086Y-56851730D01*
X90244311Y-56851730D01*
X90343535Y-56851730D01*
X90345595Y-56889065D01*
X90347654Y-56926400D01*
X90387406Y-56900221D01*
X90421569Y-56879738D01*
X90454295Y-56865191D01*
X90489087Y-56855701D01*
X90529449Y-56850391D01*
X90578883Y-56848385D01*
X90594856Y-56848296D01*
X90634971Y-56848678D01*
G37*
G36*
X93292423Y-56849679D02*
G01*
X93358765Y-56864600D01*
X93418846Y-56890339D01*
X93474548Y-56927606D01*
X93503746Y-56953037D01*
X93550526Y-57006444D01*
X93586242Y-57067828D01*
X93610761Y-57136857D01*
X93623955Y-57213196D01*
X93626394Y-57265450D01*
X93626513Y-57325533D01*
X93320482Y-57325533D01*
X93014450Y-57325533D01*
X93019059Y-57340984D01*
X93039102Y-57385147D01*
X93070046Y-57422241D01*
X93110550Y-57451416D01*
X93159271Y-57471826D01*
X93214868Y-57482621D01*
X93245621Y-57484153D01*
X93305682Y-57480521D01*
X93356823Y-57468562D01*
X93401656Y-57447407D01*
X93438486Y-57420038D01*
X93463709Y-57397892D01*
X93500872Y-57438963D01*
X93521768Y-57462404D01*
X93541918Y-57485589D01*
X93557213Y-57503785D01*
X93558120Y-57504903D01*
X93578204Y-57529772D01*
X93541664Y-57564330D01*
X93493076Y-57602078D01*
X93435132Y-57633184D01*
X93386178Y-57651414D01*
X93365208Y-57655906D01*
X93335011Y-57659965D01*
X93299239Y-57663361D01*
X93261545Y-57665864D01*
X93225580Y-57667243D01*
X93194996Y-57667269D01*
X93173447Y-57665711D01*
X93169876Y-57665042D01*
X93155522Y-57661959D01*
X93133583Y-57657493D01*
X93118376Y-57654483D01*
X93061388Y-57637481D01*
X93004093Y-57609654D01*
X92950497Y-57573215D01*
X92916417Y-57542860D01*
X92870902Y-57489277D01*
X92837444Y-57431545D01*
X92815463Y-57368185D01*
X92804377Y-57297719D01*
X92802710Y-57253433D01*
X92807884Y-57178070D01*
X92811097Y-57164419D01*
X93015107Y-57164419D01*
X93017981Y-57171043D01*
X93026636Y-57175681D01*
X93042342Y-57178684D01*
X93066369Y-57180401D01*
X93099987Y-57181183D01*
X93144467Y-57181378D01*
X93201078Y-57181338D01*
X93217943Y-57181332D01*
X93276195Y-57181278D01*
X93322152Y-57181062D01*
X93357253Y-57180601D01*
X93382934Y-57179813D01*
X93400635Y-57178617D01*
X93411794Y-57176929D01*
X93417850Y-57174669D01*
X93420239Y-57171753D01*
X93420512Y-57169767D01*
X93415552Y-57148591D01*
X93402196Y-57122456D01*
X93382726Y-57095034D01*
X93359423Y-57070002D01*
X93357390Y-57068147D01*
X93316763Y-57039291D01*
X93271771Y-57022537D01*
X93220645Y-57017318D01*
X93201181Y-57018096D01*
X93148459Y-57027748D01*
X93102064Y-57048088D01*
X93063616Y-57078074D01*
X93034739Y-57116662D01*
X93028466Y-57129138D01*
X93021619Y-57143816D01*
X93016743Y-57155460D01*
X93015107Y-57164419D01*
X92811097Y-57164419D01*
X92823786Y-57110500D01*
X92850982Y-57049274D01*
X92890038Y-56992944D01*
X92915808Y-56964511D01*
X92970638Y-56917340D01*
X93030859Y-56882215D01*
X93097315Y-56858802D01*
X93170854Y-56846765D01*
X93217943Y-56844863D01*
X93292423Y-56849679D01*
G37*
G36*
X92438960Y-56848576D02*
G01*
X92470137Y-56849655D01*
X92494217Y-56851895D01*
X92514514Y-56855657D01*
X92534342Y-56861305D01*
X92542879Y-56864170D01*
X92586142Y-56882574D01*
X92629139Y-56906917D01*
X92667086Y-56934228D01*
X92689980Y-56955545D01*
X92705267Y-56973560D01*
X92721068Y-56994382D01*
X92734975Y-57014549D01*
X92744583Y-57030595D01*
X92747573Y-57038457D01*
X92742056Y-57043353D01*
X92727293Y-57053432D01*
X92705967Y-57067070D01*
X92680763Y-57082645D01*
X92654364Y-57098534D01*
X92629453Y-57113114D01*
X92608714Y-57124764D01*
X92594829Y-57131860D01*
X92590782Y-57133262D01*
X92584326Y-57128438D01*
X92571793Y-57115793D01*
X92555895Y-57098062D01*
X92555852Y-57098013D01*
X92519181Y-57064058D01*
X92487185Y-57044993D01*
X92439008Y-57029868D01*
X92387289Y-57026264D01*
X92335204Y-57033726D01*
X92285931Y-57051796D01*
X92242648Y-57080019D01*
X92242553Y-57080099D01*
X92214675Y-57112053D01*
X92193729Y-57153205D01*
X92180228Y-57200612D01*
X92174683Y-57251332D01*
X92177607Y-57302421D01*
X92189513Y-57350938D01*
X92193572Y-57361415D01*
X92212104Y-57392882D01*
X92239750Y-57424061D01*
X92272457Y-57450758D01*
X92290500Y-57461679D01*
X92308377Y-57470327D01*
X92324939Y-57475756D01*
X92344287Y-57478694D01*
X92370517Y-57479868D01*
X92393937Y-57480029D01*
X92426485Y-57479699D01*
X92449404Y-57478176D01*
X92466793Y-57474670D01*
X92482751Y-57468392D01*
X92499222Y-57459751D01*
X92532156Y-57438267D01*
X92558035Y-57412753D01*
X92576057Y-57388083D01*
X92586508Y-57372233D01*
X92665324Y-57418242D01*
X92694640Y-57435423D01*
X92719408Y-57450065D01*
X92737352Y-57460814D01*
X92746195Y-57466314D01*
X92746691Y-57466683D01*
X92745698Y-57474444D01*
X92737574Y-57489742D01*
X92724256Y-57509796D01*
X92707679Y-57531828D01*
X92689779Y-57553060D01*
X92677642Y-57565815D01*
X92629121Y-57604324D01*
X92571554Y-57634247D01*
X92506991Y-57655089D01*
X92437484Y-57666355D01*
X92365085Y-57667550D01*
X92293639Y-57658539D01*
X92222206Y-57637775D01*
X92156963Y-57605776D01*
X92099129Y-57563672D01*
X92049924Y-57512591D01*
X92010566Y-57453664D01*
X91982275Y-57388019D01*
X91975190Y-57363574D01*
X91968933Y-57327477D01*
X91965619Y-57283244D01*
X91965245Y-57235929D01*
X91967810Y-57190584D01*
X91973312Y-57152263D01*
X91975262Y-57143924D01*
X91999155Y-57078762D01*
X92034862Y-57018677D01*
X92080951Y-56965135D01*
X92135986Y-56919602D01*
X92198533Y-56883543D01*
X92249736Y-56863526D01*
X92271979Y-56857168D01*
X92293768Y-56852819D01*
X92318526Y-56850127D01*
X92349679Y-56848740D01*
X92390650Y-56848302D01*
X92397370Y-56848296D01*
X92438960Y-56848576D01*
G37*
G36*
X85492902Y-57121248D02*
G01*
X85517307Y-57178498D01*
X85540167Y-57231842D01*
X85560903Y-57279951D01*
X85578935Y-57321492D01*
X85593684Y-57355135D01*
X85604571Y-57379548D01*
X85611017Y-57393401D01*
X85612480Y-57396060D01*
X85616131Y-57391091D01*
X85624541Y-57374732D01*
X85637135Y-57348244D01*
X85653338Y-57312894D01*
X85672575Y-57269944D01*
X85694272Y-57220658D01*
X85717854Y-57166300D01*
X85732706Y-57131691D01*
X85757233Y-57074446D01*
X85780207Y-57021100D01*
X85801047Y-56972983D01*
X85819171Y-56931424D01*
X85833998Y-56897753D01*
X85844947Y-56873299D01*
X85851437Y-56859392D01*
X85852922Y-56856689D01*
X85861217Y-56854917D01*
X85880664Y-56853661D01*
X85908687Y-56853004D01*
X85942713Y-56853033D01*
X85957487Y-56853256D01*
X86057088Y-56855163D01*
X85857236Y-57315233D01*
X85814391Y-57413511D01*
X85775406Y-57502209D01*
X85740467Y-57580917D01*
X85709762Y-57649225D01*
X85683478Y-57706721D01*
X85661800Y-57752997D01*
X85644917Y-57787640D01*
X85633014Y-57810242D01*
X85628607Y-57817466D01*
X85590001Y-57865985D01*
X85547774Y-57902597D01*
X85500170Y-57928187D01*
X85445433Y-57943643D01*
X85381807Y-57949849D01*
X85365848Y-57950062D01*
X85324473Y-57948305D01*
X85288598Y-57942217D01*
X85256847Y-57932808D01*
X85231328Y-57922826D01*
X85204696Y-57910328D01*
X85179959Y-57897002D01*
X85160128Y-57884538D01*
X85148212Y-57874625D01*
X85146113Y-57870662D01*
X85149236Y-57863121D01*
X85157522Y-57846622D01*
X85169351Y-57824147D01*
X85183102Y-57798677D01*
X85197152Y-57773195D01*
X85209881Y-57750682D01*
X85219668Y-57734120D01*
X85223768Y-57727843D01*
X85230304Y-57720330D01*
X85237057Y-57719506D01*
X85248095Y-57726071D01*
X85258403Y-57733798D01*
X85301701Y-57758736D01*
X85348990Y-57770535D01*
X85367118Y-57771569D01*
X85402836Y-57768618D01*
X85430370Y-57757967D01*
X85452662Y-57739323D01*
X85464723Y-57723791D01*
X85478144Y-57702790D01*
X85490587Y-57680505D01*
X85499713Y-57661118D01*
X85503183Y-57648946D01*
X85500504Y-57641634D01*
X85492781Y-57622843D01*
X85480487Y-57593672D01*
X85464093Y-57555219D01*
X85444070Y-57508582D01*
X85420891Y-57454860D01*
X85395026Y-57395150D01*
X85366949Y-57330553D01*
X85337130Y-57262165D01*
X85334261Y-57255598D01*
X85304223Y-57186824D01*
X85275782Y-57121686D01*
X85249419Y-57061292D01*
X85225618Y-57006747D01*
X85204862Y-56959158D01*
X85187633Y-56919631D01*
X85174413Y-56889274D01*
X85165686Y-56869193D01*
X85161933Y-56860494D01*
X85161858Y-56860313D01*
X85163525Y-56856966D01*
X85172654Y-56854555D01*
X85190743Y-56852961D01*
X85219294Y-56852062D01*
X85259806Y-56851737D01*
X85268338Y-56851730D01*
X85378298Y-56851730D01*
X85492902Y-57121248D01*
G37*
G36*
X89758775Y-56848785D02*
G01*
X89834703Y-56860053D01*
X89902949Y-56878178D01*
X89916205Y-56882894D01*
X89947363Y-56894636D01*
X89968269Y-56904200D01*
X89979664Y-56914110D01*
X89982292Y-56926888D01*
X89976894Y-56945058D01*
X89964213Y-56971143D01*
X89950072Y-56997982D01*
X89934670Y-57027164D01*
X89921736Y-57051561D01*
X89912526Y-57068811D01*
X89908295Y-57076554D01*
X89908180Y-57076734D01*
X89901795Y-57074956D01*
X89886242Y-57068561D01*
X89864734Y-57058880D01*
X89862107Y-57057655D01*
X89815594Y-57039570D01*
X89766679Y-57027022D01*
X89717428Y-57019924D01*
X89669907Y-57018189D01*
X89626181Y-57021729D01*
X89588315Y-57030459D01*
X89558375Y-57044290D01*
X89538426Y-57063136D01*
X89533940Y-57071483D01*
X89529383Y-57096283D01*
X89537741Y-57117775D01*
X89559140Y-57136064D01*
X89593706Y-57151255D01*
X89641565Y-57163454D01*
X89645083Y-57164135D01*
X89674914Y-57169827D01*
X89711998Y-57176918D01*
X89750102Y-57184215D01*
X89765433Y-57187155D01*
X89833029Y-57204141D01*
X89890504Y-57227001D01*
X89937161Y-57255275D01*
X89972301Y-57288506D01*
X89995227Y-57326234D01*
X90000641Y-57341829D01*
X90006667Y-57378183D01*
X90007187Y-57419991D01*
X90002616Y-57461923D01*
X89993368Y-57498653D01*
X89987311Y-57513025D01*
X89958280Y-57555690D01*
X89917634Y-57593182D01*
X89866865Y-57624430D01*
X89807466Y-57648364D01*
X89792558Y-57652772D01*
X89762607Y-57658569D01*
X89722808Y-57662758D01*
X89676960Y-57665263D01*
X89628862Y-57666004D01*
X89582315Y-57664904D01*
X89541117Y-57661884D01*
X89516781Y-57658454D01*
X89453087Y-57643281D01*
X89391417Y-57622250D01*
X89337129Y-57597236D01*
X89329324Y-57592896D01*
X89292935Y-57572070D01*
X89335230Y-57491695D01*
X89377526Y-57411319D01*
X89429987Y-57437145D01*
X89506090Y-57467818D01*
X89583633Y-57485257D01*
X89656930Y-57490033D01*
X89709366Y-57487485D01*
X89749379Y-57480193D01*
X89777534Y-57467875D01*
X89794396Y-57450254D01*
X89800531Y-57427047D01*
X89800362Y-57418928D01*
X89796657Y-57398672D01*
X89786988Y-57385747D01*
X89776972Y-57379025D01*
X89769078Y-57374850D01*
X89759610Y-57370999D01*
X89746866Y-57367085D01*
X89729144Y-57362725D01*
X89704744Y-57357533D01*
X89671964Y-57351124D01*
X89629103Y-57343112D01*
X89574458Y-57333113D01*
X89572981Y-57332844D01*
X89502628Y-57315876D01*
X89443409Y-57292712D01*
X89395716Y-57263592D01*
X89359944Y-57228752D01*
X89337416Y-57190705D01*
X89326390Y-57150876D01*
X89322687Y-57105311D01*
X89326562Y-57060051D01*
X89331083Y-57040568D01*
X89353184Y-56987703D01*
X89386238Y-56942855D01*
X89429917Y-56906209D01*
X89483891Y-56877950D01*
X89547833Y-56858261D01*
X89621414Y-56847328D01*
X89678966Y-56844982D01*
X89758775Y-56848785D01*
G37*
G36*
X87529443Y-56848546D02*
G01*
X87565340Y-56854479D01*
X87631488Y-56875487D01*
X87687091Y-56905098D01*
X87732530Y-56943591D01*
X87768186Y-56991246D01*
X87779300Y-57011919D01*
X87788571Y-57032013D01*
X87796228Y-57051832D01*
X87802409Y-57072877D01*
X87807251Y-57096645D01*
X87810893Y-57124637D01*
X87813472Y-57158349D01*
X87815126Y-57199281D01*
X87815993Y-57248933D01*
X87816212Y-57308802D01*
X87815919Y-57380387D01*
X87815725Y-57407934D01*
X87813834Y-57658569D01*
X87716349Y-57660472D01*
X87618863Y-57662375D01*
X87616781Y-57628117D01*
X87614699Y-57593858D01*
X87584841Y-57613956D01*
X87543994Y-57637480D01*
X87501302Y-57653301D01*
X87452832Y-57662559D01*
X87405264Y-57666082D01*
X87353548Y-57666138D01*
X87309988Y-57662496D01*
X87291289Y-57659121D01*
X87230766Y-57639478D01*
X87178841Y-57610490D01*
X87136572Y-57572895D01*
X87106537Y-57530271D01*
X87091551Y-57491273D01*
X87083631Y-57445052D01*
X87083227Y-57403999D01*
X87289858Y-57403999D01*
X87291023Y-57433600D01*
X87298182Y-57454747D01*
X87317164Y-57477346D01*
X87346028Y-57494056D01*
X87382050Y-57504441D01*
X87422508Y-57508065D01*
X87464680Y-57504494D01*
X87505841Y-57493290D01*
X87515132Y-57489476D01*
X87555468Y-57466321D01*
X87583476Y-57437520D01*
X87599621Y-57402414D01*
X87604399Y-57363641D01*
X87604399Y-57325533D01*
X87492815Y-57325572D01*
X87440970Y-57326079D01*
X87400733Y-57327791D01*
X87370007Y-57331051D01*
X87346695Y-57336205D01*
X87328697Y-57343595D01*
X87313917Y-57353568D01*
X87311899Y-57355263D01*
X87297047Y-57376218D01*
X87289858Y-57403999D01*
X87083227Y-57403999D01*
X87083152Y-57396380D01*
X87090486Y-57350027D01*
X87091989Y-57344572D01*
X87108694Y-57307242D01*
X87135339Y-57270778D01*
X87168494Y-57239175D01*
X87200125Y-57218662D01*
X87225819Y-57206576D01*
X87251014Y-57197142D01*
X87278029Y-57189981D01*
X87309185Y-57184713D01*
X87346803Y-57180959D01*
X87393201Y-57178338D01*
X87450701Y-57176471D01*
X87459297Y-57176260D01*
X87606031Y-57172750D01*
X87601709Y-57141219D01*
X87589795Y-57101150D01*
X87566558Y-57068412D01*
X87532959Y-57044334D01*
X87531134Y-57043434D01*
X87496489Y-57031879D01*
X87453267Y-57025378D01*
X87405751Y-57024158D01*
X87358221Y-57028449D01*
X87334880Y-57032943D01*
X87303443Y-57042058D01*
X87270579Y-57054463D01*
X87239942Y-57068481D01*
X87215188Y-57082435D01*
X87199971Y-57094650D01*
X87199728Y-57094938D01*
X87190516Y-57103784D01*
X87186405Y-57105709D01*
X87181791Y-57099942D01*
X87172241Y-57084234D01*
X87159077Y-57060873D01*
X87143620Y-57032142D01*
X87140925Y-57027015D01*
X87124175Y-56994820D01*
X87113166Y-56972553D01*
X87107215Y-56958002D01*
X87105639Y-56948958D01*
X87107756Y-56943210D01*
X87112882Y-56938547D01*
X87113459Y-56938112D01*
X87145919Y-56917601D01*
X87187686Y-56897032D01*
X87234485Y-56878376D01*
X87264681Y-56868474D01*
X87311291Y-56857621D01*
X87365293Y-56850006D01*
X87422467Y-56845823D01*
X87478591Y-56845271D01*
X87529443Y-56848546D01*
G37*
G36*
X91519136Y-56849376D02*
G01*
X91543976Y-56850870D01*
X91563865Y-56853545D01*
X91581727Y-56857690D01*
X91600489Y-56863593D01*
X91603283Y-56864551D01*
X91664623Y-56891808D01*
X91715545Y-56927842D01*
X91756593Y-56973162D01*
X91788313Y-57028274D01*
X91794333Y-57042355D01*
X91798210Y-57052292D01*
X91801411Y-57062003D01*
X91804012Y-57072877D01*
X91806088Y-57086304D01*
X91807714Y-57103673D01*
X91808968Y-57126374D01*
X91809923Y-57155797D01*
X91810657Y-57193330D01*
X91811245Y-57240364D01*
X91811762Y-57298287D01*
X91812285Y-57368490D01*
X91812311Y-57372074D01*
X91814390Y-57662384D01*
X91716194Y-57660477D01*
X91617998Y-57658569D01*
X91615933Y-57626651D01*
X91613869Y-57594732D01*
X91579355Y-57617958D01*
X91553027Y-57633307D01*
X91523968Y-57646815D01*
X91509319Y-57652132D01*
X91481687Y-57658088D01*
X91444889Y-57662541D01*
X91403428Y-57665292D01*
X91361811Y-57666144D01*
X91324542Y-57664899D01*
X91296714Y-57661482D01*
X91244198Y-57645266D01*
X91195192Y-57619849D01*
X91152349Y-57587183D01*
X91118318Y-57549222D01*
X91098954Y-57515754D01*
X91087409Y-57476909D01*
X91082532Y-57431186D01*
X91082746Y-57425815D01*
X91288996Y-57425815D01*
X91298779Y-57453588D01*
X91319147Y-57477758D01*
X91349579Y-57496100D01*
X91365448Y-57501590D01*
X91405656Y-57507637D01*
X91450971Y-57505938D01*
X91495392Y-57496823D01*
X91504291Y-57493911D01*
X91547011Y-57472940D01*
X91578822Y-57444366D01*
X91599173Y-57408906D01*
X91607514Y-57367275D01*
X91607697Y-57359606D01*
X91607697Y-57324463D01*
X91477713Y-57326715D01*
X91431815Y-57327623D01*
X91397540Y-57328684D01*
X91372777Y-57330132D01*
X91355416Y-57332198D01*
X91343346Y-57335115D01*
X91334457Y-57339114D01*
X91328362Y-57343143D01*
X91303266Y-57368367D01*
X91290318Y-57396666D01*
X91288996Y-57425815D01*
X91082746Y-57425815D01*
X91084422Y-57383768D01*
X91093179Y-57339835D01*
X91095456Y-57332801D01*
X91114660Y-57295341D01*
X91144209Y-57259917D01*
X91180797Y-57230044D01*
X91205426Y-57215921D01*
X91230658Y-57204716D01*
X91256001Y-57195950D01*
X91283742Y-57189268D01*
X91316163Y-57184320D01*
X91355549Y-57180754D01*
X91404184Y-57178217D01*
X91461780Y-57176422D01*
X91514070Y-57174882D01*
X91553681Y-57173148D01*
X91581666Y-57171133D01*
X91599077Y-57168753D01*
X91606969Y-57165922D01*
X91607697Y-57164570D01*
X91604148Y-57142759D01*
X91595112Y-57116218D01*
X91583007Y-57090748D01*
X91570251Y-57072147D01*
X91568375Y-57070255D01*
X91547866Y-57052709D01*
X91528129Y-57040569D01*
X91505951Y-57032912D01*
X91478121Y-57028817D01*
X91441426Y-57027360D01*
X91418863Y-57027332D01*
X91365306Y-57029426D01*
X91321187Y-57035692D01*
X91282564Y-57047197D01*
X91245496Y-57065008D01*
X91218863Y-57081467D01*
X91183665Y-57104807D01*
X91141730Y-57028052D01*
X91099796Y-56951297D01*
X91118562Y-56935618D01*
X91144468Y-56918064D01*
X91180002Y-56899668D01*
X91221308Y-56882183D01*
X91264527Y-56867363D01*
X91276063Y-56864035D01*
X91299909Y-56858120D01*
X91323684Y-56853939D01*
X91350577Y-56851201D01*
X91383779Y-56849614D01*
X91426482Y-56848885D01*
X91442896Y-56848785D01*
X91486418Y-56848777D01*
X91519136Y-56849376D01*
G37*
%TD*%
D13*
%TO.C,U9*%
X64300000Y-34350000D03*
X64300000Y-35150000D03*
X65700000Y-35150000D03*
X65700000Y-34350000D03*
%TD*%
D14*
%TO.C,R2*%
X86187500Y-28510000D03*
X86187500Y-27490000D03*
%TD*%
D15*
%TO.C,C34*%
X63150000Y-26980000D03*
X63150000Y-26020000D03*
%TD*%
D16*
%TO.C,C11*%
X57350000Y-49500000D03*
X55800000Y-49500000D03*
%TD*%
D17*
%TO.C,R34*%
X66190000Y-37750000D03*
X67210000Y-37750000D03*
%TD*%
%TO.C,R16*%
X68740000Y-62250000D03*
X69760000Y-62250000D03*
%TD*%
D18*
%TO.C,USB_STM32*%
X47550000Y-67525000D03*
X48350000Y-67525000D03*
D19*
X49500000Y-67525000D03*
X50500000Y-67525000D03*
X51000000Y-67525000D03*
X52000000Y-67525000D03*
D18*
X53150000Y-67525000D03*
X53950000Y-67525000D03*
X53950000Y-67525000D03*
X53150000Y-67525000D03*
D19*
X52500000Y-67525000D03*
X51500000Y-67525000D03*
X50000000Y-67525000D03*
X49000000Y-67525000D03*
D18*
X48350000Y-67525000D03*
X47550000Y-67525000D03*
D20*
X46430000Y-68125000D03*
D21*
X46430000Y-72325000D03*
D20*
X55070000Y-68125000D03*
D21*
X55070000Y-72325000D03*
%TD*%
D22*
%TO.C,RFM95*%
X43000000Y-49725000D03*
X41000000Y-49725000D03*
X39000000Y-49725000D03*
X37000000Y-49725000D03*
X35000000Y-49725000D03*
X33000000Y-49725000D03*
X31000000Y-49725000D03*
X29000000Y-49725000D03*
X29000000Y-64775000D03*
X31000000Y-64775000D03*
X33000000Y-64775000D03*
X35000000Y-64775000D03*
X37000000Y-64775000D03*
X39000000Y-64775000D03*
X41000000Y-64775000D03*
X43000000Y-64775000D03*
%TD*%
D17*
%TO.C,R60*%
X46490000Y-57500000D03*
X47510000Y-57500000D03*
%TD*%
D23*
%TO.C,C32*%
X55900000Y-22550000D03*
X55900000Y-24450000D03*
%TD*%
D24*
%TO.C,BT1*%
X88400000Y-34100000D03*
%TD*%
D25*
%TO.C,C46*%
X47480000Y-55500000D03*
X46520000Y-55500000D03*
%TD*%
D26*
%TO.C,U13*%
X49000000Y-55837500D03*
D27*
X48862500Y-56750000D03*
X48862500Y-57250000D03*
X48862500Y-57750000D03*
X48862500Y-58250000D03*
D26*
X49000000Y-59162500D03*
X49500000Y-59162500D03*
X50000000Y-59162500D03*
X50500000Y-59162500D03*
X51000000Y-59162500D03*
X51500000Y-59162500D03*
X52000000Y-59162500D03*
X52500000Y-59162500D03*
X53000000Y-59162500D03*
X53500000Y-59162500D03*
D27*
X53637500Y-58250000D03*
X53637500Y-57750000D03*
X53637500Y-57250000D03*
X53637500Y-56750000D03*
D26*
X53500000Y-55837500D03*
X53000000Y-55837500D03*
X52500000Y-55837500D03*
X52000000Y-55837500D03*
X51500000Y-55837500D03*
X51000000Y-55837500D03*
X50500000Y-55837500D03*
X50000000Y-55837500D03*
X49500000Y-55837500D03*
%TD*%
D28*
%TO.C,R27*%
X96397500Y-47000000D03*
X95377500Y-47000000D03*
%TD*%
D29*
%TO.C,C45*%
X54050000Y-54262500D03*
X54050000Y-52712500D03*
%TD*%
D23*
%TO.C,C41*%
X49750000Y-18050000D03*
X49750000Y-19950000D03*
%TD*%
D25*
%TO.C,C18*%
X73980000Y-56250000D03*
X73020000Y-56250000D03*
%TD*%
D30*
%TO.C,UART1-RFD-STM1*%
X20000000Y-27900000D03*
X20000000Y-28900000D03*
X20000000Y-29900000D03*
X20000000Y-30900000D03*
D31*
X16125000Y-26600000D03*
X16125000Y-32200000D03*
%TD*%
D23*
%TO.C,C36*%
X64390000Y-17560000D03*
X64390000Y-19460000D03*
%TD*%
D32*
%TO.C,ESP_B0*%
X110912497Y-29549848D03*
X110912497Y-26549848D03*
X110912497Y-25049975D03*
D33*
X111887605Y-31049975D03*
X114087503Y-31049975D03*
X111887605Y-23450025D03*
X114087503Y-23450025D03*
%TD*%
D14*
%TO.C,R15*%
X77250000Y-48800000D03*
X77250000Y-49820000D03*
%TD*%
D34*
%TO.C,U1*%
X49800000Y-65387500D03*
X50750000Y-65387500D03*
X51700000Y-65387500D03*
X51700000Y-63112500D03*
X50750000Y-63112500D03*
X49800000Y-63112500D03*
%TD*%
D35*
%TO.C,ESPRGB1*%
X81700000Y-65165000D03*
X82800000Y-65165000D03*
X82800000Y-63335000D03*
X81700000Y-63335000D03*
%TD*%
D36*
%TO.C,R12*%
X110500000Y-30925000D03*
X110500000Y-32575000D03*
%TD*%
D37*
%TO.C,C12*%
X63750000Y-64020000D03*
X63750000Y-64980000D03*
%TD*%
D17*
%TO.C,R11*%
X77775000Y-29375000D03*
X78795000Y-29375000D03*
%TD*%
D37*
%TO.C,C16*%
X71900000Y-58270000D03*
X71900000Y-59230000D03*
%TD*%
D23*
%TO.C,C33*%
X57900000Y-22550000D03*
X57900000Y-24450000D03*
%TD*%
D38*
%TO.C,RST_BOOT_ESP1*%
X67750000Y-70000000D03*
X68750000Y-70000000D03*
X69750000Y-70000000D03*
X70750000Y-70000000D03*
D39*
X66450000Y-73875000D03*
X72050000Y-73875000D03*
%TD*%
D25*
%TO.C,C7*%
X62130000Y-52400000D03*
X61170000Y-52400000D03*
%TD*%
D17*
%TO.C,R42*%
X47740000Y-33875000D03*
X48760000Y-33875000D03*
%TD*%
D40*
%TO.C,U10*%
X61850000Y-22790000D03*
X60900000Y-22790000D03*
X59950000Y-22790000D03*
X59950000Y-26210000D03*
X60900000Y-26210000D03*
X61850000Y-26210000D03*
%TD*%
D41*
%TO.C,R7*%
X56585000Y-68125000D03*
X56585000Y-67105000D03*
%TD*%
D18*
%TO.C,USB_ESP32*%
X76050000Y-67525000D03*
X76850000Y-67525000D03*
D19*
X78000000Y-67525000D03*
X79000000Y-67525000D03*
X79500000Y-67525000D03*
X80500000Y-67525000D03*
D18*
X81650000Y-67525000D03*
X82450000Y-67525000D03*
X82450000Y-67525000D03*
X81650000Y-67525000D03*
D19*
X81000000Y-67525000D03*
X80000000Y-67525000D03*
X78500000Y-67525000D03*
X77500000Y-67525000D03*
D18*
X76850000Y-67525000D03*
X76050000Y-67525000D03*
D20*
X74930000Y-68125000D03*
D21*
X74930000Y-72325000D03*
D20*
X83570000Y-68125000D03*
D21*
X83570000Y-72325000D03*
%TD*%
D42*
%TO.C,U14*%
X70665000Y-26050021D03*
D43*
X69874999Y-27999979D03*
X71455001Y-27999979D03*
D44*
X70665000Y-28152000D03*
%TD*%
D45*
%TO.C,H1*%
X16600000Y-19000000D03*
X17302944Y-17302944D03*
X17302944Y-20697056D03*
X19000000Y-16600000D03*
D46*
X19000000Y-19000000D03*
D45*
X19000000Y-21400000D03*
X20697056Y-17302944D03*
X20697056Y-20697056D03*
X21400000Y-19000000D03*
%TD*%
D47*
%TO.C,ANT1*%
X29000000Y-71000000D03*
D48*
X31540000Y-73540000D03*
X31540000Y-68460000D03*
X26460000Y-73540000D03*
X26460000Y-68460000D03*
%TD*%
D49*
%TO.C,D5*%
X101287500Y-42500000D03*
X99712500Y-42500000D03*
%TD*%
D38*
%TO.C,RST_BOOT_STM1*%
X59250000Y-70000000D03*
X60250000Y-70000000D03*
X61250000Y-70000000D03*
X62250000Y-70000000D03*
D39*
X57950000Y-73875000D03*
X63550000Y-73875000D03*
%TD*%
D50*
%TO.C,SD1*%
X98075000Y-70750000D03*
X96975000Y-70750000D03*
X95875000Y-70750000D03*
X94775000Y-70750000D03*
X93675000Y-70750000D03*
X92575000Y-70750000D03*
X91475000Y-70750000D03*
X90375000Y-70750000D03*
D51*
X101750000Y-73350000D03*
X101750000Y-65050000D03*
X88000000Y-73350000D03*
X88000000Y-65050000D03*
%TD*%
D25*
%TO.C,C9*%
X53480000Y-46000000D03*
X52520000Y-46000000D03*
%TD*%
D52*
%TO.C,D2*%
X88812500Y-26050000D03*
X88812500Y-23950000D03*
%TD*%
D53*
%TO.C,R46*%
X81800000Y-16625000D03*
X83450000Y-16625000D03*
%TD*%
D29*
%TO.C,C2*%
X72500000Y-41525000D03*
X72500000Y-39975000D03*
%TD*%
D54*
%TO.C,FB1*%
X57560000Y-47250000D03*
X56590000Y-47250000D03*
%TD*%
D17*
%TO.C,R59*%
X46490000Y-59500000D03*
X47510000Y-59500000D03*
%TD*%
D30*
%TO.C,I2C-ESP1*%
X20000000Y-59100000D03*
X20000000Y-60100000D03*
X20000000Y-61100000D03*
X20000000Y-62100000D03*
D31*
X16125000Y-57800000D03*
X16125000Y-63400000D03*
%TD*%
D49*
%TO.C,LED1*%
X86412500Y-18125000D03*
X84837500Y-18125000D03*
%TD*%
D14*
%TO.C,R57*%
X55000000Y-58240000D03*
X55000000Y-59260000D03*
%TD*%
D17*
%TO.C,R28*%
X101102500Y-47000000D03*
X102122500Y-47000000D03*
%TD*%
D25*
%TO.C,C47*%
X47480000Y-56500000D03*
X46520000Y-56500000D03*
%TD*%
D17*
%TO.C,R58*%
X46490000Y-58500000D03*
X47510000Y-58500000D03*
%TD*%
D42*
%TO.C,U12*%
X73205000Y-26050021D03*
D43*
X72414999Y-27999979D03*
X73995001Y-27999979D03*
D44*
X73205000Y-28152000D03*
%TD*%
D28*
%TO.C,R56*%
X53760000Y-60400000D03*
X52740000Y-60400000D03*
%TD*%
D25*
%TO.C,C10*%
X57555000Y-48250000D03*
X56595000Y-48250000D03*
%TD*%
D17*
%TO.C,R1*%
X65740000Y-52200000D03*
X66760000Y-52200000D03*
%TD*%
%TO.C,R29*%
X21740000Y-49800000D03*
X22760000Y-49800000D03*
%TD*%
D55*
%TO.C,STM_RST1*%
X59050000Y-64500000D03*
X62450000Y-64500000D03*
%TD*%
D45*
%TO.C,H3*%
X108600000Y-71000000D03*
X109302944Y-69302944D03*
X109302944Y-72697056D03*
X111000000Y-68600000D03*
D46*
X111000000Y-71000000D03*
D45*
X111000000Y-73400000D03*
X112697056Y-69302944D03*
X112697056Y-72697056D03*
X113400000Y-71000000D03*
%TD*%
%TO.C,H2*%
X16600000Y-71000000D03*
X17302944Y-69302944D03*
X17302944Y-72697056D03*
X19000000Y-68600000D03*
D46*
X19000000Y-71000000D03*
D45*
X19000000Y-73400000D03*
X20697056Y-69302944D03*
X20697056Y-72697056D03*
X21400000Y-71000000D03*
%TD*%
D17*
%TO.C,R8*%
X70155000Y-29375000D03*
X71175000Y-29375000D03*
%TD*%
D15*
%TO.C,C31*%
X66700000Y-35230000D03*
X66700000Y-34270000D03*
%TD*%
D55*
%TO.C,ESP_RST1*%
X67550000Y-64500000D03*
X70950000Y-64500000D03*
%TD*%
D17*
%TO.C,R30*%
X21740000Y-55800000D03*
X22760000Y-55800000D03*
%TD*%
D56*
%TO.C,U4*%
X44025000Y-41525000D03*
X44675000Y-41525000D03*
X45325000Y-41525000D03*
X45975000Y-41525000D03*
X45975000Y-42975000D03*
X45325000Y-42975000D03*
X44675000Y-42975000D03*
X44025000Y-42975000D03*
%TD*%
D57*
%TO.C,ESPBOOT0*%
X112200050Y-32500000D03*
X113775050Y-32500000D03*
%TD*%
D41*
%TO.C,R24*%
X88812500Y-28510000D03*
X88812500Y-27490000D03*
%TD*%
D58*
%TO.C,R41*%
X37250000Y-31900000D03*
X37250000Y-30250000D03*
%TD*%
D28*
%TO.C,R36*%
X60900000Y-29260000D03*
X59880000Y-29260000D03*
%TD*%
D59*
%TO.C,R50*%
X98075000Y-39500000D03*
X96425000Y-39500000D03*
%TD*%
D41*
%TO.C,R20*%
X85080000Y-68125000D03*
X85080000Y-67105000D03*
%TD*%
D17*
%TO.C,R32*%
X21740000Y-63600000D03*
X22760000Y-63600000D03*
%TD*%
D60*
%TO.C,XT30*%
X26750000Y-16175000D03*
X37750000Y-16175000D03*
D61*
X34750000Y-26175000D03*
D62*
X29750000Y-26175000D03*
%TD*%
D28*
%TO.C,R39*%
X46510000Y-29260000D03*
X45490000Y-29260000D03*
%TD*%
D15*
%TO.C,C20*%
X42750000Y-42455000D03*
X42750000Y-41495000D03*
%TD*%
D63*
%TO.C,Q6*%
X32200000Y-34812500D03*
X30300000Y-34812500D03*
X31250000Y-36687500D03*
%TD*%
D64*
%TO.C,U6*%
X34837500Y-41500000D03*
X34837500Y-42000000D03*
X34837500Y-42500000D03*
X34837500Y-43000000D03*
D65*
X35500000Y-43162500D03*
X36000000Y-43162500D03*
X36500000Y-43162500D03*
D64*
X37162500Y-43000000D03*
X37162500Y-42500000D03*
X37162500Y-42000000D03*
X37162500Y-41500000D03*
D65*
X36500000Y-41337500D03*
X36000000Y-41337500D03*
X35500000Y-41337500D03*
%TD*%
D49*
%TO.C,D7*%
X101287500Y-39500000D03*
X99712500Y-39500000D03*
%TD*%
D14*
%TO.C,R14*%
X76250000Y-48800000D03*
X76250000Y-49820000D03*
%TD*%
D66*
%TO.C,C22*%
X103020000Y-18750000D03*
X103980000Y-18750000D03*
%TD*%
D36*
%TO.C,R23*%
X107500000Y-21925000D03*
X107500000Y-23575000D03*
%TD*%
D23*
%TO.C,C40*%
X51750000Y-18050000D03*
X51750000Y-19950000D03*
%TD*%
D67*
%TO.C,PWM1*%
X110730000Y-65290000D03*
D68*
X108190000Y-65290000D03*
X105650000Y-65290000D03*
X110730000Y-62750000D03*
X108190000Y-62750000D03*
X105650000Y-62750000D03*
X110730000Y-60210000D03*
X108190000Y-60210000D03*
X105650000Y-60210000D03*
X110730000Y-57670000D03*
X108190000Y-57670000D03*
X105650000Y-57670000D03*
X110730000Y-55130000D03*
X108190000Y-55130000D03*
X105650000Y-55130000D03*
X110730000Y-52590000D03*
X108190000Y-52590000D03*
X105650000Y-52590000D03*
X110730000Y-50050000D03*
X108190000Y-50050000D03*
X105650000Y-50050000D03*
X110730000Y-47510000D03*
X108190000Y-47510000D03*
X105650000Y-47510000D03*
%TD*%
D69*
%TO.C,C25*%
X97800000Y-59000000D03*
X99700000Y-59000000D03*
%TD*%
D70*
%TO.C,D3*%
X34750000Y-37050000D03*
X34750000Y-33750000D03*
%TD*%
D71*
%TO.C,Q1*%
X84125000Y-29700000D03*
X84125000Y-27800000D03*
X81850000Y-28750000D03*
%TD*%
D72*
%TO.C,HSE1*%
X52150000Y-42150000D03*
X52150000Y-44350000D03*
X53850000Y-44350000D03*
X53850000Y-42150000D03*
%TD*%
D17*
%TO.C,R40*%
X45490000Y-28260000D03*
X46510000Y-28260000D03*
%TD*%
D42*
%TO.C,U3*%
X78285000Y-26050021D03*
D43*
X77494999Y-27999979D03*
X79075001Y-27999979D03*
D44*
X78285000Y-28152000D03*
%TD*%
D58*
%TO.C,R4*%
X110500000Y-43825000D03*
X110500000Y-42175000D03*
%TD*%
D66*
%TO.C,C26*%
X34540000Y-44500000D03*
X35500000Y-44500000D03*
%TD*%
D23*
%TO.C,C37*%
X41500000Y-22600000D03*
X41500000Y-24500000D03*
%TD*%
D30*
%TO.C,UART2-STM1*%
X20000000Y-35700000D03*
X20000000Y-36700000D03*
X20000000Y-37700000D03*
X20000000Y-38700000D03*
D31*
X16125000Y-34400000D03*
X16125000Y-40000000D03*
%TD*%
D34*
%TO.C,U2*%
X78300000Y-65387500D03*
X79250000Y-65387500D03*
X80200000Y-65387500D03*
X80200000Y-63112500D03*
X79250000Y-63112500D03*
X78300000Y-63112500D03*
%TD*%
D73*
%TO.C,C14*%
X72500000Y-63725000D03*
X72500000Y-65275000D03*
%TD*%
D59*
%TO.C,R48*%
X98075000Y-42500000D03*
X96425000Y-42500000D03*
%TD*%
D15*
%TO.C,C42*%
X42250000Y-36230000D03*
X42250000Y-35270000D03*
%TD*%
D49*
%TO.C,STMBOOT0*%
X113775050Y-43750000D03*
X112200050Y-43750000D03*
%TD*%
D17*
%TO.C,R43*%
X47740000Y-34875000D03*
X48760000Y-34875000D03*
%TD*%
D49*
%TO.C,D4*%
X101287500Y-38000000D03*
X99712500Y-38000000D03*
%TD*%
D29*
%TO.C,C44*%
X48450000Y-54262500D03*
X48450000Y-52712500D03*
%TD*%
D42*
%TO.C,U7*%
X75745000Y-26050021D03*
D43*
X74954999Y-27999979D03*
X76535001Y-27999979D03*
D44*
X75745000Y-28152000D03*
%TD*%
D25*
%TO.C,C5*%
X59155000Y-40195000D03*
X58195000Y-40195000D03*
%TD*%
D17*
%TO.C,R9*%
X72695000Y-29375000D03*
X73715000Y-29375000D03*
%TD*%
D74*
%TO.C,U5*%
X73275000Y-57750000D03*
X73275000Y-58250000D03*
X73275000Y-58750000D03*
X73275000Y-59250000D03*
X73275000Y-59750000D03*
D75*
X74000000Y-59975000D03*
X74500000Y-59975000D03*
X75000000Y-59975000D03*
D74*
X75725000Y-59750000D03*
X75725000Y-59250000D03*
X75725000Y-58750000D03*
X75725000Y-58250000D03*
X75725000Y-57750000D03*
D75*
X75000000Y-57525000D03*
X74500000Y-57525000D03*
X74000000Y-57525000D03*
%TD*%
D76*
%TO.C,L1*%
X60900000Y-20350000D03*
X60900000Y-16650000D03*
%TD*%
D77*
%TO.C,Y1*%
X52500000Y-53487500D03*
X50000000Y-53487500D03*
%TD*%
D78*
%TO.C,GPS_IO1*%
X101290000Y-17250000D03*
D79*
X100020000Y-17250000D03*
X98750000Y-17250000D03*
X97480000Y-17250000D03*
X96210000Y-17250000D03*
%TD*%
D80*
%TO.C,RN1*%
X75225000Y-30750000D03*
D81*
X74725000Y-30750000D03*
X74225000Y-30750000D03*
D80*
X73725000Y-30750000D03*
X73725000Y-31750000D03*
D81*
X74225000Y-31750000D03*
X74725000Y-31750000D03*
D80*
X75225000Y-31750000D03*
%TD*%
D41*
%TO.C,R21*%
X107500000Y-29660000D03*
X107500000Y-28640000D03*
%TD*%
D82*
%TO.C,L2*%
X46500000Y-20500000D03*
X46500000Y-17500000D03*
%TD*%
D32*
%TO.C,STM_B0*%
X110912497Y-40799848D03*
X110912497Y-37799848D03*
X110912497Y-36299975D03*
D33*
X111887605Y-42299975D03*
X114087503Y-42299975D03*
X111887605Y-34700025D03*
X114087503Y-34700025D03*
%TD*%
D73*
%TO.C,C13*%
X109000000Y-30975000D03*
X109000000Y-32525000D03*
%TD*%
D59*
%TO.C,R47*%
X98075000Y-38000000D03*
X96425000Y-38000000D03*
%TD*%
D35*
%TO.C,STMRGB1*%
X53200000Y-65165000D03*
X54300000Y-65165000D03*
X54300000Y-63335000D03*
X53200000Y-63335000D03*
%TD*%
D25*
%TO.C,C4*%
X59155000Y-39195000D03*
X58195000Y-39195000D03*
%TD*%
D17*
%TO.C,R33*%
X66190000Y-36750000D03*
X67210000Y-36750000D03*
%TD*%
D83*
%TO.C,U8*%
X57125000Y-33900000D03*
X55875000Y-33900000D03*
X54625000Y-33900000D03*
X53375000Y-33900000D03*
X53375000Y-36100000D03*
X54625000Y-36100000D03*
X55875000Y-36100000D03*
X57125000Y-36100000D03*
%TD*%
D84*
%TO.C,PYRO1*%
X78285000Y-19025000D03*
D85*
X75745000Y-19025000D03*
X73205000Y-19025000D03*
X70665000Y-19025000D03*
%TD*%
D59*
%TO.C,R49*%
X98075000Y-41000000D03*
X96425000Y-41000000D03*
%TD*%
D25*
%TO.C,C27*%
X37460000Y-44500000D03*
X36500000Y-44500000D03*
%TD*%
D86*
%TO.C,INA219*%
X43862500Y-34025000D03*
X43862500Y-34675000D03*
X43862500Y-35325000D03*
X43862500Y-35975000D03*
X46137500Y-35975000D03*
X46137500Y-35325000D03*
X46137500Y-34675000D03*
X46137500Y-34025000D03*
%TD*%
D45*
%TO.C,H4*%
X108600000Y-19000000D03*
X109302944Y-17302944D03*
X109302944Y-20697056D03*
X111000000Y-16600000D03*
D46*
X111000000Y-19000000D03*
D45*
X111000000Y-21400000D03*
X112697056Y-17302944D03*
X112697056Y-20697056D03*
X113400000Y-19000000D03*
%TD*%
D28*
%TO.C,R61*%
X51760000Y-60400000D03*
X50740000Y-60400000D03*
%TD*%
D87*
%TO.C,ESP32-S3*%
X78750000Y-40300000D03*
X78750000Y-41150000D03*
X78750000Y-42000000D03*
X78750000Y-42850000D03*
X78750000Y-43700000D03*
X78750000Y-44550000D03*
X78750000Y-45400000D03*
X78750000Y-46250000D03*
X78750000Y-47100000D03*
X78750000Y-47950000D03*
X78750000Y-48800000D03*
X78750000Y-49650000D03*
X78750000Y-50500000D03*
X78750000Y-51350000D03*
X78750000Y-52200000D03*
D88*
X79800000Y-53250000D03*
X80650000Y-53250000D03*
X81500000Y-53250000D03*
X82350000Y-53250000D03*
X83200000Y-53250000D03*
X84050000Y-53250000D03*
X84900000Y-53250000D03*
X85750000Y-53250000D03*
X86600000Y-53250000D03*
X87450000Y-53250000D03*
X88300000Y-53250000D03*
X89150000Y-53250000D03*
X90000000Y-53250000D03*
X90850000Y-53250000D03*
X91700000Y-53250000D03*
D87*
X92750000Y-52200000D03*
X92750000Y-51350000D03*
X92750000Y-50500000D03*
X92750000Y-49650000D03*
X92750000Y-48800000D03*
X92750000Y-47950000D03*
X92750000Y-47100000D03*
X92750000Y-46250000D03*
X92750000Y-45400000D03*
X92750000Y-44550000D03*
X92750000Y-43700000D03*
X92750000Y-42850000D03*
X92750000Y-42000000D03*
X92750000Y-41150000D03*
X92750000Y-40300000D03*
D88*
X91700000Y-39250000D03*
X90850000Y-39250000D03*
X90000000Y-39250000D03*
X89150000Y-39250000D03*
X88300000Y-39250000D03*
X87450000Y-39250000D03*
X86600000Y-39250000D03*
X85750000Y-39250000D03*
X84900000Y-39250000D03*
X84050000Y-39250000D03*
X83200000Y-39250000D03*
X82350000Y-39250000D03*
X81500000Y-39250000D03*
X80650000Y-39250000D03*
X79800000Y-39250000D03*
D89*
X84100000Y-44600000D03*
D90*
X84100000Y-46250000D03*
X84100000Y-47900000D03*
X85750000Y-44600000D03*
X85750000Y-46250000D03*
X85750000Y-47900000D03*
X87400000Y-44600000D03*
X87400000Y-46250000D03*
X87400000Y-47900000D03*
D91*
X78750000Y-39250000D03*
X78750000Y-53250000D03*
X92750000Y-53250000D03*
X92750000Y-39250000D03*
%TD*%
D15*
%TO.C,C39*%
X48750000Y-26980000D03*
X48750000Y-26020000D03*
%TD*%
D66*
%TO.C,C6*%
X69845000Y-51000000D03*
X70805000Y-51000000D03*
%TD*%
D92*
%TO.C,RN2*%
X72775000Y-33750000D03*
D13*
X72775000Y-34250000D03*
X72775000Y-34750000D03*
D92*
X72775000Y-35250000D03*
X73775000Y-35250000D03*
D13*
X73775000Y-34750000D03*
X73775000Y-34250000D03*
D92*
X73775000Y-33750000D03*
%TD*%
D30*
%TO.C,I2C-STM1*%
X20000000Y-51300000D03*
X20000000Y-52300000D03*
X20000000Y-53300000D03*
X20000000Y-54300000D03*
D31*
X16125000Y-50000000D03*
X16125000Y-55600000D03*
%TD*%
D41*
%TO.C,R25*%
X61000000Y-60280000D03*
X61000000Y-59260000D03*
%TD*%
D93*
%TO.C,SWD1*%
X37175000Y-69000000D03*
X41075000Y-68960000D03*
X37175000Y-70230000D03*
X41075000Y-70230000D03*
X37175000Y-71500000D03*
X41075000Y-71500000D03*
X37175000Y-72770000D03*
X41075000Y-72770000D03*
X37175000Y-74040000D03*
X41075000Y-74040000D03*
%TD*%
D17*
%TO.C,R31*%
X21740000Y-57400000D03*
X22760000Y-57400000D03*
%TD*%
D49*
%TO.C,D6*%
X101287500Y-41000000D03*
X99712500Y-41000000D03*
%TD*%
D94*
%TO.C,PCA9685*%
X101612500Y-56975000D03*
X101612500Y-56325000D03*
X101612500Y-55675000D03*
X101612500Y-55025000D03*
X101612500Y-54375000D03*
X101612500Y-53725000D03*
X101612500Y-53075000D03*
X101612500Y-52425000D03*
X101612500Y-51775000D03*
X101612500Y-51125000D03*
X101612500Y-50475000D03*
X101612500Y-49825000D03*
X101612500Y-49175000D03*
X101612500Y-48525000D03*
X95887500Y-48525000D03*
X95887500Y-49175000D03*
X95887500Y-49825000D03*
X95887500Y-50475000D03*
X95887500Y-51125000D03*
X95887500Y-51775000D03*
X95887500Y-52425000D03*
X95887500Y-53075000D03*
X95887500Y-53725000D03*
X95887500Y-54375000D03*
X95887500Y-55025000D03*
X95887500Y-55675000D03*
X95887500Y-56325000D03*
X95887500Y-56975000D03*
%TD*%
D28*
%TO.C,R55*%
X61260000Y-62250000D03*
X60240000Y-62250000D03*
%TD*%
D14*
%TO.C,R6*%
X44915000Y-67105000D03*
X44915000Y-68125000D03*
%TD*%
D37*
%TO.C,C24*%
X68900000Y-56750000D03*
X68900000Y-57710000D03*
%TD*%
D30*
%TO.C,UART1-RFD-ESP1*%
X20000000Y-43500000D03*
X20000000Y-44500000D03*
X20000000Y-45500000D03*
X20000000Y-46500000D03*
D31*
X16125000Y-42200000D03*
X16125000Y-47800000D03*
%TD*%
D17*
%TO.C,R10*%
X75235000Y-29375000D03*
X76255000Y-29375000D03*
%TD*%
D92*
%TO.C,RN3*%
X75175000Y-33750000D03*
D13*
X75175000Y-34250000D03*
X75175000Y-34750000D03*
D92*
X75175000Y-35250000D03*
X76175000Y-35250000D03*
D13*
X76175000Y-34750000D03*
X76175000Y-34250000D03*
D92*
X76175000Y-33750000D03*
%TD*%
D14*
%TO.C,R13*%
X77250000Y-42850000D03*
X77250000Y-43870000D03*
%TD*%
D25*
%TO.C,C19*%
X45480000Y-44475000D03*
X44520000Y-44475000D03*
%TD*%
D29*
%TO.C,C15*%
X77000000Y-41525000D03*
X77000000Y-39975000D03*
%TD*%
D37*
%TO.C,C30*%
X58500000Y-33707500D03*
X58500000Y-34667500D03*
%TD*%
D15*
%TO.C,C21*%
X90275000Y-24880000D03*
X90275000Y-23920000D03*
%TD*%
D36*
%TO.C,R35*%
X58400000Y-27425000D03*
X58400000Y-29075000D03*
%TD*%
D95*
%TO.C,C1*%
X68600000Y-52650000D03*
X70150000Y-52650000D03*
%TD*%
D23*
%TO.C,C35*%
X66400000Y-17560000D03*
X66400000Y-19460000D03*
%TD*%
D96*
%TO.C,SAM-M10Q1*%
X92150000Y-23450000D03*
X92150000Y-25350000D03*
X92150000Y-27250000D03*
X92150000Y-29150000D03*
X92150000Y-31050000D03*
D97*
X94950000Y-33850000D03*
X96850000Y-33850000D03*
X98750000Y-33850000D03*
X100650000Y-33850000D03*
X102550000Y-33850000D03*
D96*
X105350000Y-31050000D03*
X105350000Y-29150000D03*
X105350000Y-27250000D03*
X105350000Y-25350000D03*
X105350000Y-23450000D03*
D97*
X102550000Y-20650000D03*
X100650000Y-20650000D03*
X98750000Y-20650000D03*
X96850000Y-20650000D03*
X94950000Y-20650000D03*
%TD*%
D25*
%TO.C,C28*%
X35460000Y-67000000D03*
X34500000Y-67000000D03*
%TD*%
D23*
%TO.C,C29*%
X85700000Y-71900000D03*
X85700000Y-73800000D03*
%TD*%
%TO.C,C38*%
X43500000Y-22600000D03*
X43500000Y-24500000D03*
%TD*%
D41*
%TO.C,R5*%
X109200000Y-43195000D03*
X109200000Y-42175000D03*
%TD*%
D57*
%TO.C,D1*%
X103837500Y-17250000D03*
X105412500Y-17250000D03*
%TD*%
D98*
%TO.C,U15*%
X62300000Y-56595000D03*
X62300000Y-57865000D03*
X62300000Y-59135000D03*
X62300000Y-60405000D03*
X67700000Y-60405000D03*
X67700000Y-59135000D03*
X67700000Y-57865000D03*
X67700000Y-56595000D03*
D99*
X65000000Y-58500000D03*
%TD*%
D36*
%TO.C,R38*%
X44000000Y-27425000D03*
X44000000Y-29075000D03*
%TD*%
D25*
%TO.C,C43*%
X49730000Y-60400000D03*
X48770000Y-60400000D03*
%TD*%
D53*
%TO.C,R45*%
X81800000Y-18125000D03*
X83450000Y-18125000D03*
%TD*%
D66*
%TO.C,C17*%
X75040000Y-56250000D03*
X76000000Y-56250000D03*
%TD*%
D40*
%TO.C,U11*%
X47450000Y-22790000D03*
X46500000Y-22790000D03*
X45550000Y-22790000D03*
X45550000Y-26210000D03*
X46500000Y-26210000D03*
X47450000Y-26210000D03*
%TD*%
D15*
%TO.C,C23*%
X90275000Y-28480000D03*
X90275000Y-27520000D03*
%TD*%
D49*
%TO.C,LED2*%
X86412500Y-16625000D03*
X84837500Y-16625000D03*
%TD*%
D25*
%TO.C,C8*%
X53480000Y-40500000D03*
X52520000Y-40500000D03*
%TD*%
D100*
%TO.C,BUZ1*%
X85687564Y-22312436D03*
X82187436Y-22312436D03*
D101*
X85687564Y-25812564D03*
%TD*%
D14*
%TO.C,R19*%
X73415000Y-67105000D03*
X73415000Y-68125000D03*
%TD*%
D59*
%TO.C,R3*%
X57325000Y-44350000D03*
X55675000Y-44350000D03*
%TD*%
D15*
%TO.C,C3*%
X71025000Y-40280000D03*
X71025000Y-39320000D03*
%TD*%
D102*
%TO.C,R44*%
X35212500Y-31000000D03*
X29287500Y-31000000D03*
%TD*%
D103*
%TO.C,STM32F4*%
X59325000Y-41250000D03*
X59325000Y-41750000D03*
X59325000Y-42250000D03*
X59325000Y-42750000D03*
X59325000Y-43250000D03*
X59325000Y-43750000D03*
X59325000Y-44250000D03*
X59325000Y-44750000D03*
X59325000Y-45250000D03*
X59325000Y-45750000D03*
X59325000Y-46250000D03*
X59325000Y-46750000D03*
X59325000Y-47250000D03*
X59325000Y-47750000D03*
X59325000Y-48250000D03*
X59325000Y-48750000D03*
D104*
X61250000Y-50675000D03*
X61750000Y-50675000D03*
X62250000Y-50675000D03*
X62750000Y-50675000D03*
X63250000Y-50675000D03*
X63750000Y-50675000D03*
X64250000Y-50675000D03*
X64750000Y-50675000D03*
X65250000Y-50675000D03*
X65750000Y-50675000D03*
X66250000Y-50675000D03*
X66750000Y-50675000D03*
X67250000Y-50675000D03*
X67750000Y-50675000D03*
X68250000Y-50675000D03*
X68750000Y-50675000D03*
D103*
X70675000Y-48750000D03*
X70675000Y-48250000D03*
X70675000Y-47750000D03*
X70675000Y-47250000D03*
X70675000Y-46750000D03*
X70675000Y-46250000D03*
X70675000Y-45750000D03*
X70675000Y-45250000D03*
X70675000Y-44750000D03*
X70675000Y-44250000D03*
X70675000Y-43750000D03*
X70675000Y-43250000D03*
X70675000Y-42750000D03*
X70675000Y-42250000D03*
X70675000Y-41750000D03*
X70675000Y-41250000D03*
D104*
X68750000Y-39325000D03*
X68250000Y-39325000D03*
X67750000Y-39325000D03*
X67250000Y-39325000D03*
X66750000Y-39325000D03*
X66250000Y-39325000D03*
X65750000Y-39325000D03*
X65250000Y-39325000D03*
X64750000Y-39325000D03*
X64250000Y-39325000D03*
X63750000Y-39325000D03*
X63250000Y-39325000D03*
X62750000Y-39325000D03*
X62250000Y-39325000D03*
X61750000Y-39325000D03*
X61250000Y-39325000D03*
%TD*%
D17*
%TO.C,R37*%
X59880000Y-28260000D03*
X60900000Y-28260000D03*
%TD*%
D41*
%TO.C,R26*%
X68900000Y-60280000D03*
X68900000Y-59260000D03*
%TD*%
%TO.C,R22*%
X107500000Y-25860000D03*
X107500000Y-24840000D03*
%TD*%
M02*
