M48
; DRILL file {KiCad 9.0.0} date 2025-07-16T14:45:32-0700
; FORMAT={-:-/ absolute / inch / decimal}
; #@! TF.CreationDate,2025-07-16T14:45:32-07:00
; #@! TF.GenerationSoftware,Kicad,Pcbnew,9.0.0
; #@! TF.FileFunction,Plated,1,6,PTH
FMAT,2
INCH
; #@! TA.AperFunction,Plated,PTH,ViaDrill
T1C0.0118
; #@! TA.AperFunction,Plated,PTH,ViaDrill
T2C0.0157
; #@! TA.AperFunction,Plated,PTH,ComponentDrill
T3C0.0197
; #@! TA.AperFunction,Plated,PTH,ComponentDrill
T4C0.0236
; #@! TA.AperFunction,Plated,PTH,ComponentDrill
T5C0.0256
; #@! TA.AperFunction,Plated,PTH,ComponentDrill
T6C0.0394
; #@! TA.AperFunction,Plated,PTH,ComponentDrill
T7C0.0402
; #@! TA.AperFunction,Plated,PTH,ComponentDrill
T8C0.0472
; #@! TA.AperFunction,Plated,PTH,ComponentDrill
T9C0.0591
; #@! TA.AperFunction,Plated,PTH,ComponentDrill
T10C0.0669
; #@! TA.AperFunction,Plated,PTH,ComponentDrill
T11C0.0748
; #@! TA.AperFunction,Plated,PTH,ComponentDrill
T12C0.1260
%
G90
G05
T1
X0.7874Y-1.0984
X0.7874Y-1.1378
X0.7874Y-1.1772
X0.7874Y-1.2165
X0.7874Y-1.4055
X0.7874Y-1.4449
X0.7874Y-1.4843
X0.7874Y-1.5236
X0.7874Y-1.7126
X0.7874Y-1.752
X0.7874Y-1.7913
X0.7874Y-1.8307
X0.7874Y-2.0197
X0.7874Y-2.0591
X0.7874Y-2.0984
X0.7874Y-2.1378
X0.7874Y-2.3268
X0.7874Y-2.3661
X0.7874Y-2.4055
X0.7874Y-2.4449
X0.935Y-1.9606
X0.935Y-2.2283
X0.935Y-2.5039
X1.0728Y-2.7657
X1.0728Y-2.7953
X1.0728Y-2.8248
X1.0827Y-1.1122
X1.0827Y-1.1614
X1.0827Y-2.6378
X1.1417Y-2.0472
X1.2008Y-2.6378
X1.2106Y-2.7657
X1.2106Y-2.7953
X1.2106Y-2.8248
X1.2205Y-2.4606
X1.2992Y-2.0472
X1.3189Y-1.752
X1.3337Y-1.3583
X1.3337Y-1.3878
X1.3681Y-1.3583
X1.3681Y-1.3878
X1.378Y-2.0472
X1.4026Y-1.3583
X1.4026Y-1.3878
X1.4173Y-1.6654
X1.4173Y-1.7913
X1.4567Y-2.0472
X1.4567Y-2.4606
X1.4961Y-1.6339
X1.5157Y-1.752
X1.5354Y-2.0472
X1.5354Y-2.4606
X1.5404Y-2.7165
X1.5404Y-2.765
X1.5404Y-2.815
X1.5404Y-2.865
X1.5404Y-2.915
X1.6043Y-0.6398
X1.6043Y-0.6742
X1.6043Y-0.7087
X1.6043Y-0.7431
X1.6043Y-0.7776
X1.6043Y-0.812
X1.6142Y-2.0472
X1.6201Y-1.0118
X1.6201Y-1.0472
X1.624Y-1.4075
X1.6388Y-0.6398
X1.6388Y-0.6742
X1.6388Y-0.7087
X1.6388Y-0.7431
X1.6388Y-0.7776
X1.6388Y-0.812
X1.6437Y-1.6337
X1.6437Y-1.6715
X1.6555Y-1.0118
X1.6555Y-1.0472
X1.6634Y-1.3189
X1.6634Y-1.3543
X1.6634Y-1.4665
X1.6732Y-0.6398
X1.6732Y-0.6742
X1.6732Y-0.7087
X1.6732Y-0.7431
X1.6732Y-0.7776
X1.6732Y-0.812
X1.6831Y-1.1447
X1.6909Y-1.0118
X1.6909Y-1.0472
X1.6929Y-2.0472
X1.7077Y-0.6398
X1.7077Y-0.6742
X1.7077Y-0.7087
X1.7077Y-0.7431
X1.7077Y-0.7776
X1.7077Y-0.812
X1.7126Y-1.751
X1.7264Y-1.0118
X1.7372Y-1.6634
X1.7421Y-0.6398
X1.7421Y-0.6742
X1.7421Y-0.7087
X1.7421Y-0.7431
X1.7667Y-1.6634
X1.7766Y-0.6398
X1.7766Y-0.7431
X1.7913Y-2.2047
X1.7933Y-0.9646
X1.8012Y-1.6585
X1.811Y-0.6398
X1.811Y-0.7431
X1.8303Y-2.378
X1.8307Y-0.9646
X1.8307Y-1.751
X1.8455Y-0.6398
X1.8455Y-0.7431
X1.8455Y-1.7077
X1.8504Y-2.0753
X1.8504Y-2.1358
X1.8681Y-0.9646
X1.8681Y-1.0925
X1.8705Y-2.378
X1.8799Y-0.6398
X1.8799Y-0.7431
X1.9094Y-0.8366
X1.9144Y-0.6398
X1.9144Y-0.6742
X1.9144Y-0.7087
X1.9232Y-1.1105
X1.9429Y-0.8349
X1.9429Y-0.8694
X1.9429Y-0.9038
X1.9429Y-0.9383
X1.9429Y-0.9727
X1.9488Y-0.6398
X1.9488Y-0.6742
X1.9577Y-1.1105
X1.9587Y-1.0244
X1.9587Y-1.3533
X1.9606Y-2.4847
X1.9685Y-2.2343
X1.9774Y-0.8349
X1.9774Y-0.8694
X1.9774Y-0.9038
X1.9774Y-0.9383
X1.9774Y-0.9727
X1.9774Y-1.0761
X1.9833Y-0.6398
X1.9833Y-0.6742
X1.9921Y-1.1105
X1.998Y-2.4847
X1.998Y-2.5709
X2.0118Y-0.8349
X2.0118Y-0.8694
X2.0118Y-0.9038
X2.0118Y-0.9383
X2.0118Y-0.9727
X2.0118Y-1.0072
X2.0118Y-1.0416
X2.0118Y-1.0761
X2.0177Y-0.6398
X2.0177Y-0.6742
X2.0276Y-1.1105
X2.0276Y-1.8209
X2.0276Y-1.8701
X2.0354Y-2.4847
X2.0472Y-0.8349
X2.0472Y-0.8694
X2.0472Y-0.9038
X2.0472Y-0.9383
X2.0472Y-0.9727
X2.0472Y-1.0072
X2.0472Y-1.0416
X2.0472Y-1.0761
X2.0522Y-0.6398
X2.0522Y-0.6742
X2.0866Y-2.1654
X2.0945Y-2.5295
X2.1378Y-2.4935
X2.1411Y-2.2736
X2.1457Y-1.5846
X2.147Y-2.2307
X2.1496Y-1.9291
X2.1654Y-2.378
X2.1703Y-2.2096
X2.1752Y-0.6398
X2.1752Y-0.6742
X2.1752Y-0.7087
X2.1752Y-0.7431
X2.1752Y-0.7776
X2.1752Y-0.812
X2.1801Y-2.0753
X2.187Y-1.0118
X2.187Y-1.0472
X2.1949Y-1.5846
X2.1969Y-1.9045
X2.2096Y-0.6398
X2.2096Y-0.6742
X2.2096Y-0.7087
X2.2096Y-0.7431
X2.2096Y-0.7776
X2.2096Y-0.812
X2.2224Y-1.0118
X2.2224Y-1.0472
X2.228Y-1.8209
X2.2441Y-0.6398
X2.2441Y-0.6742
X2.2441Y-0.7087
X2.2441Y-0.7431
X2.2441Y-0.7776
X2.2441Y-0.812
X2.25Y-1.1447
X2.2539Y-1.5628
X2.2579Y-1.0118
X2.2579Y-1.0472
X2.2785Y-0.6398
X2.2785Y-0.6742
X2.2785Y-0.7087
X2.2785Y-0.7431
X2.2785Y-0.7776
X2.2785Y-0.812
X2.2933Y-1.0118
X2.313Y-0.6398
X2.313Y-0.6742
X2.313Y-0.7087
X2.313Y-0.7431
X2.313Y-0.7776
X2.313Y-0.812
X2.3327Y-2.7559
X2.3356Y-1.9448
X2.3425Y-1.3271
X2.3425Y-1.3649
X2.3474Y-0.7087
X2.3602Y-0.9646
X2.3671Y-2.3732
X2.372Y-1.5157
X2.372Y-2.063
X2.372Y-2.7559
X2.3819Y-0.7087
X2.3872Y-1.5941
X2.3898Y-1.8583
X2.3898Y-1.8858
X2.3976Y-0.9646
X2.398Y-1.7274
X2.4076Y-1.6142
X2.4114Y-2.7559
X2.4163Y-0.7087
X2.4173Y-1.8119
X2.4173Y-1.752
X2.4173Y-1.7815
X2.4173Y-1.8425
X2.4262Y-1.7274
X2.427Y-1.6339
X2.435Y-0.9646
X2.435Y-1.0925
X2.4461Y-2.0965
X2.4466Y-1.6535
X2.4508Y-0.7087
X2.4508Y-2.7559
X2.4665Y-1.6734
X2.4764Y-0.8366
X2.4852Y-0.6398
X2.4852Y-0.6742
X2.4852Y-0.7087
X2.4862Y-1.6931
X2.4911Y-2.0748
X2.5032Y-1.0925
X2.5187Y-2.0945
X2.5197Y-0.6398
X2.5236Y-0.8169
X2.5236Y-0.8514
X2.5236Y-0.8858
X2.5236Y-0.9203
X2.5236Y-0.9547
X2.5246Y-0.9892
X2.5246Y-1.0581
X2.5256Y-1.0244
X2.5295Y-2.2441
X2.5295Y-2.3031
X2.5295Y-2.3622
X2.5377Y-1.0925
X2.5492Y-1.6339
X2.5541Y-0.6398
X2.5574Y-0.9892
X2.5581Y-0.8169
X2.5581Y-0.8514
X2.5581Y-0.8858
X2.5581Y-0.9203
X2.5581Y-0.9547
X2.5581Y-1.0236
X2.5591Y-1.0581
X2.5591Y-1.3524
X2.5591Y-1.3839
X2.5591Y-2.0433
X2.5591Y-2.2736
X2.5591Y-2.3327
X2.5689Y-1.6142
X2.5746Y-1.0925
X2.5882Y-2.0965
X2.5886Y-0.6398
X2.5886Y-1.5948
X2.5886Y-2.2441
X2.5886Y-2.3031
X2.5886Y-2.3622
X2.5918Y-0.9892
X2.5925Y-0.8169
X2.5925Y-0.8514
X2.5925Y-0.8858
X2.5925Y-0.9203
X2.5925Y-0.9547
X2.5925Y-1.0236
X2.5935Y-1.0581
X2.6076Y-1.0925
X2.623Y-0.6398
X2.6273Y-0.9892
X2.628Y-0.8169
X2.628Y-0.8514
X2.628Y-0.8858
X2.628Y-0.9203
X2.628Y-0.9547
X2.628Y-1.0236
X2.6289Y-1.0581
X2.6329Y-1.752
X2.6329Y-1.7805
X2.6329Y-1.8061
X2.6378Y-1.9193
X2.6437Y-2.0906
X2.6445Y-2.118
X2.6526Y-1.9448
X2.6654Y-2.3281
X2.6654Y-2.3781
X2.6673Y-1.3492
X2.6673Y-1.387
X2.6673Y-1.8258
X2.6673Y-1.8898
X2.6673Y-2.7559
X2.6722Y-1.8553
X2.687Y-1.4665
X2.6969Y-1.6978
X2.6969Y-1.7274
X2.7018Y-1.8898
X2.7067Y-2.7559
X2.7248Y-1.6224
X2.7313Y-1.6634
X2.7313Y-2.0472
X2.7461Y-2.7559
X2.7508Y-1.6028
X2.7559Y-2.2343
X2.7559Y-2.3031
X2.7559Y-2.3732
X2.7657Y-1.5699
X2.7805Y-1.127
X2.7854Y-2.7559
X2.8002Y-1.127
X2.815Y-2.0472
X2.82Y-1.1268
X2.8228Y-1.3583
X2.8297Y-1.6732
X2.8299Y-1.7124
X2.8321Y-1.1565
X2.8346Y-2.1929
X2.8543Y-1.5738
X2.8593Y-2.3228
X2.8789Y-1.127
X2.8986Y-1.127
X2.9114Y-2.3376
X2.9183Y-1.127
X2.9318Y-1.3368
X2.9321Y-1.1565
X2.9321Y-1.2795
X2.9321Y-1.3091
X2.9321Y-1.3681
X2.9321Y-1.3957
X2.9331Y-2.1929
X2.9331Y-2.3228
X2.9547Y-2.3376
X2.9774Y-1.127
X2.997Y-1.127
X3.002Y-1.7071
X3.0167Y-1.127
X3.0217Y-2.0079
X3.0315Y-1.5256
X3.0315Y-1.8553
X3.0321Y-1.1565
X3.0335Y-2.1929
X3.0361Y-1.3136
X3.0413Y-1.3957
X3.0413Y-1.9213
X3.0463Y-1.3425
X3.0463Y-1.3681
X3.0807Y-1.127
X3.1004Y-1.127
X3.1004Y-1.5453
X3.1201Y-1.127
X3.1201Y-2.4847
X3.1201Y-2.5709
X3.1321Y-1.1565
X3.1417Y-1.687
X3.1417Y-1.8209
X3.1417Y-1.8543
X3.1417Y-1.9547
X3.1417Y-1.9882
X3.1417Y-2.0217
X3.1417Y-2.0551
X3.1752Y-2.0551
X3.2087Y-2.0551
X3.2165Y-2.5295
X3.2421Y-2.0551
X3.253Y-0.6545
X3.253Y-0.7136
X3.2756Y-2.0551
X3.2923Y-1.1319
X3.3046Y-0.8784
X3.3091Y-2.0551
X3.311Y-1.7559
X3.311Y-1.8209
X3.311Y-1.8858
X3.3425Y-2.0551
X3.374Y-2.7756
X3.374Y-2.8681
X3.376Y-1.7559
X3.376Y-1.8209
X3.376Y-1.8858
X3.4252Y-1.2795
X3.4409Y-1.7559
X3.4409Y-1.8209
X3.4409Y-1.8858
X3.4547Y-1.2795
X3.4843Y-1.2795
X3.4966Y-0.9795
X3.5138Y-1.2795
X3.5502Y-2.0551
X3.5541Y-1.0256
X3.5925Y-1.5866
X3.5925Y-1.6703
X3.5925Y-1.8209
X3.5925Y-1.8543
X3.5925Y-1.8878
X3.5925Y-1.9213
X3.5925Y-1.9882
X3.5925Y-2.0217
X3.5925Y-2.0551
X3.6014Y-2.7362
X3.628Y-0.813
X3.628Y-1.3327
X3.6516Y-1.5453
X3.6516Y-2.0965
X3.688Y-2.7362
X3.7456Y-2.2933
X3.7456Y-2.3228
X3.7456Y-2.3524
X3.7746Y-1.8209
X3.7746Y-2.7362
X3.7751Y-2.2933
X3.7751Y-2.3228
X3.7751Y-2.3524
X3.8046Y-2.2933
X3.8046Y-2.3228
X3.8046Y-2.3524
X3.813Y-1.2224
X3.8179Y-2.7362
X3.8287Y-1.4961
X3.8287Y-1.5551
X3.8287Y-1.6142
X3.8287Y-1.6732
X3.8287Y-2.1535
X3.8878Y-1.2224
X3.9469Y-1.9104
X3.9469Y-2.1663
X3.9469Y-2.1919
X3.9626Y-0.9232
X3.9626Y-1.2224
X3.9764Y-2.2933
X3.9764Y-2.3228
X3.9764Y-2.3524
X3.9877Y-1.4961
X3.9877Y-1.5551
X3.9877Y-1.6142
X3.9877Y-1.6732
X4.001Y-1.8209
X4.0374Y-1.1476
X4.1476Y-0.813
X4.1476Y-1.3327
X4.2323Y-0.8957
X4.2323Y-0.978
X4.2323Y-1.1677
X4.2323Y-1.3327
X4.2913Y-1.2205
X4.2992Y-1.7006
X4.4291Y-1.5157
X4.4483Y-0.9232
X4.4483Y-1.2224
X4.4483Y-1.3661
X4.4483Y-1.6654
X4.4793Y-1.2795
T2
X1.9035Y-2.6083
X2.0925Y-2.6083
X3.0256Y-2.6083
X3.2146Y-2.6083
T3
X0.6535Y-0.748
X0.6535Y-2.7953
X0.6812Y-0.6812
X0.6812Y-0.8148
X0.6812Y-2.7285
X0.6812Y-2.8621
X0.748Y-0.6535
X0.748Y-0.8425
X0.748Y-2.7008
X0.748Y-2.8898
X0.8148Y-0.6812
X0.8148Y-0.8148
X0.8148Y-2.7285
X0.8148Y-2.8621
X0.8425Y-0.748
X0.8425Y-2.7953
X4.2756Y-0.748
X4.2756Y-2.7953
X4.3033Y-0.6812
X4.3033Y-0.8148
X4.3033Y-2.7285
X4.3033Y-2.8621
X4.3701Y-0.6535
X4.3701Y-0.8425
X4.3701Y-2.7008
X4.3701Y-2.8898
X4.4369Y-0.6812
X4.4369Y-0.8148
X4.4369Y-2.7285
X4.4369Y-2.8621
X4.4646Y-0.748
X4.4646Y-2.7953
T5
X3.7878Y-0.6791
X3.8378Y-0.6791
X3.8878Y-0.6791
X3.9378Y-0.6791
X3.9878Y-0.6791
T6
X1.0531Y-0.6368
X1.4862Y-0.6368
T7
X4.1594Y-1.8705
X4.1594Y-1.9705
X4.1594Y-2.0705
X4.1594Y-2.1705
X4.1594Y-2.2705
X4.1594Y-2.3705
X4.1594Y-2.4705
X4.1594Y-2.5705
X4.2594Y-1.8705
X4.2594Y-1.9705
X4.2594Y-2.0705
X4.2594Y-2.1705
X4.2594Y-2.2705
X4.2594Y-2.3705
X4.2594Y-2.4705
X4.2594Y-2.5705
X4.3594Y-1.8705
X4.3594Y-1.9705
X4.3594Y-2.0705
X4.3594Y-2.1705
X4.3594Y-2.2705
X4.3594Y-2.3705
X4.3594Y-2.4705
X4.3594Y-2.5705
T8
X2.7821Y-0.749
X2.8821Y-0.749
X2.9821Y-0.749
X3.0821Y-0.749
T9
X1.1417Y-2.7953
T10
X1.0417Y-2.6953
X1.0417Y-2.8953
X1.2417Y-2.6953
X1.2417Y-2.8953
T11
X1.1713Y-1.0305
X1.3681Y-1.0305
T12
X0.748Y-0.748
X0.748Y-2.7953
X4.3701Y-0.748
X4.3701Y-2.7953
T4
G00X1.828Y-2.6604
M15
G01X1.828Y-2.7037
M16
G05
G00X1.828Y-2.8317
M15
G01X1.828Y-2.8632
M16
G05
G00X2.1681Y-2.6604
M15
G01X2.1681Y-2.7037
M16
G05
G00X2.1681Y-2.8317
M15
G01X2.1681Y-2.8632
M16
G05
G00X2.95Y-2.6604
M15
G01X2.95Y-2.7037
M16
G05
G00X2.95Y-2.8317
M15
G01X2.95Y-2.8632
M16
G05
G00X3.2902Y-2.6604
M15
G01X3.2902Y-2.7037
M16
G05
G00X3.2902Y-2.8317
M15
G01X3.2902Y-2.8632
M16
G05
M30
