%TF.GenerationSoftware,KiCad,Pcbnew,9.0.0*%
%TF.CreationDate,2025-04-04T17:03:46+04:00*%
%TF.ProjectId,aether,61657468-6572-42e6-9b69-6361645f7063,rev?*%
%TF.SameCoordinates,Original*%
%TF.FileFunction,Copper,L4,Bot*%
%TF.FilePolarity,Positive*%
%FSLAX46Y46*%
G04 Gerber Fmt 4.6, Leading zero omitted, Abs format (unit mm)*
G04 Created by KiCad (PCBNEW 9.0.0) date 2025-04-04 17:03:46*
%MOMM*%
%LPD*%
G01*
G04 APERTURE LIST*
G04 Aperture macros list*
%AMRoundRect*
0 Rectangle with rounded corners*
0 $1 Rounding radius*
0 $2 $3 $4 $5 $6 $7 $8 $9 X,Y pos of 4 corners*
0 Add a 4 corners polygon primitive as box body*
4,1,4,$2,$3,$4,$5,$6,$7,$8,$9,$2,$3,0*
0 Add four circle primitives for the rounded corners*
1,1,$1+$1,$2,$3*
1,1,$1+$1,$4,$5*
1,1,$1+$1,$6,$7*
1,1,$1+$1,$8,$9*
0 Add four rect primitives between the rounded corners*
20,1,$1+$1,$2,$3,$4,$5,0*
20,1,$1+$1,$4,$5,$6,$7,0*
20,1,$1+$1,$6,$7,$8,$9,0*
20,1,$1+$1,$8,$9,$2,$3,0*%
G04 Aperture macros list end*
%TA.AperFunction,HeatsinkPad*%
%ADD10O,1.000000X2.100000*%
%TD*%
%TA.AperFunction,HeatsinkPad*%
%ADD11O,1.000000X1.800000*%
%TD*%
%TA.AperFunction,ComponentPad*%
%ADD12C,0.800000*%
%TD*%
%TA.AperFunction,ComponentPad*%
%ADD13C,6.400000*%
%TD*%
%TA.AperFunction,ComponentPad*%
%ADD14C,2.050000*%
%TD*%
%TA.AperFunction,ComponentPad*%
%ADD15C,2.250000*%
%TD*%
%TA.AperFunction,ComponentPad*%
%ADD16C,1.400000*%
%TD*%
%TA.AperFunction,ComponentPad*%
%ADD17RoundRect,0.770000X-0.980000X-0.980000X0.980000X-0.980000X0.980000X0.980000X-0.980000X0.980000X0*%
%TD*%
%TA.AperFunction,ComponentPad*%
%ADD18C,3.500000*%
%TD*%
%TA.AperFunction,ComponentPad*%
%ADD19R,1.370000X1.370000*%
%TD*%
%TA.AperFunction,ComponentPad*%
%ADD20C,1.370000*%
%TD*%
%TA.AperFunction,ComponentPad*%
%ADD21R,1.000000X1.000000*%
%TD*%
%TA.AperFunction,ComponentPad*%
%ADD22O,1.000000X1.000000*%
%TD*%
%TA.AperFunction,ComponentPad*%
%ADD23C,2.000000*%
%TD*%
%TA.AperFunction,ComponentPad*%
%ADD24RoundRect,0.250000X0.750000X0.750000X-0.750000X0.750000X-0.750000X-0.750000X0.750000X-0.750000X0*%
%TD*%
%TA.AperFunction,ViaPad*%
%ADD25C,0.350000*%
%TD*%
%TA.AperFunction,ViaPad*%
%ADD26C,0.800000*%
%TD*%
%TA.AperFunction,ViaPad*%
%ADD27C,0.600000*%
%TD*%
%TA.AperFunction,ViaPad*%
%ADD28C,0.700000*%
%TD*%
%TA.AperFunction,Conductor*%
%ADD29C,0.500000*%
%TD*%
%TA.AperFunction,Conductor*%
%ADD30C,0.250000*%
%TD*%
G04 APERTURE END LIST*
D10*
%TO.P,USB_STM32,S1,SHIELD*%
%TO.N,GND*%
X81430000Y-138125000D03*
D11*
X81430000Y-142325000D03*
D10*
X90070000Y-138125000D03*
D11*
X90070000Y-142325000D03*
%TD*%
D10*
%TO.P,USB_ESP32,S1,SHIELD*%
%TO.N,GND*%
X109930000Y-138125000D03*
D11*
X109930000Y-142325000D03*
D10*
X118570000Y-138125000D03*
D11*
X118570000Y-142325000D03*
%TD*%
D12*
%TO.P,H1,1,1*%
%TO.N,GND*%
X51600000Y-89000000D03*
X52302944Y-87302944D03*
X52302944Y-90697056D03*
X54000000Y-86600000D03*
D13*
X54000000Y-89000000D03*
D12*
X54000000Y-91400000D03*
X55697056Y-87302944D03*
X55697056Y-90697056D03*
X56400000Y-89000000D03*
%TD*%
D14*
%TO.P,ANT1,1,A*%
%TO.N,RFM95W_ANT*%
X64000000Y-141000000D03*
D15*
%TO.P,ANT1,2,Shield*%
%TO.N,GND*%
X66540000Y-143540000D03*
X66540000Y-138460000D03*
X61460000Y-143540000D03*
X61460000Y-138460000D03*
%TD*%
D12*
%TO.P,H3,1,1*%
%TO.N,GND*%
X143600000Y-141000000D03*
X144302944Y-139302944D03*
X144302944Y-142697056D03*
X146000000Y-138600000D03*
D13*
X146000000Y-141000000D03*
D12*
X146000000Y-143400000D03*
X147697056Y-139302944D03*
X147697056Y-142697056D03*
X148400000Y-141000000D03*
%TD*%
%TO.P,H2,1,1*%
%TO.N,GND*%
X51600000Y-141000000D03*
X52302944Y-139302944D03*
X52302944Y-142697056D03*
X54000000Y-138600000D03*
D13*
X54000000Y-141000000D03*
D12*
X54000000Y-143400000D03*
X55697056Y-139302944D03*
X55697056Y-142697056D03*
X56400000Y-141000000D03*
%TD*%
D16*
%TO.P,XT30,*%
%TO.N,*%
X61750000Y-86175000D03*
X72750000Y-86175000D03*
D17*
%TO.P,XT30,1,N*%
%TO.N,GND*%
X69750000Y-96175000D03*
D18*
%TO.P,XT30,2,P*%
%TO.N,INA219_IN+*%
X64750000Y-96175000D03*
%TD*%
D19*
%TO.P,PWM1,01,01*%
%TO.N,GND*%
X147000000Y-135290000D03*
D20*
%TO.P,PWM1,02,02*%
%TO.N,5V*%
X144460000Y-135290000D03*
%TO.P,PWM1,03,03*%
%TO.N,PWM7*%
X141920000Y-135290000D03*
%TO.P,PWM1,04,04*%
%TO.N,GND*%
X147000000Y-132750000D03*
%TO.P,PWM1,05,05*%
%TO.N,5V*%
X144460000Y-132750000D03*
%TO.P,PWM1,06,06*%
%TO.N,PWM6*%
X141920000Y-132750000D03*
%TO.P,PWM1,07,07*%
%TO.N,GND*%
X147000000Y-130210000D03*
%TO.P,PWM1,08,08*%
%TO.N,5V*%
X144460000Y-130210000D03*
%TO.P,PWM1,09,09*%
%TO.N,PWM5*%
X141920000Y-130210000D03*
%TO.P,PWM1,10,10*%
%TO.N,GND*%
X147000000Y-127670000D03*
%TO.P,PWM1,11,11*%
%TO.N,5V*%
X144460000Y-127670000D03*
%TO.P,PWM1,12,12*%
%TO.N,PWM4*%
X141920000Y-127670000D03*
%TO.P,PWM1,13,13*%
%TO.N,GND*%
X147000000Y-125130000D03*
%TO.P,PWM1,14,14*%
%TO.N,5V*%
X144460000Y-125130000D03*
%TO.P,PWM1,15,15*%
%TO.N,PWM3*%
X141920000Y-125130000D03*
%TO.P,PWM1,16,16*%
%TO.N,GND*%
X147000000Y-122590000D03*
%TO.P,PWM1,17,17*%
%TO.N,5V*%
X144460000Y-122590000D03*
%TO.P,PWM1,18,18*%
%TO.N,PWM2*%
X141920000Y-122590000D03*
%TO.P,PWM1,19,19*%
%TO.N,GND*%
X147000000Y-120050000D03*
%TO.P,PWM1,20,20*%
%TO.N,5V*%
X144460000Y-120050000D03*
%TO.P,PWM1,21,21*%
%TO.N,PWM1*%
X141920000Y-120050000D03*
%TO.P,PWM1,22,22*%
%TO.N,GND*%
X147000000Y-117510000D03*
%TO.P,PWM1,23,23*%
%TO.N,5V*%
X144460000Y-117510000D03*
%TO.P,PWM1,24,24*%
%TO.N,PWM0*%
X141920000Y-117510000D03*
%TD*%
D21*
%TO.P,GPS_IO1,1,Pin_1*%
%TO.N,GPS_RX*%
X136290000Y-87250000D03*
D22*
%TO.P,GPS_IO1,2,Pin_2*%
%TO.N,GPS_TX*%
X135020000Y-87250000D03*
%TO.P,GPS_IO1,3,Pin_3*%
%TO.N,GPS_RST*%
X133750000Y-87250000D03*
%TO.P,GPS_IO1,4,Pin_4*%
%TO.N,GPS_INT*%
X132480000Y-87250000D03*
%TO.P,GPS_IO1,5,Pin_5*%
%TO.N,GPS_SAFE*%
X131210000Y-87250000D03*
%TD*%
D23*
%TO.P,PYRO1,4,Pin_4*%
%TO.N,PYRO-TERM_A*%
X105665000Y-89025000D03*
D24*
%TO.P,PYRO1,1,Pin_1*%
%TO.N,PYRO-TERM_D*%
X113285000Y-89025000D03*
D23*
%TO.P,PYRO1,2,Pin_2*%
%TO.N,PYRO-TERM_C*%
X110745000Y-89025000D03*
%TO.P,PYRO1,3,Pin_3*%
%TO.N,PYRO-TERM_B*%
X108205000Y-89025000D03*
%TD*%
D12*
%TO.P,H4,1,1*%
%TO.N,GND*%
X143600000Y-89000000D03*
X144302944Y-87302944D03*
X144302944Y-90697056D03*
X146000000Y-86600000D03*
D13*
X146000000Y-89000000D03*
D12*
X146000000Y-91400000D03*
X147697056Y-87302944D03*
X147697056Y-90697056D03*
X148400000Y-89000000D03*
%TD*%
D25*
%TO.N,PYRO-TERM_A*%
X107000000Y-105450000D03*
%TO.N,PYRO-TERM_D*%
X107000000Y-103550000D03*
%TO.N,PYRO-TERM_C*%
X107000000Y-104150000D03*
%TO.N,PYRO-TERM_B*%
X107000000Y-104850000D03*
%TO.N,PYRO-TERM_D*%
X113285000Y-91125000D03*
%TO.N,PYRO-TERM_C*%
X110745000Y-91125000D03*
%TO.N,PYRO-TERM_B*%
X108205000Y-91125000D03*
%TO.N,PYRO-TERM_A*%
X105665000Y-91125000D03*
%TO.N,PYRO_D*%
X114555000Y-99375000D03*
%TO.N,PYRO_C*%
X112015000Y-99375000D03*
%TO.N,PYRO_B*%
X109475000Y-99375000D03*
%TO.N,PYRO_A*%
X106935000Y-99375000D03*
D26*
%TO.N,GND*%
X90750000Y-110250000D03*
D27*
X62500000Y-137000000D03*
X62250000Y-141000000D03*
X65500000Y-137000000D03*
X62250000Y-140250000D03*
D26*
X86500000Y-116250000D03*
D27*
X65750000Y-140250000D03*
X65750000Y-141750000D03*
X62250000Y-141750000D03*
D26*
X86500000Y-117500000D03*
D27*
X65750000Y-141000000D03*
D26*
X89500000Y-110250000D03*
D27*
%TO.N,3.3V*%
X123812500Y-94880000D03*
%TO.N,Net-(U10-SW)*%
X99150000Y-96020000D03*
X97900000Y-91250000D03*
%TO.N,Net-(U11-SW)*%
X84750000Y-96020000D03*
X83500000Y-91250000D03*
D28*
%TO.N,INA219_IN+*%
X62500000Y-98250000D03*
X77250000Y-103500000D03*
%TO.N,INA219_IN-*%
X62500000Y-99500000D03*
X77250000Y-104400003D03*
D27*
%TO.N,Net-(U10-EN)*%
X92150000Y-99075000D03*
X96850000Y-97750000D03*
%TO.N,Net-(U11-EN)*%
X77750000Y-99075000D03*
X82450000Y-97750000D03*
%TD*%
D29*
%TO.N,Net-(U10-SW)*%
X99150000Y-96020000D02*
X99150000Y-96000000D01*
D30*
X99150000Y-96000000D02*
X97900000Y-94750000D01*
X97900000Y-94750000D02*
X97900000Y-91250000D01*
%TO.N,Net-(U11-SW)*%
X83500000Y-94770000D02*
X84750000Y-96020000D01*
X83500000Y-91250000D02*
X83500000Y-94770000D01*
%TO.N,INA219_IN+*%
X67750000Y-103500000D02*
X77250000Y-103500000D01*
X62500000Y-98250000D02*
X67750000Y-103500000D01*
%TO.N,INA219_IN-*%
X67400003Y-104400003D02*
X77250000Y-104400003D01*
X62500000Y-99500000D02*
X67400003Y-104400003D01*
%TO.N,Net-(U10-EN)*%
X92150000Y-99075000D02*
X93475000Y-97750000D01*
X93475000Y-97750000D02*
X96850000Y-97750000D01*
%TO.N,Net-(U11-EN)*%
X79075000Y-97750000D02*
X82450000Y-97750000D01*
X77750000Y-99075000D02*
X79075000Y-97750000D01*
%TD*%
M02*
