M48
; DRILL file {KiCad 9.0.0} date 2025-04-04T17:03:46+0400
; FORMAT={-:-/ absolute / inch / decimal}
; #@! TF.CreationDate,2025-04-04T17:03:46+04:00
; #@! TF.GenerationSoftware,Kicad,Pcbnew,9.0.0
; #@! TF.FileFunction,Plated,1,4,PTH
FMAT,2
INCH
; #@! TA.AperFunction,Plated,PTH,ViaDrill
T1C0.0079
; #@! TA.AperFunction,Plated,PTH,ViaDrill
T2C0.0118
; #@! TA.AperFunction,Plated,PTH,ViaDrill
T3C0.0157
; #@! TA.AperFunction,Plated,PTH,ComponentDrill
T4C0.0197
; #@! TA.AperFunction,Plated,PTH,ComponentDrill
T5C0.0236
; #@! TA.AperFunction,Plated,PTH,ComponentDrill
T6C0.0256
; #@! TA.AperFunction,Plated,PTH,ComponentDrill
T7C0.0394
; #@! TA.AperFunction,Plated,PTH,ComponentDrill
T8C0.0402
; #@! TA.AperFunction,Plated,PTH,ComponentDrill
T9C0.0472
; #@! TA.AperFunction,Plated,PTH,ComponentDrill
T10C0.0591
; #@! TA.AperFunction,Plated,PTH,ComponentDrill
T11C0.0669
; #@! TA.AperFunction,Plated,PTH,ComponentDrill
T12C0.0748
; #@! TA.AperFunction,Plated,PTH,ComponentDrill
T13C0.1260
%
G90
G05
T1
X4.16Y-3.5876
X4.21Y-3.9124
X4.2126Y-4.0768
X4.2126Y-4.1004
X4.2126Y-4.128
X4.2126Y-4.1516
X4.26Y-3.5876
X4.31Y-3.9124
X4.36Y-3.5876
X4.41Y-3.9124
X4.46Y-3.5876
X4.51Y-3.9124
T2
X2.4508Y-5.5217
X2.4508Y-5.5512
X2.4508Y-5.5807
X2.4606Y-3.8681
X2.4606Y-3.9173
X2.4606Y-5.3937
X2.5787Y-5.3937
X2.5886Y-5.5217
X2.5886Y-5.5512
X2.5886Y-5.5807
X3.0413Y-4.0748
X3.0413Y-4.1102
X3.061Y-3.9006
X3.2461Y-3.8484
X3.2874Y-3.5925
X3.3366Y-3.7803
X3.628Y-3.9006
X3.813Y-3.8484
X3.8543Y-3.5925
X3.9035Y-3.7803
X4.8745Y-3.7354
T3
X3.4055Y-4.5768
X3.4055Y-4.626
X3.5236Y-4.3406
X3.5728Y-4.3406
T4
X2.0315Y-3.5039
X2.0315Y-5.5512
X2.0592Y-3.4371
X2.0592Y-3.5708
X2.0592Y-5.4844
X2.0592Y-5.618
X2.126Y-3.4094
X2.126Y-3.5984
X2.126Y-5.4567
X2.126Y-5.6457
X2.1928Y-3.4371
X2.1928Y-3.5708
X2.1928Y-5.4844
X2.1928Y-5.618
X2.2205Y-3.5039
X2.2205Y-5.5512
X5.6535Y-3.5039
X5.6535Y-5.5512
X5.6812Y-3.4371
X5.6812Y-3.5708
X5.6812Y-5.4844
X5.6812Y-5.618
X5.748Y-3.4094
X5.748Y-3.5984
X5.748Y-5.4567
X5.748Y-5.6457
X5.8148Y-3.4371
X5.8148Y-3.5708
X5.8148Y-5.4844
X5.8148Y-5.618
X5.8425Y-3.5039
X5.8425Y-5.5512
T6
X5.1657Y-3.435
X5.2157Y-3.435
X5.2657Y-3.435
X5.3157Y-3.435
X5.3657Y-3.435
T7
X2.4311Y-3.3927
X2.8642Y-3.3927
T8
X5.5874Y-4.6264
X5.5874Y-4.7264
X5.5874Y-4.8264
X5.5874Y-4.9264
X5.5874Y-5.0264
X5.5874Y-5.1264
X5.5874Y-5.2264
X5.5874Y-5.3264
X5.6874Y-4.6264
X5.6874Y-4.7264
X5.6874Y-4.8264
X5.6874Y-4.9264
X5.6874Y-5.0264
X5.6874Y-5.1264
X5.6874Y-5.2264
X5.6874Y-5.3264
X5.7874Y-4.6264
X5.7874Y-4.7264
X5.7874Y-4.8264
X5.7874Y-4.9264
X5.7874Y-5.0264
X5.7874Y-5.1264
X5.7874Y-5.2264
X5.7874Y-5.3264
T9
X4.16Y-3.5049
X4.26Y-3.5049
X4.36Y-3.5049
X4.46Y-3.5049
T10
X2.5197Y-5.5512
T11
X2.4197Y-5.4512
X2.4197Y-5.6512
X2.6197Y-5.4512
X2.6197Y-5.6512
T12
X2.5492Y-3.7864
X2.7461Y-3.7864
T13
X2.126Y-3.5039
X2.126Y-5.5512
X5.748Y-3.5039
X5.748Y-5.5512
T5
G00X3.2059Y-5.4163
M15
G01X3.2059Y-5.4596
M16
G05
G00X3.2059Y-5.5876
M15
G01X3.2059Y-5.6191
M16
G05
G00X3.5461Y-5.4163
M15
G01X3.5461Y-5.4596
M16
G05
G00X3.5461Y-5.5876
M15
G01X3.5461Y-5.6191
M16
G05
G00X4.328Y-5.4163
M15
G01X4.328Y-5.4596
M16
G05
G00X4.328Y-5.5876
M15
G01X4.328Y-5.6191
M16
G05
G00X4.6681Y-5.4163
M15
G01X4.6681Y-5.4596
M16
G05
G00X4.6681Y-5.5876
M15
G01X4.6681Y-5.6191
M16
G05
M30
